{"glyphs":{"0":{"ha":890,"x_min":49,"x_max":842,"o":"m 438 -19 q 149 87 249 -19 q 49 385 49 193 q 160 689 49 581 q 439 797 271 797 q 592 778 524 797 q 719 717 661 760 q 810 598 778 675 q 842 413 842 521 q 808 215 842 300 q 717 79 775 129 q 588 5 658 29 q 438 -19 518 -19 m 443 90 q 629 404 629 90 q 582 624 629 561 q 449 686 535 686 q 261 393 261 686 q 443 90 261 90 z "},"1":{"ha":588,"x_min":63,"x_max":546,"o":"m 79 0 l 79 85 l 186 99 q 218 144 218 104 l 218 601 q 217 631 218 621 q 206 651 215 642 q 176 660 196 660 l 63 660 l 74 753 l 368 790 l 414 764 l 414 156 q 419 113 414 121 q 451 100 425 104 l 546 83 l 546 0 l 79 0 z "},"2":{"ha":813,"x_min":63,"x_max":736,"o":"m 71 0 l 71 108 q 281 260 144 153 q 425 401 376 336 q 474 544 474 465 q 343 692 474 692 q 226 647 271 692 q 267 578 267 599 q 239 517 267 544 q 165 489 211 489 q 89 517 115 489 q 63 586 63 544 q 152 735 63 672 q 382 797 242 797 q 605 735 524 797 q 686 556 686 672 q 677 490 686 522 q 657 435 668 458 q 620 383 646 411 q 579 338 594 354 q 526 294 564 321 q 472 256 488 267 q 412 217 457 246 q 356 181 367 188 l 292 139 l 292 132 l 479 132 q 578 156 550 132 q 639 269 607 179 l 736 269 l 715 0 l 71 0 z "},"3":{"ha":786,"x_min":51,"x_max":713,"o":"m 92 -244 l 75 -146 q 384 -51 275 -124 q 493 132 493 21 q 464 238 493 194 q 389 297 435 281 q 235 246 347 276 l 217 351 q 401 435 342 382 q 461 572 461 488 q 426 660 461 628 q 328 692 392 692 q 213 647 249 692 q 253 576 253 604 q 223 517 253 544 q 147 489 193 489 q 51 588 51 489 q 144 734 51 671 q 381 797 236 797 q 592 742 514 797 q 669 589 669 688 q 499 364 669 456 l 499 357 q 713 129 713 297 q 544 -135 713 -33 q 92 -244 375 -236 z "},"4":{"ha":878,"x_min":14,"x_max":833,"o":"m 474 -228 l 474 0 l 29 0 l 14 110 l 483 771 l 621 797 l 657 768 l 657 133 l 701 133 q 736 158 728 133 l 756 224 l 833 224 l 833 -86 l 756 -86 l 736 -26 q 700 0 729 0 l 657 0 l 657 -228 l 474 -228 m 157 133 l 474 133 l 474 569 l 157 133 z "},"5":{"ha":753,"x_min":51,"x_max":689,"o":"m 68 -244 l 51 -146 q 371 -47 271 -121 q 471 153 471 26 q 428 265 471 224 q 311 306 385 306 q 138 267 224 306 l 92 333 l 131 778 l 450 778 q 535 797 513 778 q 576 883 557 815 l 669 883 l 639 626 l 239 626 l 215 385 q 419 439 317 439 q 615 365 542 439 q 689 165 689 290 q 523 -131 689 -25 q 68 -244 357 -237 z "},"6":{"ha":863,"x_min":72,"x_max":804,"o":"m 431 -19 q 265 13 336 -19 q 153 101 194 44 q 92 228 113 158 q 72 379 72 297 q 119 650 72 532 q 251 843 167 768 q 442 960 335 918 q 681 1013 550 1003 l 704 913 q 426 798 542 888 q 275 553 311 708 l 278 550 q 376 615 314 590 q 506 640 438 640 q 722 560 639 640 q 804 338 804 479 q 700 77 804 174 q 431 -19 596 -19 m 442 86 q 594 318 594 86 q 449 529 594 529 q 331 476 379 529 q 283 321 283 422 q 442 86 283 86 z "},"7":{"ha":799,"x_min":60,"x_max":767,"o":"m 183 -226 l 163 -190 q 315 47 264 -35 q 456 306 365 128 q 593 626 547 483 l 314 626 q 213 606 236 626 q 165 510 190 586 q 157 482 160 492 l 60 482 l 88 778 l 750 778 l 767 692 q 390 -226 476 -53 l 183 -226 z "},"8":{"ha":825,"x_min":46,"x_max":782,"o":"m 408 -19 q 146 49 246 -19 q 46 247 46 118 q 102 406 46 333 q 272 513 158 478 q 133 611 172 557 q 94 743 94 665 q 179 917 94 842 q 421 992 264 992 q 657 933 578 992 q 736 775 736 874 q 688 636 736 697 q 564 542 640 575 q 782 279 782 449 q 670 60 782 140 q 408 -19 558 -19 m 460 592 q 521 668 497 622 q 544 761 544 714 q 508 856 544 822 q 411 890 471 890 q 322 861 357 890 q 286 775 286 832 q 323 676 286 717 q 460 592 360 635 m 419 83 q 534 128 490 83 q 578 253 578 174 q 527 375 578 329 q 372 458 476 421 q 278 372 311 425 q 244 260 244 319 q 291 131 244 179 q 419 83 338 83 z "},"9":{"ha":863,"x_min":65,"x_max":797,"o":"m 189 -244 l 171 -139 q 588 219 518 -85 l 585 222 q 364 129 501 129 q 149 213 232 129 q 65 440 65 297 q 169 701 65 604 q 439 797 274 797 q 710 688 622 797 q 797 406 797 578 q 632 -60 797 104 q 189 -244 467 -224 m 421 240 q 538 297 492 240 q 585 468 585 354 q 426 692 585 692 q 275 460 275 692 q 421 240 275 240 z "}," ":{"ha":250,"x_min":0,"x_max":0,"o":""},"!":{"ha":482,"x_min":129,"x_max":360,"o":"m 192 261 l 192 314 q 160 647 192 442 q 129 885 129 851 q 162 965 129 938 q 244 992 194 992 q 360 890 360 992 q 326 639 360 847 q 292 313 292 431 l 292 261 l 192 261 m 243 -21 q 129 85 129 -21 q 243 194 129 194 q 360 88 360 194 q 243 -21 360 -21 z "},"\"":{"ha":560,"x_min":100,"x_max":481,"o":"m 144 750 l 106 968 q 100 1011 100 1001 q 124 1070 100 1047 q 186 1093 147 1093 q 239 1075 215 1093 q 263 1026 263 1057 q 258 994 263 1011 l 206 750 l 144 750 m 363 750 l 324 968 q 318 1011 318 1001 q 341 1070 318 1047 q 404 1093 364 1093 q 457 1075 433 1093 q 481 1026 481 1057 q 476 994 481 1011 l 424 750 l 363 750 z "},"#":{"ha":944,"x_min":44,"x_max":900,"o":"m 189 -10 l 219 185 l 44 185 l 63 274 l 235 274 l 269 503 l 93 503 l 110 592 l 283 592 l 311 774 l 429 774 l 400 592 l 603 592 l 631 774 l 749 774 l 719 592 l 900 592 l 885 503 l 704 503 l 671 274 l 860 274 l 843 185 l 657 185 l 626 -10 l 508 -10 l 539 185 l 338 185 l 307 -10 l 189 -10 m 351 274 l 554 274 l 589 503 l 385 503 l 351 274 z "},"$":{"ha":710,"x_min":51,"x_max":654,"o":"m 233 -137 l 233 4 q 172 38 194 18 l 154 -18 l 72 -18 l 51 224 l 144 236 q 347 88 210 88 q 442 117 414 88 q 471 186 471 147 q 435 256 471 232 q 308 308 399 281 q 128 403 188 346 q 69 563 69 461 q 104 687 69 629 q 210 774 139 744 l 210 931 l 304 931 l 304 796 q 322 797 310 796 q 342 797 335 797 q 360 797 349 797 q 376 796 371 796 l 376 931 l 475 931 l 475 769 q 525 740 481 767 l 540 797 l 614 797 l 633 557 l 533 542 q 462 660 503 628 q 358 693 421 693 q 278 669 308 693 q 249 600 249 644 q 269 547 249 568 q 311 514 289 525 q 396 481 333 503 q 414 474 407 476 q 488 444 464 454 q 549 411 511 433 q 606 367 588 389 q 640 308 625 344 q 654 226 654 271 q 612 89 654 147 q 499 3 569 31 l 499 -137 l 400 -137 l 400 -18 q 384 -19 394 -18 q 369 -19 374 -19 q 328 -17 356 -19 l 328 -137 l 233 -137 z "},"%":{"ha":1165,"x_min":49,"x_max":1118,"o":"m 256 -19 l 763 829 l 901 829 l 397 -19 l 256 -19 m 285 381 q 113 438 176 381 q 49 590 49 496 q 119 769 49 710 q 292 828 190 828 q 458 774 392 828 q 524 617 524 719 q 456 443 524 506 q 285 381 388 381 m 289 467 q 358 603 358 467 q 282 743 358 743 q 211 610 211 743 q 289 467 211 467 m 879 -19 q 707 38 771 -19 q 643 189 643 94 q 714 368 643 308 q 886 428 785 428 q 1052 374 986 428 q 1118 217 1118 319 q 1050 43 1118 106 q 879 -19 982 -19 m 883 67 q 953 203 953 67 q 876 343 953 343 q 806 210 806 343 q 883 67 806 67 z "},"&":{"ha":1144,"x_min":63,"x_max":1106,"o":"m 382 -19 q 235 5 304 -19 q 115 93 167 29 q 63 251 63 157 q 120 419 63 347 q 272 529 178 490 q 188 642 218 590 q 158 756 158 694 q 238 931 158 868 q 431 993 317 993 q 609 935 540 993 q 678 788 678 878 q 501 550 678 631 l 668 374 q 793 617 715 544 q 958 689 871 689 q 1047 659 1010 689 q 1083 581 1083 629 q 1061 513 1083 542 q 1006 485 1039 485 q 949 506 968 485 q 911 582 931 528 q 747 293 792 515 q 883 169 843 199 q 958 139 922 139 q 1058 189 993 139 l 1106 135 q 910 0 1007 0 q 798 28 850 0 q 682 124 746 57 q 382 -19 585 -19 m 446 611 q 547 794 547 688 q 516 879 547 849 q 439 910 485 910 q 365 883 397 910 q 332 803 332 857 q 446 611 332 719 m 440 96 q 537 120 493 96 q 603 188 581 144 q 333 463 517 274 q 263 288 263 406 q 313 145 263 194 q 440 96 363 96 z "},"'":{"ha":342,"x_min":100,"x_max":263,"o":"m 144 750 l 106 968 q 100 1011 100 1001 q 124 1070 100 1047 q 186 1093 147 1093 q 239 1075 215 1093 q 263 1026 263 1057 q 258 994 263 1011 l 206 750 l 144 750 z "},"(":{"ha":488,"x_min":71,"x_max":449,"o":"m 367 -294 q 151 39 232 -151 q 71 443 71 229 q 156 835 71 650 q 368 1150 240 1021 l 449 1101 q 324 797 367 974 q 281 444 281 619 q 446 -251 281 26 l 367 -294 z "},")":{"ha":488,"x_min":38,"x_max":415,"o":"m 118 -294 l 38 -246 q 163 59 119 -118 q 206 411 206 236 q 40 1107 206 829 l 119 1150 q 335 817 254 1007 q 415 413 415 626 q 331 20 415 206 q 118 -294 246 -165 z "},"*":{"ha":636,"x_min":72,"x_max":564,"o":"m 308 561 q 263 583 276 561 q 257 639 250 604 l 289 783 l 189 690 q 112 674 151 658 q 72 729 72 689 q 122 783 72 767 l 261 831 l 135 875 q 83 939 83 893 q 115 995 83 982 q 182 978 147 1008 l 290 878 l 261 1025 q 273 1079 254 1060 q 324 1099 292 1099 q 369 1079 354 1099 q 378 1028 385 1060 l 344 874 l 451 971 q 531 991 497 1007 q 564 936 564 975 q 513 875 564 892 l 369 829 l 499 785 q 553 721 553 767 q 522 662 553 675 q 453 679 492 649 l 343 783 l 372 651 q 363 587 381 613 q 308 561 346 561 z "},"+":{"ha":808,"x_min":92,"x_max":717,"o":"m 329 113 l 329 364 l 92 364 l 92 494 l 329 494 l 329 740 l 479 740 l 479 494 l 717 494 l 717 364 l 479 364 l 479 113 l 329 113 z "},",":{"ha":447,"x_min":101,"x_max":350,"o":"m 157 -244 l 107 -179 q 228 -14 217 -103 l 207 -14 q 130 11 158 -14 q 101 85 101 36 q 133 168 101 136 q 221 200 165 200 q 317 162 283 200 q 350 63 350 124 q 301 -109 350 -26 q 157 -244 253 -192 z "},"-":{"ha":497,"x_min":43,"x_max":456,"o":"m 43 324 l 43 457 l 456 457 l 456 324 l 43 324 z "},".":{"ha":421,"x_min":97,"x_max":339,"o":"m 215 -26 q 97 85 97 -26 q 129 172 97 143 q 215 200 161 200 q 339 88 339 200 q 215 -26 339 -26 z "},"/":{"ha":661,"x_min":14,"x_max":640,"o":"m 14 -153 l 493 1114 l 640 1114 l 163 -153 l 14 -153 z "},":":{"ha":436,"x_min":97,"x_max":339,"o":"m 215 506 q 97 617 97 506 q 129 703 97 675 q 215 732 161 732 q 339 619 339 732 q 215 506 339 506 m 215 -26 q 97 85 97 -26 q 129 172 97 143 q 215 200 161 200 q 339 88 339 200 q 215 -26 339 -26 z "},";":{"ha":443,"x_min":92,"x_max":340,"o":"m 215 506 q 97 617 97 506 q 129 703 97 675 q 215 732 161 732 q 339 619 339 732 q 215 506 339 506 m 147 -244 l 97 -179 q 218 -14 207 -103 l 197 -14 q 120 11 149 -14 q 92 85 92 36 q 124 168 92 136 q 211 200 156 200 q 307 162 274 200 q 340 63 340 124 q 292 -109 340 -26 q 147 -244 243 -192 z "},"<":{"ha":808,"x_min":94,"x_max":692,"o":"m 635 61 l 94 371 l 94 461 l 633 769 l 689 657 l 250 419 l 692 182 l 635 61 z "},"=":{"ha":808,"x_min":97,"x_max":711,"o":"m 97 488 l 97 618 l 711 618 l 711 488 l 97 488 m 97 238 l 97 368 l 711 368 l 711 238 l 97 238 z "},">":{"ha":808,"x_min":117,"x_max":714,"o":"m 174 61 l 117 182 l 558 419 l 119 657 l 175 769 l 714 461 l 714 371 l 174 61 z "},"?":{"ha":732,"x_min":69,"x_max":653,"o":"m 283 261 l 283 447 q 302 540 283 507 q 375 625 321 572 q 451 714 436 685 q 468 781 468 746 q 434 861 468 835 q 343 888 400 888 q 222 847 275 888 q 263 774 263 794 q 238 717 263 743 q 168 692 213 692 q 94 718 119 692 q 69 786 69 744 q 154 931 69 869 q 369 992 239 992 q 579 933 506 992 q 653 764 653 874 q 649 728 653 746 q 642 695 646 710 q 629 663 639 681 q 615 634 619 644 q 594 606 610 624 q 572 581 578 588 q 547 555 567 574 q 522 532 526 536 q 495 507 518 528 q 469 483 472 486 q 394 404 411 431 q 378 343 378 378 l 378 261 l 283 261 m 332 -21 q 218 85 218 -21 q 332 194 218 194 q 449 88 449 194 q 332 -21 449 -21 z "},"@":{"ha":1183,"x_min":56,"x_max":1128,"o":"m 572 -274 q 381 -243 471 -274 q 216 -152 290 -212 q 99 8 142 -92 q 56 235 56 108 q 207 648 56 488 q 613 808 358 808 q 988 688 849 808 q 1128 339 1128 568 q 1044 70 1128 164 q 840 -24 961 -24 q 756 3 786 -24 q 726 107 726 31 l 732 235 l 724 236 l 706 172 q 500 -24 650 -24 q 353 44 400 -24 q 307 204 307 113 q 389 475 307 385 q 592 565 471 565 q 739 531 679 565 l 813 567 l 858 543 l 844 124 q 881 64 843 64 q 960 138 929 64 q 992 333 992 213 q 897 610 992 510 q 613 710 801 710 q 316 588 432 710 q 200 257 200 467 q 224 91 200 164 q 284 -27 247 18 q 371 -102 321 -72 q 469 -144 421 -132 q 569 -156 518 -156 q 871 -64 760 -156 l 925 -133 q 572 -274 785 -274 m 529 76 q 668 279 610 76 l 721 460 q 608 483 683 483 q 493 402 532 483 q 454 208 454 321 q 529 76 454 76 z "},"A":{"ha":1028,"x_min":17,"x_max":1011,"o":"m 17 0 l 17 83 l 82 93 q 117 114 106 99 q 143 169 129 129 l 432 972 l 610 972 l 896 165 q 910 127 906 138 q 926 106 915 117 q 956 93 938 96 l 1011 83 l 1011 0 l 582 0 l 582 83 l 646 93 q 678 113 674 97 q 672 163 683 128 l 629 299 l 321 299 l 278 168 q 273 117 265 135 q 310 94 281 100 l 371 83 l 371 0 l 17 0 m 350 393 l 601 393 l 483 767 l 478 767 l 350 393 z "},"B":{"ha":933,"x_min":68,"x_max":899,"o":"m 68 0 l 68 83 l 142 97 q 177 117 169 101 q 185 167 185 132 l 185 811 q 176 858 185 846 q 139 876 168 871 l 68 889 l 68 972 l 519 972 q 843 732 843 972 q 798 593 843 657 q 679 513 753 529 l 679 506 q 838 441 776 499 q 899 293 899 383 q 891 214 899 250 q 858 136 883 178 q 792 66 833 94 q 677 19 751 38 q 503 0 603 0 l 68 0 m 447 542 q 588 585 546 542 q 631 718 631 629 q 443 875 631 875 l 390 875 l 390 544 q 447 542 408 542 m 482 99 q 641 150 596 99 q 686 290 686 201 q 464 450 686 450 q 390 446 422 450 l 390 106 q 482 99 422 99 z "},"C":{"ha":963,"x_min":64,"x_max":921,"o":"m 540 -19 q 190 110 315 -19 q 64 471 64 239 q 188 850 64 708 q 521 992 313 992 q 760 904 672 992 l 774 994 l 854 994 l 908 668 l 804 643 q 543 874 742 874 q 347 768 414 874 q 281 486 281 663 q 363 210 281 307 q 571 113 444 113 q 722 153 661 113 q 836 260 782 193 l 921 190 q 860 117 890 149 q 783 51 829 85 q 675 -1 738 18 q 540 -19 613 -19 z "},"D":{"ha":1072,"x_min":68,"x_max":1007,"o":"m 68 0 l 68 83 l 147 99 q 178 118 171 103 q 185 171 185 133 l 185 808 q 183 844 185 833 q 173 863 182 854 q 144 874 164 871 l 68 889 l 68 972 l 511 972 q 875 864 743 972 q 1007 525 1007 756 q 442 0 1007 0 l 68 0 m 476 99 q 612 122 554 99 q 703 184 669 146 q 758 279 738 222 q 786 393 779 336 q 793 521 793 450 q 709 781 793 686 q 442 875 625 875 l 390 875 l 390 106 q 476 99 428 99 z "},"E":{"ha":888,"x_min":68,"x_max":844,"o":"m 68 0 l 68 83 l 135 96 q 170 116 163 100 q 178 167 178 132 l 178 811 q 169 858 178 846 q 132 876 161 871 l 68 889 l 68 972 l 756 972 l 808 739 l 718 715 q 642 846 682 817 q 511 875 603 875 l 383 875 l 383 543 l 454 543 q 488 543 475 543 q 514 546 501 543 q 533 549 526 549 q 548 558 540 550 q 558 567 556 565 q 565 583 560 568 q 571 601 569 597 q 577 627 572 606 q 583 658 582 649 l 664 668 l 664 344 l 583 331 q 573 392 576 376 q 558 424 569 407 q 530 444 547 442 q 478 449 513 447 l 383 449 l 383 97 l 547 97 q 685 124 650 97 q 749 261 719 151 l 844 261 l 811 0 l 68 0 z "},"F":{"ha":844,"x_min":68,"x_max":807,"o":"m 68 0 l 68 83 l 135 96 q 170 116 163 100 q 178 167 178 132 l 178 811 q 169 858 178 846 q 132 876 161 871 l 68 889 l 68 972 l 754 972 l 807 739 l 713 711 q 631 848 672 821 q 482 875 590 875 l 383 875 l 383 514 l 449 514 q 544 529 526 514 q 578 629 563 544 l 656 639 l 656 289 l 578 275 q 571 317 575 289 q 565 351 567 344 q 560 376 564 358 q 551 397 556 393 q 540 409 547 400 q 522 419 532 418 q 497 422 511 419 q 463 424 483 424 l 383 424 l 383 165 q 392 113 383 125 q 435 96 401 101 l 524 83 l 524 0 l 68 0 z "},"G":{"ha":1021,"x_min":64,"x_max":1007,"o":"m 535 -19 q 354 8 435 -19 q 220 80 274 35 q 131 188 167 125 q 79 319 94 251 q 64 464 64 388 q 186 849 64 707 q 519 992 308 992 q 761 904 674 992 l 775 992 l 860 992 l 928 668 l 821 644 q 715 817 781 761 q 546 872 649 872 q 415 839 469 872 q 332 747 360 806 q 292 625 304 689 q 281 483 281 561 q 359 197 281 294 q 557 100 438 100 q 724 158 657 100 l 724 308 q 715 358 724 343 q 678 378 707 372 l 608 390 l 608 474 l 1007 474 l 1007 390 l 947 378 q 913 356 921 374 q 906 303 906 339 l 906 -4 l 803 -4 l 776 54 q 535 -19 683 -19 z "},"H":{"ha":1157,"x_min":68,"x_max":1088,"o":"m 68 0 l 68 83 l 133 96 q 177 113 169 101 q 185 168 185 125 l 185 804 q 177 859 185 847 q 133 876 169 871 l 68 889 l 68 972 l 507 972 l 507 889 l 435 875 q 398 858 406 869 q 390 806 390 846 l 390 554 l 765 554 l 765 806 q 758 858 765 846 q 721 875 750 869 l 649 889 l 649 972 l 1088 972 l 1088 889 l 1022 876 q 978 859 986 871 q 971 804 971 847 l 971 168 q 978 113 971 125 q 1022 96 986 101 l 1088 83 l 1088 0 l 649 0 l 649 83 l 721 97 q 758 115 750 103 q 765 163 765 126 l 765 443 l 390 443 l 390 163 q 398 115 390 126 q 435 97 406 103 l 507 83 l 507 0 l 68 0 z "},"I":{"ha":576,"x_min":63,"x_max":514,"o":"m 63 0 l 63 83 l 133 96 q 177 113 169 101 q 185 168 185 125 l 185 804 q 177 859 185 847 q 133 876 169 871 l 63 889 l 63 972 l 514 972 l 514 889 l 435 875 q 398 858 406 869 q 390 806 390 846 l 390 163 q 398 115 390 126 q 435 97 406 103 l 514 83 l 514 0 l 63 0 z "},"J":{"ha":776,"x_min":56,"x_max":746,"o":"m 321 -19 q 131 31 206 -19 q 56 168 56 81 q 87 255 56 219 q 168 290 118 290 q 238 269 214 290 q 263 217 263 247 q 218 110 263 183 q 319 76 251 76 q 415 120 392 76 q 438 258 438 164 l 438 811 q 429 858 438 844 q 392 876 421 871 l 304 890 l 304 972 l 746 972 l 746 889 l 682 874 q 654 860 663 869 q 644 841 646 851 q 643 806 643 831 l 643 269 q 563 65 643 149 q 321 -19 483 -19 z "},"K":{"ha":1078,"x_min":68,"x_max":1096,"o":"m 928 -19 q 706 111 786 -19 l 508 429 l 396 315 l 396 163 q 403 109 396 117 q 432 97 411 101 l 511 83 l 511 0 l 68 0 l 68 83 l 147 97 q 183 115 176 103 q 190 161 190 128 l 190 810 q 183 858 190 846 q 147 875 176 869 l 68 889 l 68 972 l 519 972 l 519 889 l 435 874 q 408 861 417 871 q 397 840 399 851 q 396 804 396 829 l 396 463 l 736 813 q 751 858 757 840 q 721 878 746 875 l 654 888 l 668 972 l 1019 972 l 1019 886 l 974 876 q 933 860 949 871 q 885 814 918 849 l 646 568 l 871 215 q 948 128 914 149 q 1022 107 982 107 q 1078 118 1044 107 l 1096 39 q 928 -19 1032 -19 z "},"L":{"ha":874,"x_min":68,"x_max":832,"o":"m 68 0 l 68 83 l 142 97 q 178 115 171 103 q 185 168 185 128 l 185 810 q 183 844 185 835 q 172 863 181 854 q 140 875 163 871 l 68 889 l 68 972 l 526 972 l 526 888 l 436 875 q 399 858 407 869 q 390 814 390 847 l 390 97 l 511 97 q 643 142 599 97 q 726 315 688 188 l 832 315 l 793 0 l 68 0 z "},"M":{"ha":1338,"x_min":58,"x_max":1292,"o":"m 58 0 l 58 83 l 132 97 q 166 113 160 103 q 175 157 172 124 l 217 808 q 210 855 219 842 q 172 874 201 868 l 94 889 l 94 972 l 478 972 l 672 379 l 676 379 l 892 972 l 1251 972 l 1251 889 l 1175 874 q 1140 852 1147 868 q 1135 803 1132 836 l 1175 163 q 1179 127 1176 138 q 1191 108 1182 117 q 1219 97 1200 100 l 1292 83 l 1292 0 l 849 0 l 849 83 l 928 99 q 962 118 956 104 q 965 171 968 132 l 933 772 l 929 772 l 703 157 l 546 157 l 338 763 l 332 763 l 300 164 q 305 116 297 129 q 342 97 313 103 l 417 83 l 417 0 l 58 0 z "},"N":{"ha":1132,"x_min":69,"x_max":1086,"o":"m 69 0 l 69 83 l 144 97 q 179 115 172 103 q 186 167 186 128 l 186 811 q 179 858 186 846 q 143 875 172 869 l 69 889 l 69 972 l 400 972 l 840 238 l 844 238 l 844 811 q 838 858 844 846 q 801 875 831 869 l 728 889 l 728 972 l 1086 972 l 1086 889 l 1011 875 q 976 856 983 869 q 969 806 969 843 l 969 0 l 757 0 l 317 735 l 311 735 l 311 161 q 319 115 311 128 q 356 97 326 103 l 428 83 l 428 0 l 69 0 z "},"O":{"ha":1072,"x_min":64,"x_max":1007,"o":"m 535 -19 q 183 115 303 -19 q 64 468 64 250 q 201 860 64 728 q 550 992 338 992 q 879 867 751 992 q 1007 511 1007 743 q 883 129 1007 278 q 535 -19 760 -19 m 547 97 q 729 194 665 97 q 793 486 793 290 q 724 771 793 665 q 528 876 654 876 q 281 496 281 876 q 347 205 281 313 q 547 97 414 97 z "},"P":{"ha":894,"x_min":71,"x_max":860,"o":"m 71 0 l 71 83 l 144 96 q 180 116 172 100 q 188 167 188 132 l 188 811 q 179 858 188 846 q 142 876 171 871 l 71 889 l 71 972 l 486 972 q 758 901 656 972 q 860 679 860 831 q 828 533 860 596 q 743 436 796 469 q 633 387 690 403 q 515 371 576 371 q 392 378 422 371 l 392 161 q 401 110 392 125 q 443 92 411 96 l 540 81 l 540 0 l 71 0 m 449 468 q 596 529 546 468 q 646 689 646 590 q 600 826 646 778 q 460 875 554 875 l 393 875 l 393 471 q 449 468 418 468 z "},"Q":{"ha":1072,"x_min":64,"x_max":1246,"o":"m 979 -264 q 808 -205 876 -264 q 660 -4 740 -146 q 535 -19 599 -19 q 183 115 303 -19 q 64 468 64 250 q 201 860 64 728 q 550 992 338 992 q 879 867 751 992 q 1007 511 1007 743 q 956 248 1007 365 q 808 61 906 131 q 869 -24 851 0 q 917 -75 888 -49 q 973 -108 946 -101 q 1042 -115 1000 -115 q 1204 -47 1110 -115 l 1246 -107 q 979 -264 1122 -264 m 724 185 q 793 486 793 285 q 724 771 793 665 q 528 876 654 876 q 281 496 281 876 q 301 310 281 392 q 458 369 382 369 q 594 326 538 369 q 724 185 651 283 m 547 97 q 600 103 578 97 q 520 211 558 175 q 433 247 482 247 q 338 221 385 247 q 547 97 406 97 z "},"R":{"ha":999,"x_min":68,"x_max":992,"o":"m 826 -19 q 690 19 731 -19 q 604 160 649 58 l 535 318 q 482 408 504 386 q 410 431 460 431 q 390 428 401 431 l 390 165 q 401 115 390 129 q 443 96 411 100 l 518 85 l 518 0 l 68 0 l 68 85 l 143 97 q 178 117 171 101 q 186 168 186 133 l 186 810 q 178 857 186 844 q 140 875 169 869 l 68 888 l 68 972 l 521 972 q 847 732 847 972 q 822 630 847 676 q 758 554 797 583 q 677 508 718 525 q 594 482 636 490 l 594 478 q 690 427 656 461 q 749 338 725 393 l 796 226 q 828 153 818 174 q 860 113 839 132 q 906 93 881 93 q 974 104 940 93 l 992 39 q 826 -19 926 -19 m 428 522 q 584 575 535 522 q 633 713 633 628 q 449 875 633 875 l 392 875 l 392 525 q 428 522 406 522 z "},"S":{"ha":822,"x_min":58,"x_max":768,"o":"m 435 -19 q 302 3 371 -19 q 190 60 233 25 l 171 -8 l 82 -8 l 58 274 l 161 288 q 258 151 196 203 q 408 99 319 99 q 532 139 494 99 q 569 233 569 179 q 520 331 569 296 q 364 400 471 365 q 152 513 221 447 q 83 701 83 578 q 164 904 83 817 q 403 992 244 992 q 615 922 526 992 l 633 992 l 717 992 l 747 697 l 644 679 q 418 879 578 879 q 314 846 354 879 q 274 750 274 813 q 276 723 274 736 q 283 699 279 710 q 297 679 288 689 q 312 663 306 669 q 333 647 318 656 q 357 633 349 638 q 385 619 365 628 q 415 606 406 610 q 449 592 425 601 q 485 578 474 582 q 663 493 618 524 q 768 283 768 419 q 672 63 768 146 q 435 -19 575 -19 z "},"T":{"ha":1013,"x_min":38,"x_max":975,"o":"m 272 0 l 272 85 l 356 99 q 392 119 383 103 q 401 171 401 136 l 401 875 l 367 875 q 226 838 264 875 q 142 664 188 801 l 38 688 l 93 972 l 919 972 l 975 692 l 869 668 q 792 838 826 801 q 664 875 758 875 l 607 875 l 607 165 q 616 118 607 132 q 654 99 625 104 l 736 85 l 736 0 l 272 0 z "},"U":{"ha":1097,"x_min":50,"x_max":1053,"o":"m 558 -19 q 171 361 171 -19 l 171 810 q 163 857 171 844 q 125 875 154 869 l 50 888 l 50 972 l 496 972 l 496 888 l 418 875 q 384 855 392 871 q 376 804 376 839 l 376 381 q 418 176 376 240 q 585 111 460 111 q 694 132 650 111 q 761 192 739 153 q 792 276 783 232 q 801 379 801 321 l 801 810 q 793 857 801 844 q 756 875 785 869 l 682 888 l 682 972 l 1053 972 l 1053 888 l 976 875 q 941 855 949 871 q 933 804 933 839 l 933 376 q 558 -19 933 -19 z "},"V":{"ha":999,"x_min":1,"x_max":1003,"o":"m 394 0 l 119 808 q 96 859 106 847 q 57 878 86 871 l 1 889 l 1 972 l 446 972 l 446 893 l 369 883 q 335 865 342 879 q 343 814 329 850 l 538 186 l 544 186 l 746 806 q 751 857 758 842 q 715 879 744 872 l 644 894 l 649 972 l 1003 972 l 1003 893 l 935 882 q 900 863 911 876 q 872 807 889 849 l 606 0 l 394 0 z "},"W":{"ha":1511,"x_min":7,"x_max":1510,"o":"m 317 0 l 125 810 q 103 862 115 849 q 63 879 92 875 l 7 888 l 7 972 l 439 972 l 439 892 l 368 883 q 334 867 340 881 q 336 815 328 853 l 469 193 l 475 193 l 679 972 l 889 972 l 1103 190 l 1108 190 l 1253 807 q 1255 859 1261 843 q 1219 881 1249 875 l 1151 893 l 1151 972 l 1510 972 l 1510 892 l 1444 883 q 1403 865 1418 881 q 1379 808 1389 849 l 1178 0 l 936 0 l 739 731 l 735 731 l 546 0 l 317 0 z "},"X":{"ha":1044,"x_min":17,"x_max":1028,"o":"m 26 0 l 26 82 l 74 92 q 129 110 111 99 q 174 157 147 122 l 408 464 l 146 824 q 108 862 125 853 q 58 879 92 871 l 17 890 l 32 972 l 463 972 l 463 888 l 379 875 q 372 829 343 868 l 531 610 l 683 822 q 697 845 693 838 q 694 861 700 853 q 671 874 689 869 l 596 894 l 611 972 l 985 972 l 985 889 l 929 879 q 918 877 926 879 q 908 875 910 875 q 899 873 906 875 q 889 869 892 871 q 880 865 886 868 q 870 859 874 863 q 861 851 867 856 q 850 840 856 846 q 839 825 844 833 l 615 521 l 886 149 q 926 110 907 119 q 982 94 946 100 l 1028 86 l 1028 0 l 563 0 l 563 83 l 638 96 q 646 150 682 101 l 489 364 l 321 140 q 332 93 292 104 l 413 76 l 413 0 l 26 0 z "},"Y":{"ha":957,"x_min":7,"x_max":950,"o":"m 242 0 l 242 83 l 349 97 q 384 116 376 103 q 392 164 392 129 l 392 367 l 138 808 q 100 859 117 844 q 54 879 83 874 l 7 889 l 7 972 l 446 972 l 446 893 l 383 883 q 357 814 325 875 l 526 500 l 533 500 l 699 807 q 710 856 715 842 q 675 878 704 871 l 601 894 l 601 972 l 950 972 l 950 893 l 910 882 q 867 861 885 878 q 829 806 850 844 l 597 378 l 597 163 q 605 115 597 128 q 642 97 613 103 l 749 83 l 749 0 l 242 0 z "},"Z":{"ha":918,"x_min":63,"x_max":844,"o":"m 63 0 l 63 94 l 588 876 l 351 876 q 281 865 310 876 q 233 820 253 853 q 201 759 213 788 q 171 668 190 731 l 75 661 l 92 972 l 826 972 l 826 876 l 306 97 l 551 97 q 667 139 626 97 q 754 318 707 181 l 844 318 l 818 0 l 63 0 z "},"[":{"ha":483,"x_min":128,"x_max":446,"o":"m 128 -294 l 128 1128 l 438 1128 l 446 1035 l 343 1026 q 314 1015 321 1024 q 307 975 307 1007 l 307 -146 q 314 -182 307 -174 q 342 -193 321 -190 l 446 -201 l 438 -294 l 128 -294 z "},"\\":{"ha":664,"x_min":14,"x_max":650,"o":"m 501 -153 l 14 1114 l 161 1114 l 650 -153 l 501 -153 z "},"]":{"ha":483,"x_min":38,"x_max":356,"o":"m 46 -294 l 38 -201 l 140 -193 q 169 -182 163 -190 q 176 -142 176 -174 l 176 979 q 169 1015 176 1007 q 142 1026 163 1024 l 38 1035 l 46 1128 l 356 1128 l 356 -294 l 46 -294 z "},"^":{"ha":808,"x_min":43,"x_max":765,"o":"m 153 450 l 43 517 l 353 989 l 456 989 l 765 517 l 656 450 l 404 826 l 153 450 z "},"_":{"ha":694,"x_min":21,"x_max":674,"o":"m 21 -154 l 21 -46 l 674 -46 l 674 -154 l 21 -154 z "},"`":{"ha":694,"x_min":154,"x_max":468,"o":"m 422 806 l 206 939 q 154 1019 154 969 q 179 1078 154 1050 q 249 1107 204 1107 q 303 1067 272 1107 l 468 854 l 422 806 z "},"a":{"ha":774,"x_min":50,"x_max":769,"o":"m 264 -19 q 110 31 171 -19 q 50 178 50 81 q 299 389 50 354 q 440 401 371 397 l 440 507 q 415 606 440 575 q 338 636 390 636 q 222 603 272 636 q 257 524 257 544 q 233 472 257 494 q 151 449 208 449 q 81 473 106 449 q 57 538 57 497 q 149 674 57 615 q 361 732 240 732 q 567 671 496 732 q 639 458 639 610 l 639 160 q 662 103 639 115 q 750 107 685 90 l 769 38 q 607 -19 701 -19 q 471 89 497 -19 q 264 -19 403 -19 m 343 106 q 440 219 440 106 l 440 313 q 342 303 386 313 q 254 200 254 283 q 278 130 254 154 q 343 106 301 106 z "},"b":{"ha":878,"x_min":18,"x_max":822,"o":"m 206 -19 l 132 -6 l 132 881 q 124 933 132 919 q 81 954 115 946 l 18 968 l 29 1056 l 315 1064 l 331 1049 l 331 615 l 335 615 q 547 732 406 732 q 748 643 674 732 q 822 383 822 554 q 733 86 822 192 q 490 -19 643 -19 q 279 47 369 -19 l 206 -19 m 451 99 q 615 371 615 99 q 581 546 615 492 q 472 600 546 600 q 373 560 415 600 q 331 424 331 519 l 331 138 q 451 99 388 99 z "},"c":{"ha":731,"x_min":47,"x_max":694,"o":"m 386 -19 q 139 80 231 -19 q 47 331 47 179 q 149 622 47 513 q 425 732 251 732 q 629 672 564 732 q 694 540 694 613 q 667 465 694 493 q 589 436 640 436 q 486 511 486 436 q 529 604 486 532 q 436 629 494 629 q 299 557 343 629 q 254 364 254 485 q 302 185 254 244 q 435 126 350 126 q 540 145 496 126 q 636 204 585 164 l 694 138 q 386 -19 564 -19 z "},"d":{"ha":888,"x_min":56,"x_max":860,"o":"m 350 -19 q 132 75 208 -19 q 56 338 56 169 q 145 626 56 521 q 393 732 235 732 q 551 696 483 732 l 551 883 q 542 935 551 921 q 497 956 533 950 l 436 968 l 447 1056 l 735 1064 l 750 1049 l 750 161 q 758 116 750 128 q 794 99 767 104 l 860 88 l 860 0 l 593 -10 l 572 101 l 568 101 q 350 -19 499 -19 m 413 113 q 513 153 474 113 q 551 283 551 193 l 551 581 q 424 614 494 614 q 263 351 263 614 q 413 113 263 113 z "},"e":{"ha":733,"x_min":47,"x_max":694,"o":"m 385 -19 q 134 82 221 -19 q 47 332 47 183 q 147 626 47 519 q 408 732 246 732 q 611 662 536 732 q 686 467 686 592 q 668 325 686 389 l 254 325 q 304 178 256 231 q 435 126 353 126 q 633 204 536 126 l 694 138 q 385 -19 571 -19 m 254 431 l 490 431 q 494 504 494 457 q 468 602 494 574 q 390 631 442 631 q 292 576 325 631 q 254 431 258 521 z "},"f":{"ha":574,"x_min":42,"x_max":678,"o":"m 50 0 l 50 83 l 110 94 q 146 113 139 100 q 153 164 153 125 l 153 604 l 42 604 l 42 681 l 153 708 l 153 757 q 223 998 153 910 q 443 1086 293 1086 q 619 1037 560 1086 q 678 924 678 988 q 653 853 678 879 q 581 826 628 826 q 485 899 485 826 q 519 982 485 925 q 450 1000 486 1000 q 372 965 393 1000 q 351 860 351 929 l 351 713 l 547 713 l 547 604 l 351 604 l 351 158 q 360 113 351 126 q 399 94 368 99 l 496 83 l 496 0 l 50 0 z "},"g":{"ha":846,"x_min":17,"x_max":832,"o":"m 356 -318 q 17 -143 17 -318 q 53 -44 17 -82 q 160 24 90 -7 l 160 26 q 68 138 68 56 q 153 276 68 201 l 153 281 q 47 465 47 338 q 138 660 47 589 q 372 732 229 732 q 563 692 488 732 q 604 751 586 728 q 657 795 622 774 q 729 817 692 817 q 802 794 772 817 q 832 729 832 771 q 806 663 832 692 q 746 633 781 633 q 706 644 719 633 q 682 679 693 654 l 669 707 q 626 642 642 674 q 692 476 692 565 q 603 296 692 365 q 358 226 514 226 q 242 244 299 226 q 210 188 210 213 q 234 145 210 154 q 315 136 258 136 l 510 136 q 710 92 640 136 q 779 -62 779 47 q 680 -244 779 -169 q 356 -318 581 -318 m 376 322 q 458 362 428 322 q 489 471 489 401 q 457 595 489 551 q 371 639 425 639 q 250 479 250 639 q 283 364 250 406 q 376 322 315 322 m 378 -210 q 521 -175 474 -210 q 568 -92 568 -140 q 544 -40 568 -54 q 465 -26 521 -26 l 264 -26 q 213 -114 213 -69 q 378 -210 213 -210 z "},"h":{"ha":922,"x_min":29,"x_max":897,"o":"m 42 0 l 42 83 l 108 96 q 139 114 133 100 q 144 163 144 128 l 144 889 q 134 938 144 925 q 92 957 124 950 l 29 968 l 40 1056 l 328 1064 l 343 1049 l 343 615 l 347 615 q 565 732 425 732 q 740 668 692 732 q 789 494 789 604 l 789 151 q 797 111 789 122 q 832 94 804 100 l 897 83 l 897 0 l 499 0 l 499 82 l 549 93 q 583 110 575 99 q 590 151 590 121 l 590 429 q 570 552 590 514 q 486 590 550 590 q 382 545 421 590 q 343 410 343 500 l 343 157 q 349 115 343 126 q 378 97 356 103 l 436 82 l 436 0 l 42 0 z "},"i":{"ha":490,"x_min":43,"x_max":463,"o":"m 330 885 q 311 868 330 885 q 233 851 293 851 q 138 884 174 851 q 101 972 101 917 q 138 1060 101 1026 q 233 1093 174 1093 q 331 1060 296 1093 q 367 972 367 1028 q 330 885 367 918 m 44 0 l 44 83 l 117 96 q 151 113 143 100 q 158 158 158 125 l 158 531 q 150 594 158 579 q 108 613 142 608 l 43 622 l 53 707 l 340 724 l 357 717 l 357 158 q 364 115 357 125 q 396 97 371 104 l 463 82 l 463 0 l 44 0 z "},"j":{"ha":435,"x_min":18,"x_max":347,"o":"m 214 851 q 119 884 156 851 q 82 971 82 917 q 119 1060 82 1028 q 214 1093 156 1093 q 311 1062 275 1093 q 347 974 347 1031 q 310 885 347 918 q 214 851 274 851 m 85 -318 l 18 -247 q 112 -124 85 -194 q 139 53 139 -53 l 139 531 q 131 593 139 579 q 90 613 124 607 l 24 622 l 33 707 l 321 724 l 338 717 l 338 132 q 275 -148 338 -47 q 85 -318 213 -249 z "},"k":{"ha":900,"x_min":35,"x_max":914,"o":"m 894 108 l 914 39 q 841 -3 886 13 q 757 -19 796 -19 q 646 6 693 -19 q 550 96 599 31 l 349 368 l 349 157 q 356 110 349 122 q 388 92 363 97 l 431 82 l 431 0 l 47 0 l 47 83 l 108 94 q 142 112 135 100 q 150 157 150 124 l 150 883 q 141 935 150 922 q 97 956 132 949 l 35 968 l 46 1056 l 333 1064 l 349 1049 l 349 414 l 525 571 q 528 613 561 604 l 464 631 l 478 713 l 824 713 l 824 629 l 782 621 q 711 585 746 614 l 519 426 l 724 176 q 784 114 760 131 q 839 97 808 97 q 894 108 864 97 z "},"l":{"ha":482,"x_min":35,"x_max":450,"o":"m 47 0 l 47 83 l 108 94 q 142 112 135 100 q 150 157 150 124 l 150 883 q 141 935 150 922 q 97 956 132 949 l 35 968 l 46 1056 l 333 1064 l 349 1049 l 349 157 q 356 113 349 124 q 388 96 363 103 l 450 82 l 450 0 l 47 0 z "},"m":{"ha":1318,"x_min":35,"x_max":1293,"o":"m 47 0 l 47 83 l 114 96 q 144 114 139 100 q 150 163 150 128 l 150 526 q 142 591 150 575 q 103 613 133 607 l 35 622 l 44 707 l 307 722 l 324 713 l 333 589 l 338 589 q 556 732 414 732 q 749 594 713 732 q 969 732 817 732 q 1185 494 1185 732 l 1185 151 q 1192 111 1185 122 q 1228 94 1200 100 l 1293 83 l 1293 0 l 903 0 l 903 82 l 953 94 q 980 112 974 101 q 986 154 986 122 l 986 429 q 967 551 986 511 q 890 590 947 590 q 804 551 842 590 q 767 433 767 513 l 767 154 q 773 110 767 122 q 803 93 779 99 l 850 81 l 850 0 l 485 0 l 485 81 l 535 93 q 561 109 554 99 q 568 147 568 119 l 568 429 q 551 551 568 513 q 478 590 533 590 q 349 410 349 590 l 349 157 q 355 113 349 124 q 385 96 361 103 l 432 82 l 432 0 l 47 0 z "},"n":{"ha":928,"x_min":35,"x_max":903,"o":"m 47 0 l 47 83 l 114 96 q 144 114 139 100 q 150 163 150 128 l 150 526 q 142 591 150 575 q 103 613 133 607 l 35 622 l 44 707 l 307 722 l 324 713 l 333 589 l 338 589 q 383 657 361 631 q 454 708 406 683 q 568 732 503 732 q 746 669 697 732 q 794 494 794 606 l 794 151 q 802 111 794 122 q 838 94 810 100 l 903 83 l 903 0 l 504 0 l 504 82 l 554 93 q 588 110 581 99 q 596 151 596 121 l 596 429 q 576 552 596 514 q 492 590 556 590 q 349 410 349 590 l 349 157 q 355 115 349 126 q 383 97 361 103 l 442 82 l 442 0 l 47 0 z "},"o":{"ha":825,"x_min":47,"x_max":778,"o":"m 407 -19 q 139 78 231 -19 q 47 335 47 176 q 153 633 47 535 q 426 732 258 732 q 682 640 586 732 q 778 378 778 549 q 678 85 778 190 q 407 -19 579 -19 m 426 90 q 567 344 567 90 q 404 626 567 626 q 257 385 257 626 q 426 90 257 90 z "},"p":{"ha":889,"x_min":24,"x_max":833,"o":"m 40 -304 l 40 -217 l 99 -207 q 131 -191 122 -203 q 139 -151 139 -179 l 139 533 q 131 592 139 576 q 88 613 122 607 l 24 622 l 33 707 l 296 722 l 313 713 l 322 596 l 326 596 q 558 732 406 732 q 759 643 685 732 q 833 383 833 554 q 745 86 833 192 q 510 -19 657 -19 q 338 22 407 -19 l 338 -144 q 348 -190 338 -176 q 383 -206 358 -203 l 469 -218 l 469 -304 l 40 -304 m 461 101 q 626 364 626 101 q 590 540 626 485 q 481 594 554 594 q 380 555 422 594 q 338 421 338 515 l 338 139 q 461 101 386 101 z "},"q":{"ha":863,"x_min":56,"x_max":849,"o":"m 419 -304 l 419 -218 l 506 -206 q 541 -190 531 -203 q 551 -144 551 -176 l 551 69 l 547 69 q 354 -19 472 -19 q 133 75 210 -19 q 56 332 56 169 q 147 625 56 518 q 393 732 239 732 q 603 664 494 732 l 674 732 l 750 717 l 750 -151 q 758 -191 750 -179 q 790 -207 767 -203 l 849 -217 l 849 -304 l 419 -304 m 419 113 q 513 153 475 113 q 551 283 551 193 l 551 576 q 424 614 488 614 q 263 347 263 614 q 419 113 263 113 z "},"r":{"ha":728,"x_min":35,"x_max":714,"o":"m 47 0 l 47 83 l 114 96 q 144 115 138 100 q 150 163 150 129 l 150 526 q 142 591 150 575 q 103 613 133 607 l 35 622 l 44 707 l 306 722 l 322 713 l 332 594 l 336 594 q 547 732 410 732 q 667 693 619 732 q 714 582 714 654 q 685 492 714 525 q 600 460 656 460 q 528 479 554 460 q 503 529 503 499 q 535 617 503 558 q 404 567 460 629 q 349 407 349 504 l 349 160 q 354 116 349 128 q 383 100 360 104 l 503 82 l 503 0 l 47 0 z "},"s":{"ha":667,"x_min":63,"x_max":628,"o":"m 85 -19 l 63 228 l 165 235 q 356 88 218 88 q 432 112 404 88 q 460 176 460 136 q 431 233 460 211 q 358 265 401 256 q 264 289 315 274 q 169 324 213 304 q 97 390 126 344 q 68 501 68 435 q 142 667 68 603 q 339 732 215 732 q 496 689 439 732 l 507 732 l 588 732 l 603 490 l 500 497 q 336 638 460 638 q 265 616 289 638 q 240 561 240 594 q 280 498 240 521 q 376 462 319 475 q 491 428 433 449 q 588 357 549 408 q 628 222 628 306 q 558 51 628 122 q 353 -19 488 -19 q 176 26 249 -19 l 161 -19 l 85 -19 z "},"t":{"ha":593,"x_min":35,"x_max":586,"o":"m 353 -19 q 193 33 249 -19 q 138 189 138 86 l 138 604 l 35 604 l 35 696 q 158 757 124 707 q 203 949 192 807 l 315 961 l 336 951 l 336 713 l 539 713 l 539 604 l 336 604 l 336 222 q 353 139 336 168 q 419 110 371 110 q 540 154 476 110 l 586 81 q 353 -19 489 -19 z "},"u":{"ha":911,"x_min":24,"x_max":883,"o":"m 354 -19 q 139 214 139 -19 l 139 532 q 131 590 139 575 q 90 611 122 606 l 24 622 l 33 707 l 321 724 l 338 717 l 338 278 q 338 227 338 244 q 344 186 339 210 q 359 151 349 163 q 389 131 369 139 q 436 122 408 122 q 538 169 501 122 q 575 307 575 217 l 575 533 q 567 592 575 576 q 529 613 560 607 l 474 622 l 483 707 l 757 724 l 774 717 l 774 172 q 775 133 774 143 q 786 112 776 122 q 818 99 796 101 l 883 88 l 883 0 l 617 -10 l 594 111 l 590 111 q 497 15 550 50 q 354 -19 443 -19 z "},"v":{"ha":860,"x_min":14,"x_max":846,"o":"m 331 0 l 124 542 q 99 594 108 582 q 63 613 90 606 l 14 624 l 28 713 l 439 713 l 439 628 l 372 618 q 338 599 344 614 q 346 549 332 585 l 471 174 l 478 174 l 608 542 q 614 594 621 578 q 576 617 607 610 l 515 631 l 529 713 l 846 713 l 846 629 l 794 618 q 758 599 769 613 q 731 543 747 585 l 525 0 l 331 0 z "},"w":{"ha":1242,"x_min":11,"x_max":1231,"o":"m 293 0 l 118 544 q 97 597 106 585 q 60 615 88 608 l 11 626 l 25 713 l 439 713 l 439 631 l 372 621 q 338 603 344 617 q 339 553 331 590 l 419 200 l 426 200 l 574 713 l 783 713 l 904 203 l 911 203 l 1015 556 q 979 619 1032 608 l 928 631 l 942 713 l 1231 713 l 1231 629 l 1179 618 q 1141 599 1151 613 q 1118 544 1131 585 l 953 0 l 763 0 l 636 554 l 631 554 l 476 0 l 293 0 z "},"x":{"ha":817,"x_min":-3,"x_max":831,"o":"m 8 0 l 8 83 l 57 94 q 103 115 85 101 q 151 161 122 128 l 303 346 l 119 567 q 47 615 86 606 l -3 626 l 11 713 l 419 713 l 419 631 l 376 622 q 367 563 325 613 l 460 451 l 535 553 q 528 622 581 611 l 494 629 l 508 713 l 804 713 l 804 629 l 758 619 q 658 554 704 608 l 519 379 l 703 157 q 745 113 731 125 q 786 94 760 101 l 831 83 l 831 0 l 413 0 l 413 81 l 460 90 q 467 147 507 100 l 363 274 l 272 160 q 278 92 229 107 l 314 81 l 314 0 l 8 0 z "},"y":{"ha":839,"x_min":0,"x_max":828,"o":"m 154 -318 q 39 -283 78 -318 q 0 -201 0 -249 q 31 -122 0 -154 q 113 -89 63 -89 q 193 -157 193 -89 q 183 -231 193 -178 q 262 -187 232 -224 q 324 -76 292 -150 l 356 -4 l 129 547 q 101 597 113 585 q 63 615 90 608 l 17 626 l 31 713 l 432 713 l 432 631 l 365 621 q 332 601 338 617 q 339 550 326 586 l 460 235 l 467 235 l 590 540 q 598 592 604 575 q 561 617 592 610 l 499 631 l 513 713 l 828 713 l 828 629 l 776 618 q 742 600 751 614 q 711 539 732 586 l 465 -31 q 331 -251 399 -185 q 154 -318 264 -318 z "},"z":{"ha":721,"x_min":42,"x_max":690,"o":"m 42 0 l 42 90 l 421 610 l 311 610 q 208 581 235 610 q 149 453 182 553 l 46 446 l 63 713 l 671 713 l 671 633 l 286 106 l 411 106 q 522 131 497 106 q 590 272 547 156 l 690 272 l 671 0 l 42 0 z "},"{":{"ha":496,"x_min":58,"x_max":463,"o":"m 339 -317 q 201 -270 250 -317 q 151 -142 151 -224 q 165 35 151 -108 q 179 257 179 178 q 150 351 179 331 q 58 374 121 372 l 58 474 q 149 501 118 474 q 179 604 179 529 q 165 791 179 658 q 151 968 151 924 q 201 1094 151 1049 q 342 1140 251 1140 q 457 1126 421 1140 l 440 1043 q 389 1050 413 1050 q 333 981 333 1050 q 343 796 333 940 q 353 608 353 651 q 228 426 353 471 q 353 243 353 371 q 343 34 353 172 q 333 -149 333 -104 q 348 -210 333 -194 q 393 -226 363 -226 q 446 -218 411 -226 l 463 -300 q 339 -317 415 -317 z "},"|":{"ha":608,"x_min":233,"x_max":375,"o":"m 233 -153 l 233 1114 l 375 1114 l 375 -153 l 233 -153 z "},"}":{"ha":496,"x_min":33,"x_max":438,"o":"m 157 -315 q 33 -299 81 -315 l 50 -217 q 103 -225 85 -225 q 148 -209 133 -225 q 163 -147 163 -193 q 153 35 163 -103 q 143 244 143 174 q 268 428 143 372 q 143 610 143 472 q 153 797 143 653 q 163 982 163 942 q 107 1051 163 1051 q 56 1044 83 1051 l 39 1128 q 154 1142 75 1142 q 294 1096 244 1142 q 344 969 344 1050 q 331 792 344 925 q 317 606 317 660 q 347 503 317 531 q 438 475 378 475 l 438 375 q 389 372 407 375 q 352 357 371 368 q 325 322 333 346 q 317 258 317 297 q 331 36 317 181 q 344 -140 344 -108 q 295 -269 344 -222 q 157 -315 246 -315 z "},"~":{"ha":808,"x_min":97,"x_max":750,"o":"m 186 303 l 97 339 q 156 484 119 440 q 250 528 192 528 q 422 501 296 528 q 582 474 547 474 q 660 544 625 474 l 750 508 q 688 362 726 404 q 594 319 650 319 q 424 346 546 319 q 267 372 303 372 q 226 357 243 372 q 186 303 208 342 z "}," ":{"ha":278,"x_min":0,"x_max":0,"o":""},"¡":{"ha":482,"x_min":122,"x_max":353,"o":"m 239 725 q 353 619 353 725 q 239 510 353 510 q 122 617 122 510 q 239 725 122 725 m 290 443 l 290 390 q 322 58 290 263 q 353 -181 353 -147 q 320 -260 353 -233 q 238 -287 288 -287 q 122 -186 122 -287 q 156 65 122 -142 q 190 392 190 272 l 190 443 l 290 443 z "},"¢":{"ha":694,"x_min":53,"x_max":663,"o":"m 221 -56 l 246 60 q 104 173 156 93 q 53 357 53 253 q 131 601 53 506 q 346 715 210 697 l 375 838 l 521 838 l 492 711 q 620 642 578 693 q 663 540 663 592 q 635 471 663 497 q 561 444 608 444 q 464 513 464 444 q 504 596 464 531 q 417 618 472 618 q 297 556 338 618 q 257 388 257 494 q 419 179 257 179 q 508 196 472 179 q 594 250 544 213 l 651 185 q 388 40 543 49 l 367 -56 l 221 -56 z "},"£":{"ha":806,"x_min":28,"x_max":771,"o":"m 78 0 l 61 96 q 182 180 142 125 q 222 301 222 235 q 185 436 222 375 l 28 436 l 42 542 l 140 542 q 94 710 94 629 q 191 914 94 836 q 440 992 288 992 q 650 942 575 992 q 725 810 725 893 q 694 735 725 767 q 603 703 663 703 q 497 779 497 703 q 536 875 497 808 q 442 893 496 893 q 306 733 306 893 q 308 688 306 708 q 319 644 311 667 q 332 611 328 622 q 349 574 336 600 q 365 542 363 549 l 647 542 l 647 436 l 406 436 q 426 342 426 385 q 317 150 426 253 l 306 140 l 500 140 q 592 166 563 140 q 658 278 622 192 l 771 278 l 733 0 l 78 0 z "},"¤":{"ha":749,"x_min":47,"x_max":693,"o":"m 624 113 l 499 210 q 368 185 444 185 q 236 208 292 185 l 117 114 l 49 182 l 136 293 q 99 435 99 353 q 136 576 99 515 l 47 690 l 115 758 l 233 664 q 376 694 297 694 q 507 669 450 694 l 625 761 l 693 694 l 607 583 q 643 447 643 524 q 601 294 643 357 l 692 181 l 624 113 m 368 278 q 476 442 476 278 q 374 597 476 597 q 265 439 265 597 q 292 320 265 363 q 368 278 319 278 z "},"¥":{"ha":826,"x_min":-1,"x_max":831,"o":"m 193 0 l 193 82 l 278 96 q 315 143 315 101 l 315 214 l 93 214 l 104 310 l 315 310 l 315 339 l 293 375 l 93 375 l 104 469 l 225 469 l 115 625 q 46 679 85 669 l -1 690 l -1 778 l 406 778 l 406 693 l 342 683 q 322 642 299 676 l 447 458 l 453 458 l 572 633 q 578 663 583 651 q 557 678 572 675 l 489 693 l 489 778 l 831 778 l 831 696 l 767 683 q 732 669 744 679 q 697 626 719 658 l 588 469 l 728 469 l 728 375 l 535 375 l 514 343 l 514 310 l 728 310 l 728 214 l 514 214 l 514 142 q 522 111 514 119 q 549 99 529 103 l 636 81 l 636 0 l 193 0 z "},"¦":{"ha":608,"x_min":233,"x_max":375,"o":"m 233 583 l 233 1115 l 374 1115 l 375 583 l 233 583 m 233 -153 l 233 415 l 374 415 l 375 -153 l 233 -153 z "},"§":{"ha":953,"x_min":81,"x_max":825,"o":"m 408 -228 q 239 -190 306 -228 q 172 -83 172 -151 q 206 -4 172 -40 q 303 32 240 32 q 367 13 344 32 q 389 -33 389 -7 q 349 -119 389 -67 q 421 -132 375 -132 q 505 -103 472 -132 q 538 -24 538 -75 q 529 17 538 -1 q 498 55 521 35 q 461 86 475 75 q 406 123 447 97 q 350 158 365 149 q 142 318 204 254 q 81 469 81 382 q 224 689 81 603 q 204 771 204 728 q 283 934 204 869 q 476 999 361 999 q 640 961 574 999 q 706 858 706 924 q 674 782 706 815 q 585 749 643 749 q 493 810 493 749 q 525 892 493 839 q 471 904 500 904 q 399 877 425 904 q 374 803 374 850 q 380 767 374 785 q 393 736 386 750 q 417 706 400 722 q 444 679 433 689 q 480 653 456 669 q 515 629 504 636 q 554 605 526 622 q 590 582 582 588 q 692 516 663 536 q 760 460 722 496 q 812 386 799 424 q 825 299 825 349 q 788 181 825 240 q 685 82 751 122 q 701 0 701 46 q 619 -164 701 -100 q 408 -228 538 -228 m 628 169 q 660 260 660 201 q 656 285 660 272 q 644 310 653 297 q 628 332 636 322 q 604 356 621 342 q 577 378 588 369 q 543 401 567 386 q 508 423 519 415 q 467 448 496 431 q 426 474 439 465 q 276 603 349 522 q 243 524 243 565 q 249 494 243 508 q 260 467 254 479 q 282 439 267 454 q 308 414 297 424 q 343 387 319 404 q 379 360 367 369 q 422 332 392 351 q 465 303 451 313 q 628 169 568 235 z "},"¨":{"ha":694,"x_min":78,"x_max":617,"o":"m 275 881 q 259 866 275 881 q 192 851 243 851 q 109 881 140 851 q 78 957 78 910 q 109 1032 78 1003 q 192 1061 140 1061 q 277 1033 247 1061 q 307 957 307 1004 q 275 881 307 910 m 585 881 q 569 866 585 881 q 501 851 553 851 q 419 881 450 851 q 388 957 388 910 q 419 1032 388 1003 q 501 1061 450 1061 q 587 1033 557 1061 q 617 957 617 1004 q 585 881 617 910 z "},"©":{"ha":1150,"x_min":83,"x_max":1067,"o":"m 575 -17 q 210 110 336 -17 q 83 443 83 238 q 226 790 83 660 q 578 919 368 919 q 933 797 800 919 q 1067 467 1067 675 q 932 117 1067 250 q 575 -17 797 -17 m 575 76 q 847 182 743 76 q 951 460 951 288 q 851 731 951 629 q 576 832 751 832 q 305 726 413 832 q 197 444 197 619 q 294 178 197 281 q 575 76 390 76 m 589 156 q 378 235 456 156 q 300 435 300 314 q 376 648 300 571 q 567 725 451 725 q 701 676 653 725 l 711 731 l 775 731 l 808 533 l 728 519 q 676 616 711 582 q 593 650 640 650 q 456 451 456 650 q 497 302 456 351 q 607 253 539 253 q 763 333 700 253 l 821 279 q 589 156 728 156 z "},"ª":{"ha":614,"x_min":53,"x_max":611,"o":"m 218 503 q 99 536 146 503 q 53 639 53 569 q 100 743 53 707 q 249 793 147 779 q 347 803 296 800 l 347 867 q 330 938 347 915 q 269 961 313 961 q 194 943 226 961 q 222 886 222 900 q 199 846 222 865 q 135 826 176 826 q 79 845 99 826 q 60 893 60 864 q 131 993 60 951 q 299 1035 201 1035 q 460 990 410 1035 q 510 833 510 944 l 510 633 q 539 597 510 597 q 593 614 556 597 l 611 551 q 489 503 553 503 q 413 526 444 503 q 376 586 382 550 q 218 503 329 503 m 276 597 q 347 676 347 597 l 347 729 q 215 651 215 726 q 276 597 215 597 z "},"«":{"ha":743,"x_min":49,"x_max":688,"o":"m 322 68 l 88 288 q 49 367 49 322 q 94 453 49 411 l 321 668 l 388 619 l 240 372 l 389 117 l 322 68 m 621 68 l 386 288 q 347 367 347 322 q 393 453 347 411 l 619 668 l 686 619 l 539 372 l 688 117 l 621 68 z "},"¬":{"ha":808,"x_min":76,"x_max":701,"o":"m 551 196 l 551 399 l 76 399 l 76 529 l 701 529 l 701 196 l 551 196 z "},"­":{"ha":497,"x_min":43,"x_max":456,"o":"m 43 324 l 43 457 l 456 457 l 456 324 l 43 324 z "},"®":{"ha":679,"x_min":69,"x_max":610,"o":"m 339 546 q 140 617 210 546 q 69 804 69 689 q 147 1000 69 926 q 340 1074 225 1074 q 537 1003 464 1074 q 610 814 610 932 q 534 621 610 696 q 339 546 458 546 m 453 644 q 507 664 485 644 l 501 686 q 479 682 489 682 q 460 692 467 682 q 443 728 453 703 l 429 764 q 378 811 414 800 l 378 813 q 434 839 408 818 q 460 896 460 860 q 350 975 460 975 l 201 975 l 201 947 l 226 943 q 242 921 242 940 l 242 707 q 226 683 242 686 l 201 679 l 201 651 l 351 651 l 351 679 l 326 683 q 310 707 310 685 l 310 794 l 315 794 q 340 787 332 794 q 357 757 349 779 l 379 706 q 394 672 388 682 q 416 653 401 661 q 453 644 431 644 m 310 825 l 310 943 l 326 943 q 388 889 388 943 q 319 825 388 825 l 310 825 z "},"¯":{"ha":694,"x_min":132,"x_max":563,"o":"m 132 871 l 132 999 l 563 999 l 563 871 l 132 871 z "},"°":{"ha":503,"x_min":60,"x_max":443,"o":"m 250 757 q 108 803 157 757 q 60 918 60 849 q 110 1047 60 996 q 256 1097 161 1097 q 394 1052 346 1097 q 443 931 443 1007 q 392 806 443 856 q 250 757 340 757 m 251 839 q 308 862 285 839 q 331 929 331 885 q 253 1015 331 1015 q 199 992 219 1015 q 178 926 178 969 q 251 839 178 839 z "},"±":{"ha":808,"x_min":92,"x_max":717,"o":"m 329 196 l 329 419 l 92 419 l 92 550 l 329 550 l 329 768 l 479 768 l 479 550 l 717 550 l 717 419 l 479 419 l 479 196 l 329 196 m 92 0 l 92 131 l 717 131 l 717 0 l 92 0 z "},"²":{"ha":563,"x_min":17,"x_max":526,"o":"m 36 519 l 26 593 q 273 839 219 769 q 326 978 326 908 q 300 1053 326 1025 q 226 1081 274 1081 q 153 1060 185 1081 q 186 988 186 1007 q 165 947 186 965 q 101 928 144 928 q 38 950 58 928 q 17 1004 17 972 q 87 1117 17 1072 q 274 1163 157 1163 q 447 1117 386 1163 q 507 994 507 1071 q 450 847 507 917 q 210 633 393 778 l 339 633 q 400 653 382 633 q 440 738 418 672 l 526 738 l 506 519 l 36 519 z "},"³":{"ha":574,"x_min":11,"x_max":532,"o":"m 261 503 q 11 625 96 503 l 82 693 q 247 617 156 617 q 350 707 350 617 q 175 793 350 813 l 182 874 q 336 992 336 883 q 249 1083 336 1083 q 178 1060 206 1083 q 206 1004 206 1019 q 184 958 206 978 q 117 939 163 939 q 49 962 71 939 q 28 1021 28 985 q 95 1121 28 1079 q 274 1163 163 1163 q 449 1120 389 1163 q 508 1006 508 1078 q 364 858 508 896 l 364 853 q 488 802 444 842 q 532 696 532 763 q 455 555 532 607 q 261 503 378 503 z "},"´":{"ha":694,"x_min":226,"x_max":540,"o":"m 272 806 l 226 854 l 392 1067 q 446 1107 422 1107 q 515 1078 490 1107 q 540 1019 540 1050 q 489 939 540 969 l 272 806 z "},"µ":{"ha":874,"x_min":85,"x_max":860,"o":"m 122 -324 l 106 -315 q 92 58 92 -158 l 85 711 l 290 724 l 307 717 q 303 674 307 711 q 297 590 300 636 q 291 478 294 543 q 285 328 288 414 q 283 151 283 242 q 392 122 311 122 q 492 170 454 122 q 531 308 531 218 l 525 711 l 731 724 l 747 717 q 725 247 725 413 q 735 141 725 172 q 785 110 746 110 q 836 121 810 110 l 860 38 q 708 -19 794 -19 q 549 100 582 -19 l 546 100 q 479 8 511 36 q 390 -19 447 -19 q 292 15 329 -19 l 290 15 q 302 -125 293 -50 q 318 -243 311 -200 l 325 -286 l 122 -324 z "},"¶":{"ha":883,"x_min":65,"x_max":814,"o":"m 396 332 q 154 417 243 332 q 65 647 65 501 q 151 885 65 797 q 401 972 236 972 l 446 972 l 446 332 l 396 332 m 363 -200 l 363 -114 l 481 -103 q 521 -54 521 -100 l 521 972 l 814 972 l 814 889 l 738 881 q 699 825 699 876 l 699 -200 l 363 -200 z "},"·":{"ha":421,"x_min":97,"x_max":339,"o":"m 215 313 q 97 424 97 313 q 129 510 97 482 q 215 539 161 539 q 339 426 339 539 q 215 313 339 313 z "},"¸":{"ha":694,"x_min":176,"x_max":521,"o":"m 342 -331 q 246 -313 292 -331 q 176 -276 200 -296 l 206 -207 q 310 -233 258 -233 q 351 -220 335 -233 q 368 -182 368 -207 q 353 -144 368 -158 q 307 -129 338 -129 q 253 -135 281 -129 l 240 -99 l 286 18 l 383 18 l 356 -62 q 474 -91 428 -56 q 521 -187 521 -126 q 471 -293 521 -256 q 342 -331 421 -331 z "},"¹":{"ha":454,"x_min":21,"x_max":439,"o":"m 26 519 l 26 597 l 118 613 q 142 622 138 615 q 147 647 147 629 l 147 1001 q 142 1034 147 1025 q 119 1044 136 1043 l 21 1054 l 28 1125 l 294 1160 l 321 1140 l 321 647 q 326 622 321 629 q 347 613 331 615 l 439 597 l 439 519 l 26 519 z "},"º":{"ha":621,"x_min":49,"x_max":572,"o":"m 306 503 q 116 573 183 503 q 49 756 49 643 q 124 966 49 897 q 321 1035 200 1035 q 505 969 438 1035 q 572 781 572 904 q 498 576 572 649 q 306 503 424 503 m 317 586 q 400 758 400 586 q 306 950 400 950 q 219 785 219 950 q 317 586 219 586 z "},"»":{"ha":746,"x_min":56,"x_max":697,"o":"m 126 68 l 56 121 l 207 368 l 63 619 l 133 671 l 360 449 q 399 369 399 410 q 353 283 399 325 l 126 68 m 425 68 l 354 121 l 506 368 l 361 619 l 432 671 l 658 449 q 697 369 697 410 q 651 283 697 325 l 425 68 z "},"¼":{"ha":1361,"x_min":39,"x_max":1324,"o":"m 324 -19 l 846 992 l 985 992 l 463 -19 l 324 -19 m 44 343 l 44 421 l 136 436 q 160 446 156 439 q 165 471 165 453 l 165 825 q 160 858 165 849 q 138 868 154 867 l 39 878 l 46 949 l 313 983 l 339 964 l 339 471 q 344 446 339 453 q 365 436 349 439 l 457 421 l 457 343 l 44 343 m 833 0 l 824 74 q 1070 319 1017 250 q 1124 458 1124 389 q 1097 533 1124 506 q 1024 561 1071 561 q 950 540 982 561 q 983 468 983 488 q 963 427 983 446 q 899 408 942 408 q 835 431 856 408 q 814 485 814 453 q 884 598 814 553 q 1071 643 954 643 q 1244 597 1183 643 q 1304 475 1304 551 q 1247 328 1304 397 q 1007 114 1190 258 l 1136 114 q 1197 133 1179 114 q 1238 218 1215 153 l 1324 218 l 1303 0 l 833 0 z "},"½":{"ha":1328,"x_min":39,"x_max":1276,"o":"m 343 -19 l 865 992 l 1004 992 l 482 -19 l 343 -19 m 44 344 l 44 422 l 136 438 q 160 447 156 440 q 165 472 165 454 l 165 826 q 160 859 165 850 q 138 869 154 868 l 39 879 l 46 950 l 313 985 l 339 965 l 339 472 q 344 447 339 454 q 365 438 349 440 l 457 422 l 457 344 l 44 344 m 1017 0 l 1017 99 l 726 99 l 711 183 l 1004 622 l 1158 642 l 1185 618 l 1185 200 l 1276 200 l 1276 99 l 1185 99 l 1185 0 l 1017 0 m 828 200 l 1017 200 l 1017 482 l 1011 482 l 828 200 z "},"¾":{"ha":1372,"x_min":19,"x_max":1283,"o":"m 269 332 q 19 454 104 332 l 90 522 q 256 446 164 446 q 358 536 358 446 q 183 622 358 642 l 190 703 q 344 821 344 713 q 257 913 344 913 q 186 889 214 913 q 214 833 214 849 q 192 788 214 807 q 125 768 171 768 q 58 791 79 768 q 36 850 36 814 q 103 950 36 908 q 282 992 171 992 q 457 949 397 992 q 517 835 517 907 q 372 688 517 725 l 372 682 q 497 631 453 671 q 540 525 540 592 q 463 384 540 436 q 269 332 386 332 m 349 -19 l 871 992 l 1010 992 l 488 -19 l 349 -19 m 1024 0 l 1024 99 l 733 99 l 718 183 l 1011 622 l 1165 642 l 1192 618 l 1192 200 l 1283 200 l 1283 99 l 1192 99 l 1192 0 l 1024 0 m 835 200 l 1024 200 l 1024 482 l 1018 482 l 835 200 z "},"¿":{"ha":732,"x_min":79,"x_max":663,"o":"m 400 732 q 514 626 514 732 q 400 517 514 517 q 283 624 283 517 q 400 732 283 732 m 449 450 l 449 264 q 430 172 449 204 q 357 86 411 139 q 281 -3 296 26 q 264 -69 264 -33 q 298 -150 264 -124 q 389 -176 332 -176 q 510 -136 457 -176 q 469 -62 469 -83 q 494 -6 469 -32 q 564 19 519 19 q 638 -7 613 19 q 663 -75 663 -33 q 578 -219 663 -158 q 363 -281 493 -281 q 153 -222 226 -281 q 79 -53 79 -162 q 83 -17 79 -35 q 90 16 86 1 q 103 49 93 31 q 117 77 113 67 q 138 106 122 88 q 160 131 154 124 q 185 156 165 138 q 210 179 206 175 q 237 204 214 183 q 263 228 260 225 q 338 307 321 281 q 354 368 354 333 l 354 450 l 449 450 z "},"À":{"ha":1028,"x_min":17,"x_max":1011,"o":"m 625 1043 l 396 1135 q 342 1169 358 1150 q 326 1222 326 1188 q 348 1283 326 1256 q 404 1310 369 1310 q 464 1279 429 1310 l 663 1103 l 625 1043 m 17 0 l 17 83 l 82 93 q 117 114 106 99 q 143 169 129 129 l 432 972 l 610 972 l 896 165 q 910 127 906 138 q 926 106 915 117 q 956 93 938 96 l 1011 83 l 1011 0 l 582 0 l 582 83 l 646 93 q 678 113 674 97 q 672 163 683 128 l 629 299 l 321 299 l 278 168 q 273 117 265 135 q 310 94 281 100 l 371 83 l 371 0 l 17 0 m 350 393 l 601 393 l 483 767 l 478 767 l 350 393 z "},"Á":{"ha":1028,"x_min":17,"x_max":1011,"o":"m 414 1043 l 376 1103 l 575 1279 q 635 1310 610 1310 q 691 1283 669 1310 q 713 1222 713 1256 q 697 1169 713 1188 q 643 1135 681 1150 l 414 1043 m 17 0 l 17 83 l 82 93 q 117 114 106 99 q 143 169 129 129 l 432 972 l 610 972 l 896 165 q 910 127 906 138 q 926 106 915 117 q 956 93 938 96 l 1011 83 l 1011 0 l 582 0 l 582 83 l 646 93 q 678 113 674 97 q 672 163 683 128 l 629 299 l 321 299 l 278 168 q 273 117 265 135 q 310 94 281 100 l 371 83 l 371 0 l 17 0 m 350 393 l 601 393 l 483 767 l 478 767 l 350 393 z "},"Â":{"ha":1028,"x_min":17,"x_max":1011,"o":"m 315 1033 l 269 1092 l 444 1283 q 519 1326 483 1326 q 601 1279 561 1326 l 769 1093 l 724 1033 l 519 1151 l 315 1033 m 17 0 l 17 83 l 82 93 q 117 114 106 99 q 143 169 129 129 l 432 972 l 610 972 l 896 165 q 910 127 906 138 q 926 106 915 117 q 956 93 938 96 l 1011 83 l 1011 0 l 582 0 l 582 83 l 646 93 q 678 113 674 97 q 672 163 683 128 l 629 299 l 321 299 l 278 168 q 273 117 265 135 q 310 94 281 100 l 371 83 l 371 0 l 17 0 m 350 393 l 601 393 l 483 767 l 478 767 l 350 393 z "},"Ã":{"ha":1028,"x_min":17,"x_max":1011,"o":"m 629 1067 q 518 1094 579 1067 q 372 1146 406 1146 q 348 1135 358 1146 q 315 1093 338 1125 l 260 1135 q 333 1252 299 1219 q 410 1285 367 1285 q 536 1249 450 1285 q 665 1203 640 1203 q 690 1213 679 1203 q 722 1254 701 1224 l 778 1217 q 706 1099 740 1132 q 629 1067 672 1067 m 17 0 l 17 83 l 82 93 q 117 114 106 99 q 143 169 129 129 l 432 972 l 610 972 l 896 165 q 910 127 906 138 q 926 106 915 117 q 956 93 938 96 l 1011 83 l 1011 0 l 582 0 l 582 83 l 646 93 q 678 113 674 97 q 672 163 683 128 l 629 299 l 321 299 l 278 168 q 273 117 265 135 q 310 94 281 100 l 371 83 l 371 0 l 17 0 m 350 393 l 601 393 l 483 767 l 478 767 l 350 393 z "},"Ä":{"ha":1028,"x_min":17,"x_max":1011,"o":"m 447 1100 q 431 1085 447 1100 q 364 1071 415 1071 q 281 1100 313 1071 q 250 1176 250 1129 q 281 1251 250 1222 q 364 1281 313 1281 q 449 1252 419 1281 q 479 1176 479 1224 q 447 1100 479 1129 m 757 1100 q 741 1085 757 1100 q 674 1071 725 1071 q 591 1100 622 1071 q 560 1176 560 1129 q 591 1251 560 1222 q 674 1281 622 1281 q 759 1252 729 1281 q 789 1176 789 1224 q 757 1100 789 1129 m 17 0 l 17 83 l 82 93 q 117 114 106 99 q 143 169 129 129 l 432 972 l 610 972 l 896 165 q 910 127 906 138 q 926 106 915 117 q 956 93 938 96 l 1011 83 l 1011 0 l 582 0 l 582 83 l 646 93 q 678 113 674 97 q 672 163 683 128 l 629 299 l 321 299 l 278 168 q 273 117 265 135 q 310 94 281 100 l 371 83 l 371 0 l 17 0 m 350 393 l 601 393 l 483 767 l 478 767 l 350 393 z "},"Å":{"ha":1028,"x_min":17,"x_max":1011,"o":"m 652 1074 q 625 1052 652 1074 q 515 1031 597 1031 q 385 1072 433 1031 q 336 1181 336 1113 q 389 1298 336 1254 q 525 1342 442 1342 q 660 1301 614 1342 q 707 1188 707 1260 q 652 1074 707 1118 m 519 1106 q 579 1189 579 1106 q 519 1269 579 1269 q 461 1189 461 1269 q 519 1106 461 1106 m 17 0 l 17 83 l 82 93 q 117 114 106 99 q 143 169 129 129 l 432 972 l 610 972 l 896 165 q 910 127 906 138 q 926 106 915 117 q 956 93 938 96 l 1011 83 l 1011 0 l 582 0 l 582 83 l 646 93 q 678 113 674 97 q 672 163 683 128 l 629 299 l 321 299 l 278 168 q 273 117 265 135 q 310 94 281 100 l 371 83 l 371 0 l 17 0 m 350 393 l 601 393 l 483 767 l 478 767 l 350 393 z "},"Æ":{"ha":1415,"x_min":17,"x_max":1372,"o":"m 17 0 l 17 83 l 83 93 q 110 99 103 96 q 129 115 118 103 q 153 153 140 128 l 510 876 l 415 889 l 415 972 l 1283 972 l 1336 739 l 1246 715 q 1170 846 1210 817 q 1039 875 1131 875 l 911 875 l 911 543 l 982 543 q 1016 543 1003 543 q 1042 546 1029 543 q 1061 549 1054 549 q 1076 558 1068 550 q 1085 567 1083 565 q 1092 583 1088 568 q 1099 601 1097 597 q 1105 627 1100 606 q 1111 658 1110 649 l 1192 668 l 1192 344 l 1111 331 q 1101 392 1104 376 q 1086 424 1097 407 q 1058 444 1075 442 q 1006 449 1040 447 l 911 449 l 911 97 l 1075 97 q 1213 124 1178 97 q 1276 261 1247 151 l 1372 261 l 1339 0 l 596 0 l 596 83 l 663 96 q 698 116 690 100 q 706 167 706 132 l 706 449 l 425 449 l 290 169 q 276 119 272 138 q 313 94 279 100 l 371 83 l 371 0 l 17 0 m 471 543 l 706 543 l 706 875 l 631 875 l 471 543 z "},"Ç":{"ha":963,"x_min":64,"x_max":921,"o":"m 540 -19 l 538 -19 l 522 -62 q 641 -91 594 -56 q 688 -187 688 -126 q 638 -293 688 -256 q 508 -331 588 -331 q 413 -313 458 -331 q 343 -276 367 -296 l 372 -207 q 476 -233 425 -233 q 518 -220 501 -233 q 535 -182 535 -207 q 519 -144 535 -158 q 474 -129 504 -129 q 419 -135 447 -129 l 407 -99 l 440 -12 q 163 141 261 15 q 64 471 64 267 q 188 850 64 708 q 521 992 313 992 q 760 904 672 992 l 774 994 l 854 994 l 908 668 l 804 643 q 543 874 742 874 q 347 768 414 874 q 281 486 281 663 q 363 210 281 307 q 571 113 444 113 q 722 153 661 113 q 836 260 782 193 l 921 190 q 860 117 890 149 q 783 51 829 85 q 675 -1 738 18 q 540 -19 613 -19 z "},"È":{"ha":888,"x_min":68,"x_max":844,"o":"m 553 1043 l 324 1135 q 270 1169 286 1150 q 254 1222 254 1188 q 276 1283 254 1256 q 332 1310 297 1310 q 392 1279 357 1310 l 590 1103 l 553 1043 m 68 0 l 68 83 l 135 96 q 170 116 163 100 q 178 167 178 132 l 178 811 q 169 858 178 846 q 132 876 161 871 l 68 889 l 68 972 l 756 972 l 808 739 l 718 715 q 642 846 682 817 q 511 875 603 875 l 383 875 l 383 543 l 454 543 q 488 543 475 543 q 514 546 501 543 q 533 549 526 549 q 548 558 540 550 q 558 567 556 565 q 565 583 560 568 q 571 601 569 597 q 577 627 572 606 q 583 658 582 649 l 664 668 l 664 344 l 583 331 q 573 392 576 376 q 558 424 569 407 q 530 444 547 442 q 478 449 513 447 l 383 449 l 383 97 l 547 97 q 685 124 650 97 q 749 261 719 151 l 844 261 l 811 0 l 68 0 z "},"É":{"ha":888,"x_min":68,"x_max":844,"o":"m 342 1043 l 304 1103 l 503 1279 q 563 1310 538 1310 q 619 1283 597 1310 q 640 1222 640 1256 q 624 1169 640 1188 q 571 1135 608 1150 l 342 1043 m 68 0 l 68 83 l 135 96 q 170 116 163 100 q 178 167 178 132 l 178 811 q 169 858 178 846 q 132 876 161 871 l 68 889 l 68 972 l 756 972 l 808 739 l 718 715 q 642 846 682 817 q 511 875 603 875 l 383 875 l 383 543 l 454 543 q 488 543 475 543 q 514 546 501 543 q 533 549 526 549 q 548 558 540 550 q 558 567 556 565 q 565 583 560 568 q 571 601 569 597 q 577 627 572 606 q 583 658 582 649 l 664 668 l 664 344 l 583 331 q 573 392 576 376 q 558 424 569 407 q 530 444 547 442 q 478 449 513 447 l 383 449 l 383 97 l 547 97 q 685 124 650 97 q 749 261 719 151 l 844 261 l 811 0 l 68 0 z "},"Ê":{"ha":888,"x_min":68,"x_max":844,"o":"m 243 1033 l 197 1092 l 372 1283 q 447 1326 411 1326 q 529 1279 489 1326 l 697 1093 l 651 1033 l 447 1151 l 243 1033 m 68 0 l 68 83 l 135 96 q 170 116 163 100 q 178 167 178 132 l 178 811 q 169 858 178 846 q 132 876 161 871 l 68 889 l 68 972 l 756 972 l 808 739 l 718 715 q 642 846 682 817 q 511 875 603 875 l 383 875 l 383 543 l 454 543 q 488 543 475 543 q 514 546 501 543 q 533 549 526 549 q 548 558 540 550 q 558 567 556 565 q 565 583 560 568 q 571 601 569 597 q 577 627 572 606 q 583 658 582 649 l 664 668 l 664 344 l 583 331 q 573 392 576 376 q 558 424 569 407 q 530 444 547 442 q 478 449 513 447 l 383 449 l 383 97 l 547 97 q 685 124 650 97 q 749 261 719 151 l 844 261 l 811 0 l 68 0 z "},"Ë":{"ha":888,"x_min":68,"x_max":844,"o":"m 375 1100 q 359 1085 375 1100 q 292 1071 343 1071 q 209 1100 240 1071 q 178 1176 178 1129 q 209 1251 178 1222 q 292 1281 240 1281 q 377 1252 347 1281 q 407 1176 407 1224 q 375 1100 407 1129 m 685 1100 q 669 1085 685 1100 q 601 1071 653 1071 q 519 1100 550 1071 q 488 1176 488 1129 q 519 1251 488 1222 q 601 1281 550 1281 q 687 1252 657 1281 q 717 1176 717 1224 q 685 1100 717 1129 m 68 0 l 68 83 l 135 96 q 170 116 163 100 q 178 167 178 132 l 178 811 q 169 858 178 846 q 132 876 161 871 l 68 889 l 68 972 l 756 972 l 808 739 l 718 715 q 642 846 682 817 q 511 875 603 875 l 383 875 l 383 543 l 454 543 q 488 543 475 543 q 514 546 501 543 q 533 549 526 549 q 548 558 540 550 q 558 567 556 565 q 565 583 560 568 q 571 601 569 597 q 577 627 572 606 q 583 658 582 649 l 664 668 l 664 344 l 583 331 q 573 392 576 376 q 558 424 569 407 q 530 444 547 442 q 478 449 513 447 l 383 449 l 383 97 l 547 97 q 685 124 650 97 q 749 261 719 151 l 844 261 l 811 0 l 68 0 z "},"Ì":{"ha":576,"x_min":63,"x_max":514,"o":"m 393 1043 l 164 1135 q 110 1169 126 1150 q 94 1222 94 1188 q 116 1283 94 1256 q 172 1310 138 1310 q 232 1279 197 1310 l 431 1103 l 393 1043 m 63 0 l 63 83 l 133 96 q 177 113 169 101 q 185 168 185 125 l 185 804 q 177 859 185 847 q 133 876 169 871 l 63 889 l 63 972 l 514 972 l 514 889 l 435 875 q 398 858 406 869 q 390 806 390 846 l 390 163 q 398 115 390 126 q 435 97 406 103 l 514 83 l 514 0 l 63 0 z "},"Í":{"ha":576,"x_min":63,"x_max":514,"o":"m 182 1043 l 144 1103 l 343 1279 q 403 1310 378 1310 q 459 1283 438 1310 q 481 1222 481 1256 q 465 1169 481 1188 q 411 1135 449 1150 l 182 1043 m 63 0 l 63 83 l 133 96 q 177 113 169 101 q 185 168 185 125 l 185 804 q 177 859 185 847 q 133 876 169 871 l 63 889 l 63 972 l 514 972 l 514 889 l 435 875 q 398 858 406 869 q 390 806 390 846 l 390 163 q 398 115 390 126 q 435 97 406 103 l 514 83 l 514 0 l 63 0 z "},"Î":{"ha":576,"x_min":38,"x_max":538,"o":"m 83 1033 l 38 1092 l 213 1283 q 288 1326 251 1326 q 369 1279 329 1326 l 538 1093 l 492 1033 l 288 1151 l 83 1033 m 63 0 l 63 83 l 133 96 q 177 113 169 101 q 185 168 185 125 l 185 804 q 177 859 185 847 q 133 876 169 871 l 63 889 l 63 972 l 514 972 l 514 889 l 435 875 q 398 858 406 869 q 390 806 390 846 l 390 163 q 398 115 390 126 q 435 97 406 103 l 514 83 l 514 0 l 63 0 z "},"Ï":{"ha":576,"x_min":22,"x_max":561,"o":"m 219 1100 q 203 1085 219 1100 q 136 1071 188 1071 q 53 1100 85 1071 q 22 1176 22 1129 q 53 1251 22 1222 q 136 1281 85 1281 q 222 1252 192 1281 q 251 1176 251 1224 q 219 1100 251 1129 m 529 1100 q 513 1085 529 1100 q 446 1071 497 1071 q 363 1100 394 1071 q 332 1176 332 1129 q 363 1251 332 1222 q 446 1281 394 1281 q 531 1252 501 1281 q 561 1176 561 1224 q 529 1100 561 1129 m 63 0 l 63 83 l 133 96 q 177 113 169 101 q 185 168 185 125 l 185 804 q 177 859 185 847 q 133 876 169 871 l 63 889 l 63 972 l 514 972 l 514 889 l 435 875 q 398 858 406 869 q 390 806 390 846 l 390 163 q 398 115 390 126 q 435 97 406 103 l 514 83 l 514 0 l 63 0 z "},"Ð":{"ha":1072,"x_min":40,"x_max":1007,"o":"m 511 972 q 875 864 743 972 q 1007 525 1007 756 q 442 0 1007 0 l 68 0 l 68 83 l 147 99 q 178 118 171 103 q 185 171 185 133 l 185 447 l 40 447 l 54 554 l 185 554 l 185 808 q 183 844 185 833 q 173 863 182 854 q 144 874 164 871 l 68 889 l 68 972 l 511 972 m 476 99 q 612 122 554 99 q 703 184 669 146 q 758 279 738 222 q 786 393 779 336 q 793 521 793 450 q 709 781 793 686 q 442 875 625 875 l 390 875 l 390 554 l 626 554 l 626 447 l 390 447 l 390 106 q 476 99 428 99 z "},"Ñ":{"ha":1132,"x_min":69,"x_max":1086,"o":"m 688 1067 q 576 1094 638 1067 q 431 1146 464 1146 q 406 1135 417 1146 q 374 1093 396 1125 l 318 1135 q 391 1252 357 1219 q 468 1285 425 1285 q 594 1249 508 1285 q 724 1203 699 1203 q 749 1213 738 1203 q 781 1254 760 1224 l 836 1217 q 765 1099 799 1132 q 688 1067 731 1067 m 69 0 l 69 83 l 144 97 q 179 115 172 103 q 186 167 186 128 l 186 811 q 179 858 186 846 q 143 875 172 869 l 69 889 l 69 972 l 400 972 l 840 238 l 844 238 l 844 811 q 838 858 844 846 q 801 875 831 869 l 728 889 l 728 972 l 1086 972 l 1086 889 l 1011 875 q 976 856 983 869 q 969 806 969 843 l 969 0 l 757 0 l 317 735 l 311 735 l 311 161 q 319 115 311 128 q 356 97 326 103 l 428 83 l 428 0 l 69 0 z "},"Ò":{"ha":1072,"x_min":64,"x_max":1007,"o":"m 646 1043 l 417 1135 q 363 1169 379 1150 q 347 1222 347 1188 q 369 1283 347 1256 q 425 1310 390 1310 q 485 1279 450 1310 l 683 1103 l 646 1043 m 535 -19 q 183 115 303 -19 q 64 468 64 250 q 201 860 64 728 q 550 992 338 992 q 879 867 751 992 q 1007 511 1007 743 q 883 129 1007 278 q 535 -19 760 -19 m 547 97 q 729 194 665 97 q 793 486 793 290 q 724 771 793 665 q 528 876 654 876 q 281 496 281 876 q 347 205 281 313 q 547 97 414 97 z "},"Ó":{"ha":1072,"x_min":64,"x_max":1007,"o":"m 435 1043 l 397 1103 l 596 1279 q 656 1310 631 1310 q 712 1283 690 1310 q 733 1222 733 1256 q 717 1169 733 1188 q 664 1135 701 1150 l 435 1043 m 535 -19 q 183 115 303 -19 q 64 468 64 250 q 201 860 64 728 q 550 992 338 992 q 879 867 751 992 q 1007 511 1007 743 q 883 129 1007 278 q 535 -19 760 -19 m 547 97 q 729 194 665 97 q 793 486 793 290 q 724 771 793 665 q 528 876 654 876 q 281 496 281 876 q 347 205 281 313 q 547 97 414 97 z "},"Ô":{"ha":1072,"x_min":64,"x_max":1007,"o":"m 336 1033 l 290 1092 l 465 1283 q 540 1326 504 1326 q 622 1279 582 1326 l 790 1093 l 744 1033 l 540 1151 l 336 1033 m 535 -19 q 183 115 303 -19 q 64 468 64 250 q 201 860 64 728 q 550 992 338 992 q 879 867 751 992 q 1007 511 1007 743 q 883 129 1007 278 q 535 -19 760 -19 m 547 97 q 729 194 665 97 q 793 486 793 290 q 724 771 793 665 q 528 876 654 876 q 281 496 281 876 q 347 205 281 313 q 547 97 414 97 z "},"Õ":{"ha":1072,"x_min":64,"x_max":1007,"o":"m 650 1067 q 539 1094 600 1067 q 393 1146 426 1146 q 369 1135 379 1146 q 336 1093 358 1125 l 281 1135 q 353 1252 319 1219 q 431 1285 388 1285 q 557 1249 471 1285 q 686 1203 661 1203 q 711 1213 700 1203 q 743 1254 722 1224 l 799 1217 q 727 1099 761 1132 q 650 1067 693 1067 m 535 -19 q 183 115 303 -19 q 64 468 64 250 q 201 860 64 728 q 550 992 338 992 q 879 867 751 992 q 1007 511 1007 743 q 883 129 1007 278 q 535 -19 760 -19 m 547 97 q 729 194 665 97 q 793 486 793 290 q 724 771 793 665 q 528 876 654 876 q 281 496 281 876 q 347 205 281 313 q 547 97 414 97 z "},"Ö":{"ha":1072,"x_min":64,"x_max":1007,"o":"m 468 1100 q 452 1085 468 1100 q 385 1071 436 1071 q 302 1100 333 1071 q 271 1176 271 1129 q 302 1251 271 1222 q 385 1281 333 1281 q 470 1252 440 1281 q 500 1176 500 1224 q 468 1100 500 1129 m 778 1100 q 762 1085 778 1100 q 694 1071 746 1071 q 612 1100 643 1071 q 581 1176 581 1129 q 612 1251 581 1222 q 694 1281 643 1281 q 780 1252 750 1281 q 810 1176 810 1224 q 778 1100 810 1129 m 535 -19 q 183 115 303 -19 q 64 468 64 250 q 201 860 64 728 q 550 992 338 992 q 879 867 751 992 q 1007 511 1007 743 q 883 129 1007 278 q 535 -19 760 -19 m 547 97 q 729 194 665 97 q 793 486 793 290 q 724 771 793 665 q 528 876 654 876 q 281 496 281 876 q 347 205 281 313 q 547 97 414 97 z "},"×":{"ha":808,"x_min":111,"x_max":699,"o":"m 606 131 l 404 333 l 204 135 l 113 225 l 313 426 l 111 626 l 208 715 l 404 518 l 608 725 l 699 632 l 493 425 l 699 224 l 606 131 z "},"Ø":{"ha":1072,"x_min":36,"x_max":1024,"o":"m 1024 992 l 900 844 q 1007 511 1007 718 q 883 129 1007 278 q 535 -19 760 -19 q 247 60 364 -19 l 182 -19 l 36 -19 l 165 136 q 64 468 64 264 q 201 860 64 728 q 550 992 338 992 q 817 918 703 992 l 878 992 l 1024 992 m 281 496 q 304 303 281 389 l 710 790 q 528 876 640 876 q 281 496 281 876 m 793 486 q 765 682 793 596 l 357 190 q 547 97 425 97 q 729 194 665 97 q 793 486 793 290 z "},"Ù":{"ha":1097,"x_min":50,"x_max":1053,"o":"m 686 1043 l 457 1135 q 403 1169 419 1150 q 388 1222 388 1188 q 409 1283 388 1256 q 465 1310 431 1310 q 525 1279 490 1310 l 724 1103 l 686 1043 m 558 -19 q 171 361 171 -19 l 171 810 q 163 857 171 844 q 125 875 154 869 l 50 888 l 50 972 l 496 972 l 496 888 l 418 875 q 384 855 392 871 q 376 804 376 839 l 376 381 q 418 176 376 240 q 585 111 460 111 q 694 132 650 111 q 761 192 739 153 q 792 276 783 232 q 801 379 801 321 l 801 810 q 793 857 801 844 q 756 875 785 869 l 682 888 l 682 972 l 1053 972 l 1053 888 l 976 875 q 941 855 949 871 q 933 804 933 839 l 933 376 q 558 -19 933 -19 z "},"Ú":{"ha":1097,"x_min":50,"x_max":1053,"o":"m 475 1043 l 438 1103 l 636 1279 q 696 1310 671 1310 q 752 1283 731 1310 q 774 1222 774 1256 q 758 1169 774 1188 q 704 1135 742 1150 l 475 1043 m 558 -19 q 171 361 171 -19 l 171 810 q 163 857 171 844 q 125 875 154 869 l 50 888 l 50 972 l 496 972 l 496 888 l 418 875 q 384 855 392 871 q 376 804 376 839 l 376 381 q 418 176 376 240 q 585 111 460 111 q 694 132 650 111 q 761 192 739 153 q 792 276 783 232 q 801 379 801 321 l 801 810 q 793 857 801 844 q 756 875 785 869 l 682 888 l 682 972 l 1053 972 l 1053 888 l 976 875 q 941 855 949 871 q 933 804 933 839 l 933 376 q 558 -19 933 -19 z "},"Û":{"ha":1097,"x_min":50,"x_max":1053,"o":"m 376 1033 l 331 1092 l 506 1283 q 581 1326 544 1326 q 663 1279 622 1326 l 831 1093 l 785 1033 l 581 1151 l 376 1033 m 558 -19 q 171 361 171 -19 l 171 810 q 163 857 171 844 q 125 875 154 869 l 50 888 l 50 972 l 496 972 l 496 888 l 418 875 q 384 855 392 871 q 376 804 376 839 l 376 381 q 418 176 376 240 q 585 111 460 111 q 694 132 650 111 q 761 192 739 153 q 792 276 783 232 q 801 379 801 321 l 801 810 q 793 857 801 844 q 756 875 785 869 l 682 888 l 682 972 l 1053 972 l 1053 888 l 976 875 q 941 855 949 871 q 933 804 933 839 l 933 376 q 558 -19 933 -19 z "},"Ü":{"ha":1097,"x_min":50,"x_max":1053,"o":"m 508 1100 q 492 1085 508 1100 q 425 1071 476 1071 q 342 1100 374 1071 q 311 1176 311 1129 q 342 1251 311 1222 q 425 1281 374 1281 q 510 1252 481 1281 q 540 1176 540 1224 q 508 1100 540 1129 m 818 1100 q 802 1085 818 1100 q 735 1071 786 1071 q 652 1100 683 1071 q 621 1176 621 1129 q 652 1251 621 1222 q 735 1281 683 1281 q 820 1252 790 1281 q 850 1176 850 1224 q 818 1100 850 1129 m 558 -19 q 171 361 171 -19 l 171 810 q 163 857 171 844 q 125 875 154 869 l 50 888 l 50 972 l 496 972 l 496 888 l 418 875 q 384 855 392 871 q 376 804 376 839 l 376 381 q 418 176 376 240 q 585 111 460 111 q 694 132 650 111 q 761 192 739 153 q 792 276 783 232 q 801 379 801 321 l 801 810 q 793 857 801 844 q 756 875 785 869 l 682 888 l 682 972 l 1053 972 l 1053 888 l 976 875 q 941 855 949 871 q 933 804 933 839 l 933 376 q 558 -19 933 -19 z "},"Ý":{"ha":957,"x_min":7,"x_max":950,"o":"m 414 1043 l 376 1103 l 575 1279 q 635 1310 610 1310 q 691 1283 669 1310 q 713 1222 713 1256 q 697 1169 713 1188 q 643 1135 681 1150 l 414 1043 m 242 0 l 242 83 l 349 97 q 384 116 376 103 q 392 164 392 129 l 392 367 l 138 808 q 100 859 117 844 q 54 879 83 874 l 7 889 l 7 972 l 446 972 l 446 893 l 383 883 q 357 814 325 875 l 526 500 l 533 500 l 699 807 q 710 856 715 842 q 675 878 704 871 l 601 894 l 601 972 l 950 972 l 950 893 l 910 882 q 867 861 885 878 q 829 806 850 844 l 597 378 l 597 163 q 605 115 597 128 q 642 97 613 103 l 749 83 l 749 0 l 242 0 z "},"Þ":{"ha":865,"x_min":63,"x_max":857,"o":"m 63 0 l 63 83 l 133 96 q 177 113 169 101 q 185 168 185 125 l 185 804 q 177 859 185 847 q 133 876 169 871 l 63 889 l 63 972 l 514 972 l 514 889 l 435 875 q 398 858 406 869 q 390 806 390 846 l 390 778 l 483 778 q 632 765 568 778 q 749 724 696 753 q 829 641 801 694 q 857 510 857 588 q 825 361 857 425 q 739 261 793 297 q 623 208 685 225 q 494 190 561 190 q 390 194 428 190 l 390 163 q 398 115 390 126 q 435 97 406 103 l 514 83 l 514 0 l 63 0 m 390 290 q 446 288 415 288 q 594 345 544 288 q 643 501 643 403 q 457 681 643 681 l 390 681 l 390 290 z "},"ß":{"ha":1008,"x_min":31,"x_max":974,"o":"m 439 -19 l 417 229 l 518 235 q 591 126 542 165 q 699 88 640 88 q 772 111 742 88 q 803 185 803 135 q 770 247 803 221 q 691 293 738 274 q 598 336 644 313 q 519 403 551 360 q 486 506 486 446 q 509 606 486 558 q 560 687 532 654 q 610 771 588 719 q 633 881 633 822 q 599 972 633 947 q 503 996 565 996 q 389 948 432 996 q 346 806 346 900 l 346 0 l 31 0 l 31 82 l 110 94 q 145 115 138 99 q 153 165 153 131 l 153 608 l 42 608 l 42 686 l 153 713 l 153 757 q 254 997 153 907 q 524 1086 356 1086 q 722 1039 642 1086 q 801 903 801 992 q 778 812 801 857 q 726 736 754 767 q 674 663 697 706 q 650 581 650 621 q 683 526 650 550 q 765 481 717 503 q 860 433 813 460 q 940 358 907 407 q 974 240 974 308 q 898 53 974 126 q 710 -19 822 -19 q 538 32 611 -19 l 522 -19 l 439 -19 z "},"à":{"ha":774,"x_min":50,"x_max":769,"o":"m 440 806 l 224 939 q 172 1019 172 969 q 197 1078 172 1050 q 267 1107 222 1107 q 321 1067 290 1107 l 486 854 l 440 806 m 264 -19 q 110 31 171 -19 q 50 178 50 81 q 299 389 50 354 q 440 401 371 397 l 440 507 q 415 606 440 575 q 338 636 390 636 q 222 603 272 636 q 257 524 257 544 q 233 472 257 494 q 151 449 208 449 q 81 473 106 449 q 57 538 57 497 q 149 674 57 615 q 361 732 240 732 q 567 671 496 732 q 639 458 639 610 l 639 160 q 662 103 639 115 q 750 107 685 90 l 769 38 q 607 -19 701 -19 q 471 89 497 -19 q 264 -19 403 -19 m 343 106 q 440 219 440 106 l 440 313 q 342 303 386 313 q 254 200 254 283 q 278 130 254 154 q 343 106 301 106 z "},"á":{"ha":774,"x_min":50,"x_max":769,"o":"m 281 806 l 235 854 l 400 1067 q 454 1107 431 1107 q 524 1078 499 1107 q 549 1019 549 1050 q 497 939 549 969 l 281 806 m 264 -19 q 110 31 171 -19 q 50 178 50 81 q 299 389 50 354 q 440 401 371 397 l 440 507 q 415 606 440 575 q 338 636 390 636 q 222 603 272 636 q 257 524 257 544 q 233 472 257 494 q 151 449 208 449 q 81 473 106 449 q 57 538 57 497 q 149 674 57 615 q 361 732 240 732 q 567 671 496 732 q 639 458 639 610 l 639 160 q 662 103 639 115 q 750 107 685 90 l 769 38 q 607 -19 701 -19 q 471 89 497 -19 q 264 -19 403 -19 m 343 106 q 440 219 440 106 l 440 313 q 342 303 386 313 q 254 200 254 283 q 278 130 254 154 q 343 106 301 106 z "},"â":{"ha":774,"x_min":50,"x_max":769,"o":"m 153 806 l 106 857 l 274 1067 q 356 1114 313 1114 q 400 1102 383 1114 q 446 1056 417 1090 l 606 857 l 558 806 l 356 942 l 153 806 m 264 -19 q 110 31 171 -19 q 50 178 50 81 q 299 389 50 354 q 440 401 371 397 l 440 507 q 415 606 440 575 q 338 636 390 636 q 222 603 272 636 q 257 524 257 544 q 233 472 257 494 q 151 449 208 449 q 81 473 106 449 q 57 538 57 497 q 149 674 57 615 q 361 732 240 732 q 567 671 496 732 q 639 458 639 610 l 639 160 q 662 103 639 115 q 750 107 685 90 l 769 38 q 607 -19 701 -19 q 471 89 497 -19 q 264 -19 403 -19 m 343 106 q 440 219 440 106 l 440 313 q 342 303 386 313 q 254 200 254 283 q 278 130 254 154 q 343 106 301 106 z "},"ã":{"ha":774,"x_min":50,"x_max":769,"o":"m 465 850 q 449 851 457 850 q 433 853 440 851 q 415 858 426 854 q 397 863 404 861 q 374 872 390 865 q 347 881 357 878 q 313 895 338 885 q 274 911 289 906 q 208 929 231 929 q 184 919 194 929 q 151 876 174 908 l 96 918 q 169 1035 135 1003 q 246 1068 203 1068 q 372 1032 286 1068 q 501 986 476 986 q 526 997 515 986 q 558 1038 538 1007 l 614 1000 q 542 883 576 915 q 465 850 508 850 m 264 -19 q 110 31 171 -19 q 50 178 50 81 q 299 389 50 354 q 440 401 371 397 l 440 507 q 415 606 440 575 q 338 636 390 636 q 222 603 272 636 q 257 524 257 544 q 233 472 257 494 q 151 449 208 449 q 81 473 106 449 q 57 538 57 497 q 149 674 57 615 q 361 732 240 732 q 567 671 496 732 q 639 458 639 610 l 639 160 q 662 103 639 115 q 750 107 685 90 l 769 38 q 607 -19 701 -19 q 471 89 497 -19 q 264 -19 403 -19 m 343 106 q 440 219 440 106 l 440 313 q 342 303 386 313 q 254 200 254 283 q 278 130 254 154 q 343 106 301 106 z "},"ä":{"ha":774,"x_min":50,"x_max":769,"o":"m 283 881 q 267 866 283 881 q 200 851 251 851 q 117 881 149 851 q 86 957 86 910 q 117 1032 86 1003 q 200 1061 149 1061 q 285 1033 256 1061 q 315 957 315 1004 q 283 881 315 910 m 593 881 q 577 866 593 881 q 510 851 561 851 q 427 881 458 851 q 396 957 396 910 q 427 1032 396 1003 q 510 1061 458 1061 q 595 1033 565 1061 q 625 957 625 1004 q 593 881 625 910 m 264 -19 q 110 31 171 -19 q 50 178 50 81 q 299 389 50 354 q 440 401 371 397 l 440 507 q 415 606 440 575 q 338 636 390 636 q 222 603 272 636 q 257 524 257 544 q 233 472 257 494 q 151 449 208 449 q 81 473 106 449 q 57 538 57 497 q 149 674 57 615 q 361 732 240 732 q 567 671 496 732 q 639 458 639 610 l 639 160 q 662 103 639 115 q 750 107 685 90 l 769 38 q 607 -19 701 -19 q 471 89 497 -19 q 264 -19 403 -19 m 343 106 q 440 219 440 106 l 440 313 q 342 303 386 313 q 254 200 254 283 q 278 130 254 154 q 343 106 301 106 z "},"å":{"ha":774,"x_min":50,"x_max":769,"o":"m 488 852 q 461 830 488 852 q 351 808 433 808 q 221 849 269 808 q 172 958 172 890 q 225 1076 172 1032 q 361 1119 278 1119 q 497 1078 450 1119 q 543 965 543 1038 q 488 852 543 896 m 356 883 q 415 967 415 883 q 356 1047 415 1047 q 297 967 297 1047 q 356 883 297 883 m 264 -19 q 110 31 171 -19 q 50 178 50 81 q 299 389 50 354 q 440 401 371 397 l 440 507 q 415 606 440 575 q 338 636 390 636 q 222 603 272 636 q 257 524 257 544 q 233 472 257 494 q 151 449 208 449 q 81 473 106 449 q 57 538 57 497 q 149 674 57 615 q 361 732 240 732 q 567 671 496 732 q 639 458 639 610 l 639 160 q 662 103 639 115 q 750 107 685 90 l 769 38 q 607 -19 701 -19 q 471 89 497 -19 q 264 -19 403 -19 m 343 106 q 440 219 440 106 l 440 313 q 342 303 386 313 q 254 200 254 283 q 278 130 254 154 q 343 106 301 106 z "},"æ":{"ha":1117,"x_min":50,"x_max":1078,"o":"m 264 -19 q 110 31 171 -19 q 50 178 50 81 q 299 389 50 354 q 440 401 371 397 l 440 507 q 415 606 440 575 q 338 636 390 636 q 222 603 272 636 q 257 524 257 544 q 233 472 257 494 q 151 449 208 449 q 81 473 106 449 q 57 538 57 497 q 145 674 57 615 q 350 732 233 732 q 568 649 489 732 q 799 732 663 732 q 996 662 922 732 q 1069 467 1069 592 q 1051 325 1069 389 l 638 325 q 688 178 639 231 q 818 126 736 126 q 1017 204 919 126 l 1078 138 q 768 -19 954 -19 q 517 90 604 -19 q 264 -19 428 -19 m 638 431 l 874 431 q 878 504 878 458 q 853 602 878 574 q 779 631 828 631 q 638 431 647 631 m 343 106 q 440 219 440 106 l 440 313 q 342 303 386 313 q 254 200 254 283 q 278 130 254 154 q 343 106 301 106 z "},"ç":{"ha":731,"x_min":47,"x_max":694,"o":"m 435 126 q 540 145 496 126 q 636 204 585 164 l 694 138 q 386 -19 564 -19 l 371 -62 q 490 -91 443 -56 q 536 -187 536 -126 q 486 -293 536 -256 q 357 -331 436 -331 q 261 -313 307 -331 q 192 -276 215 -296 l 221 -207 q 325 -233 274 -233 q 367 -220 350 -233 q 383 -182 383 -207 q 368 -144 383 -158 q 322 -129 353 -129 q 268 -135 296 -129 l 256 -99 l 292 -8 q 112 113 176 21 q 47 331 47 204 q 149 622 47 513 q 425 732 251 732 q 629 672 564 732 q 694 540 694 613 q 667 465 694 493 q 589 436 640 436 q 486 511 486 436 q 529 604 486 532 q 436 629 494 629 q 299 557 343 629 q 254 364 254 485 q 302 185 254 244 q 435 126 350 126 z "},"è":{"ha":733,"x_min":47,"x_max":694,"o":"m 464 806 l 247 939 q 196 1019 196 969 q 221 1078 196 1050 q 290 1107 246 1107 q 344 1067 314 1107 l 510 854 l 464 806 m 385 -19 q 134 82 221 -19 q 47 332 47 183 q 147 626 47 519 q 408 732 246 732 q 611 662 536 732 q 686 467 686 592 q 668 325 686 389 l 254 325 q 304 178 256 231 q 435 126 353 126 q 633 204 536 126 l 694 138 q 385 -19 571 -19 m 254 431 l 490 431 q 494 504 494 457 q 468 602 494 574 q 390 631 442 631 q 292 576 325 631 q 254 431 258 521 z "},"é":{"ha":733,"x_min":47,"x_max":694,"o":"m 314 806 l 268 854 l 433 1067 q 488 1107 464 1107 q 557 1078 532 1107 q 582 1019 582 1050 q 531 939 582 969 l 314 806 m 385 -19 q 134 82 221 -19 q 47 332 47 183 q 147 626 47 519 q 408 732 246 732 q 611 662 536 732 q 686 467 686 592 q 668 325 686 389 l 254 325 q 304 178 256 231 q 435 126 353 126 q 633 204 536 126 l 694 138 q 385 -19 571 -19 m 254 431 l 490 431 q 494 504 494 457 q 468 602 494 574 q 390 631 442 631 q 292 576 325 631 q 254 431 258 521 z "},"ê":{"ha":733,"x_min":47,"x_max":694,"o":"m 186 806 l 139 857 l 307 1067 q 389 1114 346 1114 q 433 1102 417 1114 q 479 1056 450 1090 l 639 857 l 592 806 l 389 942 l 186 806 m 385 -19 q 134 82 221 -19 q 47 332 47 183 q 147 626 47 519 q 408 732 246 732 q 611 662 536 732 q 686 467 686 592 q 668 325 686 389 l 254 325 q 304 178 256 231 q 435 126 353 126 q 633 204 536 126 l 694 138 q 385 -19 571 -19 m 254 431 l 490 431 q 494 504 494 457 q 468 602 494 574 q 390 631 442 631 q 292 576 325 631 q 254 431 258 521 z "},"ë":{"ha":733,"x_min":47,"x_max":694,"o":"m 317 881 q 301 866 317 881 q 233 851 285 851 q 151 881 182 851 q 119 957 119 910 q 151 1032 119 1003 q 233 1061 182 1061 q 319 1033 289 1061 q 349 957 349 1004 q 317 881 349 910 m 626 881 q 610 866 626 881 q 543 851 594 851 q 460 881 492 851 q 429 957 429 910 q 460 1032 429 1003 q 543 1061 492 1061 q 628 1033 599 1061 q 658 957 658 1004 q 626 881 658 910 m 385 -19 q 134 82 221 -19 q 47 332 47 183 q 147 626 47 519 q 408 732 246 732 q 611 662 536 732 q 686 467 686 592 q 668 325 686 389 l 254 325 q 304 178 256 231 q 435 126 353 126 q 633 204 536 126 l 694 138 q 385 -19 571 -19 m 254 431 l 490 431 q 494 504 494 457 q 468 602 494 574 q 390 631 442 631 q 292 576 325 631 q 254 431 258 521 z "},"ì":{"ha":490,"x_min":32,"x_max":463,"o":"m 300 806 l 83 939 q 32 1019 32 969 q 57 1078 32 1050 q 126 1107 82 1107 q 181 1067 150 1107 l 346 854 l 300 806 m 44 0 l 44 83 l 117 96 q 151 113 143 100 q 158 158 158 125 l 158 531 q 150 594 158 579 q 108 613 142 608 l 43 622 l 53 707 l 340 724 l 357 717 l 357 158 q 364 115 357 125 q 396 97 371 104 l 463 82 l 463 0 l 44 0 z "},"í":{"ha":490,"x_min":43,"x_max":463,"o":"m 136 806 l 90 854 l 256 1067 q 310 1107 286 1107 q 379 1078 354 1107 q 404 1019 404 1050 q 353 939 404 969 l 136 806 m 44 0 l 44 83 l 117 96 q 151 113 143 100 q 158 158 158 125 l 158 531 q 150 594 158 579 q 108 613 142 608 l 43 622 l 53 707 l 340 724 l 357 717 l 357 158 q 364 115 357 125 q 396 97 371 104 l 463 82 l 463 0 l 44 0 z "},"î":{"ha":490,"x_min":-33,"x_max":467,"o":"m 14 806 l -33 857 l 135 1067 q 217 1114 174 1114 q 261 1102 244 1114 q 307 1056 278 1090 l 467 857 l 419 806 l 217 942 l 14 806 m 44 0 l 44 83 l 117 96 q 151 113 143 100 q 158 158 158 125 l 158 531 q 150 594 158 579 q 108 613 142 608 l 43 622 l 53 707 l 340 724 l 357 717 l 357 158 q 364 115 357 125 q 396 97 371 104 l 463 82 l 463 0 l 44 0 z "},"ï":{"ha":490,"x_min":-51,"x_max":488,"o":"m 146 881 q 130 866 146 881 q 63 851 114 851 q -20 881 11 851 q -51 957 -51 910 q -20 1032 -51 1003 q 63 1061 11 1061 q 148 1033 118 1061 q 178 957 178 1004 q 146 881 178 910 m 456 881 q 440 866 456 881 q 372 851 424 851 q 290 881 321 851 q 258 957 258 910 q 290 1032 258 1003 q 372 1061 321 1061 q 458 1033 428 1061 q 488 957 488 1004 q 456 881 488 910 m 44 0 l 44 83 l 117 96 q 151 113 143 100 q 158 158 158 125 l 158 531 q 150 594 158 579 q 108 613 142 608 l 43 622 l 53 707 l 340 724 l 357 717 l 357 158 q 364 115 357 125 q 396 97 371 104 l 463 82 l 463 0 l 44 0 z "},"ð":{"ha":815,"x_min":47,"x_max":763,"o":"m 388 -19 q 139 74 231 -19 q 47 333 47 167 q 140 599 47 510 q 363 689 233 689 q 556 610 475 689 l 561 613 q 439 864 531 772 l 308 769 l 268 857 l 361 925 q 156 992 281 972 l 172 1079 q 488 1018 368 1072 l 649 1135 l 689 1046 l 575 964 q 717 754 672 883 q 763 485 763 625 q 669 112 763 243 q 388 -19 575 -19 m 406 90 q 516 156 481 90 q 551 357 551 221 q 528 531 551 500 q 399 585 486 585 q 294 531 329 585 q 258 353 258 476 q 406 90 258 90 z "},"ñ":{"ha":928,"x_min":35,"x_max":903,"o":"m 585 850 q 568 851 576 850 q 553 853 560 851 q 535 858 546 854 q 517 863 524 861 q 493 872 510 865 q 467 881 476 878 q 433 895 457 885 q 393 911 408 906 q 328 929 350 929 q 303 919 314 929 q 271 876 293 908 l 215 918 q 288 1035 254 1003 q 365 1068 322 1068 q 492 1032 406 1068 q 621 986 596 986 q 646 997 635 986 q 678 1038 657 1007 l 733 1000 q 662 883 696 915 q 585 850 628 850 m 47 0 l 47 83 l 114 96 q 144 114 139 100 q 150 163 150 128 l 150 526 q 142 591 150 575 q 103 613 133 607 l 35 622 l 44 707 l 307 722 l 324 713 l 333 589 l 338 589 q 383 657 361 631 q 454 708 406 683 q 568 732 503 732 q 746 669 697 732 q 794 494 794 606 l 794 151 q 802 111 794 122 q 838 94 810 100 l 903 83 l 903 0 l 504 0 l 504 82 l 554 93 q 588 110 581 99 q 596 151 596 121 l 596 429 q 576 552 596 514 q 492 590 556 590 q 349 410 349 590 l 349 157 q 355 115 349 126 q 383 97 361 103 l 442 82 l 442 0 l 47 0 z "},"ò":{"ha":825,"x_min":47,"x_max":778,"o":"m 490 806 l 274 939 q 222 1019 222 969 q 247 1078 222 1050 q 317 1107 272 1107 q 371 1067 340 1107 l 536 854 l 490 806 m 407 -19 q 139 78 231 -19 q 47 335 47 176 q 153 633 47 535 q 426 732 258 732 q 682 640 586 732 q 778 378 778 549 q 678 85 778 190 q 407 -19 579 -19 m 426 90 q 567 344 567 90 q 404 626 567 626 q 257 385 257 626 q 426 90 257 90 z "},"ó":{"ha":825,"x_min":47,"x_max":778,"o":"m 329 806 l 283 854 l 449 1067 q 503 1107 479 1107 q 572 1078 547 1107 q 597 1019 597 1050 q 546 939 597 969 l 329 806 m 407 -19 q 139 78 231 -19 q 47 335 47 176 q 153 633 47 535 q 426 732 258 732 q 682 640 586 732 q 778 378 778 549 q 678 85 778 190 q 407 -19 579 -19 m 426 90 q 567 344 567 90 q 404 626 567 626 q 257 385 257 626 q 426 90 257 90 z "},"ô":{"ha":825,"x_min":47,"x_max":778,"o":"m 206 806 l 158 857 l 326 1067 q 408 1114 365 1114 q 453 1102 436 1114 q 499 1056 469 1090 l 658 857 l 611 806 l 408 942 l 206 806 m 407 -19 q 139 78 231 -19 q 47 335 47 176 q 153 633 47 535 q 426 732 258 732 q 682 640 586 732 q 778 378 778 549 q 678 85 778 190 q 407 -19 579 -19 m 426 90 q 567 344 567 90 q 404 626 567 626 q 257 385 257 626 q 426 90 257 90 z "},"õ":{"ha":825,"x_min":47,"x_max":778,"o":"m 525 850 q 508 851 517 850 q 493 853 500 851 q 475 858 486 854 q 457 863 464 861 q 433 872 450 865 q 407 881 417 878 q 373 895 397 885 q 333 911 349 906 q 268 929 290 929 q 244 919 254 929 q 211 876 233 908 l 156 918 q 228 1035 194 1003 q 306 1068 263 1068 q 432 1032 346 1068 q 561 986 536 986 q 586 997 575 986 q 618 1038 597 1007 l 674 1000 q 602 883 636 915 q 525 850 568 850 m 407 -19 q 139 78 231 -19 q 47 335 47 176 q 153 633 47 535 q 426 732 258 732 q 682 640 586 732 q 778 378 778 549 q 678 85 778 190 q 407 -19 579 -19 m 426 90 q 567 344 567 90 q 404 626 567 626 q 257 385 257 626 q 426 90 257 90 z "},"ö":{"ha":825,"x_min":47,"x_max":778,"o":"m 336 881 q 320 866 336 881 q 253 851 304 851 q 170 881 201 851 q 139 957 139 910 q 170 1032 139 1003 q 253 1061 201 1061 q 338 1033 308 1061 q 368 957 368 1004 q 336 881 368 910 m 646 881 q 630 866 646 881 q 563 851 614 851 q 480 881 511 851 q 449 957 449 910 q 480 1032 449 1003 q 563 1061 511 1061 q 648 1033 618 1061 q 678 957 678 1004 q 646 881 678 910 m 407 -19 q 139 78 231 -19 q 47 335 47 176 q 153 633 47 535 q 426 732 258 732 q 682 640 586 732 q 778 378 778 549 q 678 85 778 190 q 407 -19 579 -19 m 426 90 q 567 344 567 90 q 404 626 567 626 q 257 385 257 626 q 426 90 257 90 z "},"÷":{"ha":808,"x_min":97,"x_max":711,"o":"m 392 567 q 289 665 289 567 q 317 740 289 715 q 392 765 344 765 q 501 667 501 765 q 392 567 501 567 m 97 364 l 97 494 l 711 494 l 711 364 l 97 364 m 392 93 q 289 192 289 93 q 317 267 289 242 q 392 292 344 292 q 501 193 501 292 q 392 93 501 93 z "},"ø":{"ha":825,"x_min":15,"x_max":804,"o":"m 804 732 l 703 617 q 778 378 778 529 q 678 85 778 190 q 407 -19 579 -19 q 193 35 278 -19 l 144 -19 l 15 -19 l 121 100 q 47 335 47 192 q 153 633 47 535 q 426 732 258 732 q 631 681 546 732 l 675 732 l 804 732 m 257 385 q 265 265 257 317 l 524 560 q 404 626 485 626 q 257 385 257 626 m 567 344 q 560 453 567 400 l 301 160 q 426 90 343 90 q 567 344 567 90 z "},"ù":{"ha":911,"x_min":24,"x_max":883,"o":"m 508 806 l 292 939 q 240 1019 240 969 q 265 1078 240 1050 q 335 1107 290 1107 q 389 1067 358 1107 l 554 854 l 508 806 m 354 -19 q 139 214 139 -19 l 139 532 q 131 590 139 575 q 90 611 122 606 l 24 622 l 33 707 l 321 724 l 338 717 l 338 278 q 338 227 338 244 q 344 186 339 210 q 359 151 349 163 q 389 131 369 139 q 436 122 408 122 q 538 169 501 122 q 575 307 575 217 l 575 533 q 567 592 575 576 q 529 613 560 607 l 474 622 l 483 707 l 757 724 l 774 717 l 774 172 q 775 133 774 143 q 786 112 776 122 q 818 99 796 101 l 883 88 l 883 0 l 617 -10 l 594 111 l 590 111 q 497 15 550 50 q 354 -19 443 -19 z "},"ú":{"ha":911,"x_min":24,"x_max":883,"o":"m 360 806 l 314 854 l 479 1067 q 533 1107 510 1107 q 603 1078 578 1107 q 628 1019 628 1050 q 576 939 628 969 l 360 806 m 354 -19 q 139 214 139 -19 l 139 532 q 131 590 139 575 q 90 611 122 606 l 24 622 l 33 707 l 321 724 l 338 717 l 338 278 q 338 227 338 244 q 344 186 339 210 q 359 151 349 163 q 389 131 369 139 q 436 122 408 122 q 538 169 501 122 q 575 307 575 217 l 575 533 q 567 592 575 576 q 529 613 560 607 l 474 622 l 483 707 l 757 724 l 774 717 l 774 172 q 775 133 774 143 q 786 112 776 122 q 818 99 796 101 l 883 88 l 883 0 l 617 -10 l 594 111 l 590 111 q 497 15 550 50 q 354 -19 443 -19 z "},"û":{"ha":911,"x_min":24,"x_max":883,"o":"m 236 806 l 189 857 l 357 1067 q 439 1114 396 1114 q 483 1102 467 1114 q 529 1056 500 1090 l 689 857 l 642 806 l 439 942 l 236 806 m 354 -19 q 139 214 139 -19 l 139 532 q 131 590 139 575 q 90 611 122 606 l 24 622 l 33 707 l 321 724 l 338 717 l 338 278 q 338 227 338 244 q 344 186 339 210 q 359 151 349 163 q 389 131 369 139 q 436 122 408 122 q 538 169 501 122 q 575 307 575 217 l 575 533 q 567 592 575 576 q 529 613 560 607 l 474 622 l 483 707 l 757 724 l 774 717 l 774 172 q 775 133 774 143 q 786 112 776 122 q 818 99 796 101 l 883 88 l 883 0 l 617 -10 l 594 111 l 590 111 q 497 15 550 50 q 354 -19 443 -19 z "},"ü":{"ha":911,"x_min":24,"x_max":883,"o":"m 367 881 q 351 866 367 881 q 283 851 335 851 q 201 881 232 851 q 169 957 169 910 q 201 1032 169 1003 q 283 1061 232 1061 q 369 1033 339 1061 q 399 957 399 1004 q 367 881 399 910 m 676 881 q 660 866 676 881 q 593 851 644 851 q 510 881 542 851 q 479 957 479 910 q 510 1032 479 1003 q 593 1061 542 1061 q 678 1033 649 1061 q 708 957 708 1004 q 676 881 708 910 m 354 -19 q 139 214 139 -19 l 139 532 q 131 590 139 575 q 90 611 122 606 l 24 622 l 33 707 l 321 724 l 338 717 l 338 278 q 338 227 338 244 q 344 186 339 210 q 359 151 349 163 q 389 131 369 139 q 436 122 408 122 q 538 169 501 122 q 575 307 575 217 l 575 533 q 567 592 575 576 q 529 613 560 607 l 474 622 l 483 707 l 757 724 l 774 717 l 774 172 q 775 133 774 143 q 786 112 776 122 q 818 99 796 101 l 883 88 l 883 0 l 617 -10 l 594 111 l 590 111 q 497 15 550 50 q 354 -19 443 -19 z "},"ý":{"ha":839,"x_min":0,"x_max":828,"o":"m 375 806 l 329 854 l 494 1067 q 549 1107 525 1107 q 618 1078 593 1107 q 643 1019 643 1050 q 592 939 643 969 l 375 806 m 154 -318 q 39 -283 78 -318 q 0 -201 0 -249 q 31 -122 0 -154 q 113 -89 63 -89 q 193 -157 193 -89 q 183 -231 193 -178 q 262 -187 232 -224 q 324 -76 292 -150 l 356 -4 l 129 547 q 101 597 113 585 q 63 615 90 608 l 17 626 l 31 713 l 432 713 l 432 631 l 365 621 q 332 601 338 617 q 339 550 326 586 l 460 235 l 467 235 l 590 540 q 598 592 604 575 q 561 617 592 610 l 499 631 l 513 713 l 828 713 l 828 629 l 776 618 q 742 600 751 614 q 711 539 732 586 l 465 -31 q 331 -251 399 -185 q 154 -318 264 -318 z "},"þ":{"ha":889,"x_min":24,"x_max":833,"o":"m 40 -304 l 40 -217 l 99 -207 q 131 -191 122 -203 q 139 -151 139 -179 l 139 889 q 128 938 139 925 q 86 957 118 950 l 24 968 l 35 1056 l 322 1064 l 338 1049 l 338 615 l 342 615 q 558 732 415 732 q 759 643 685 732 q 833 383 833 554 q 745 86 833 192 q 510 -19 657 -19 q 338 22 407 -19 l 338 -144 q 348 -190 338 -176 q 383 -206 358 -203 l 469 -218 l 469 -304 l 40 -304 m 461 101 q 626 364 626 101 q 590 540 626 485 q 481 594 554 594 q 380 555 422 594 q 338 421 338 515 l 338 139 q 461 101 386 101 z "},"ÿ":{"ha":839,"x_min":0,"x_max":828,"o":"m 378 881 q 362 866 378 881 q 294 851 346 851 q 212 881 243 851 q 181 957 181 910 q 212 1032 181 1003 q 294 1061 243 1061 q 380 1033 350 1061 q 410 957 410 1004 q 378 881 410 910 m 688 881 q 672 866 688 881 q 604 851 656 851 q 522 881 553 851 q 490 957 490 910 q 522 1032 490 1003 q 604 1061 553 1061 q 690 1033 660 1061 q 719 957 719 1004 q 688 881 719 910 m 154 -318 q 39 -283 78 -318 q 0 -201 0 -249 q 31 -122 0 -154 q 113 -89 63 -89 q 193 -157 193 -89 q 183 -231 193 -178 q 262 -187 232 -224 q 324 -76 292 -150 l 356 -4 l 129 547 q 101 597 113 585 q 63 615 90 608 l 17 626 l 31 713 l 432 713 l 432 631 l 365 621 q 332 601 338 617 q 339 550 326 586 l 460 235 l 467 235 l 590 540 q 598 592 604 575 q 561 617 592 610 l 499 631 l 513 713 l 828 713 l 828 629 l 776 618 q 742 600 751 614 q 711 539 732 586 l 465 -31 q 331 -251 399 -185 q 154 -318 264 -318 z "},"Ā":{"ha":1028,"x_min":17,"x_max":1011,"o":"m 293 1103 l 293 1233 l 746 1233 l 746 1103 l 293 1103 m 17 0 l 17 83 l 82 93 q 117 114 106 99 q 143 169 129 129 l 432 972 l 610 972 l 896 165 q 910 127 906 138 q 926 106 915 117 q 956 93 938 96 l 1011 83 l 1011 0 l 582 0 l 582 83 l 646 93 q 678 113 674 97 q 672 163 683 128 l 629 299 l 321 299 l 278 168 q 273 117 265 135 q 310 94 281 100 l 371 83 l 371 0 l 17 0 m 350 393 l 601 393 l 483 767 l 478 767 l 350 393 z "},"ā":{"ha":774,"x_min":50,"x_max":769,"o":"m 140 871 l 140 999 l 571 999 l 571 871 l 140 871 m 264 -19 q 110 31 171 -19 q 50 178 50 81 q 299 389 50 354 q 440 401 371 397 l 440 507 q 415 606 440 575 q 338 636 390 636 q 222 603 272 636 q 257 524 257 544 q 233 472 257 494 q 151 449 208 449 q 81 473 106 449 q 57 538 57 497 q 149 674 57 615 q 361 732 240 732 q 567 671 496 732 q 639 458 639 610 l 639 160 q 662 103 639 115 q 750 107 685 90 l 769 38 q 607 -19 701 -19 q 471 89 497 -19 q 264 -19 403 -19 m 343 106 q 440 219 440 106 l 440 313 q 342 303 386 313 q 254 200 254 283 q 278 130 254 154 q 343 106 301 106 z "},"Ă":{"ha":1028,"x_min":17,"x_max":1011,"o":"m 517 1044 q 288 1299 311 1044 l 365 1321 q 519 1192 410 1192 q 675 1317 629 1192 l 754 1297 q 681 1118 744 1192 q 517 1044 618 1044 m 17 0 l 17 83 l 82 93 q 117 114 106 99 q 143 169 129 129 l 432 972 l 610 972 l 896 165 q 910 127 906 138 q 926 106 915 117 q 956 93 938 96 l 1011 83 l 1011 0 l 582 0 l 582 83 l 646 93 q 678 113 674 97 q 672 163 683 128 l 629 299 l 321 299 l 278 168 q 273 117 265 135 q 310 94 281 100 l 371 83 l 371 0 l 17 0 m 350 393 l 601 393 l 483 767 l 478 767 l 350 393 z "},"ă":{"ha":774,"x_min":50,"x_max":769,"o":"m 351 815 q 188 888 246 815 q 119 1086 131 960 l 197 1103 q 361 961 246 961 q 458 995 422 961 q 517 1099 494 1029 l 596 1086 q 521 892 583 968 q 351 815 458 815 m 264 -19 q 110 31 171 -19 q 50 178 50 81 q 299 389 50 354 q 440 401 371 397 l 440 507 q 415 606 440 575 q 338 636 390 636 q 222 603 272 636 q 257 524 257 544 q 233 472 257 494 q 151 449 208 449 q 81 473 106 449 q 57 538 57 497 q 149 674 57 615 q 361 732 240 732 q 567 671 496 732 q 639 458 639 610 l 639 160 q 662 103 639 115 q 750 107 685 90 l 769 38 q 607 -19 701 -19 q 471 89 497 -19 q 264 -19 403 -19 m 343 106 q 440 219 440 106 l 440 313 q 342 303 386 313 q 254 200 254 283 q 278 130 254 154 q 343 106 301 106 z "},"Ą":{"ha":1028,"x_min":17,"x_max":1011,"o":"m 883 0 q 806 -94 835 -46 q 776 -175 776 -143 q 829 -228 776 -228 q 899 -206 860 -228 l 931 -267 q 761 -332 858 -332 q 651 -295 688 -332 q 615 -206 615 -258 q 779 0 615 -103 l 582 0 l 582 83 l 646 93 q 678 113 674 97 q 672 163 683 128 l 629 299 l 321 299 l 278 168 q 273 117 265 135 q 310 94 281 100 l 371 83 l 371 0 l 17 0 l 17 83 l 82 93 q 117 114 106 99 q 143 169 129 129 l 432 972 l 610 972 l 896 165 q 910 127 906 138 q 926 106 915 117 q 956 93 938 96 l 1011 83 l 1011 0 l 883 0 m 350 393 l 601 393 l 483 767 l 478 767 l 350 393 z "},"ą":{"ha":774,"x_min":50,"x_max":769,"o":"m 651 -228 q 721 -206 682 -228 l 753 -267 q 583 -332 681 -332 q 474 -295 510 -332 q 438 -206 438 -258 q 585 -18 438 -114 q 471 89 493 -7 q 264 -19 403 -19 q 110 31 171 -19 q 50 178 50 81 q 299 389 50 354 q 440 401 371 397 l 440 507 q 415 606 440 575 q 338 636 390 636 q 222 603 272 636 q 257 524 257 544 q 233 472 257 494 q 151 449 208 449 q 81 473 106 449 q 57 538 57 497 q 149 674 57 615 q 361 732 240 732 q 567 671 496 732 q 639 458 639 610 l 639 160 q 662 103 639 115 q 750 107 685 90 l 769 38 q 759 29 767 35 q 750 22 751 24 q 599 -175 599 -92 q 651 -228 599 -228 m 440 219 l 440 313 q 342 303 386 313 q 254 200 254 283 q 278 130 254 154 q 343 106 301 106 q 440 219 440 106 z "},"Ć":{"ha":963,"x_min":64,"x_max":921,"o":"m 413 1043 l 375 1103 l 574 1279 q 633 1310 608 1310 q 690 1283 668 1310 q 711 1222 711 1256 q 695 1169 711 1188 q 642 1135 679 1150 l 413 1043 m 540 -19 q 190 110 315 -19 q 64 471 64 239 q 188 850 64 708 q 521 992 313 992 q 760 904 672 992 l 774 994 l 854 994 l 908 668 l 804 643 q 543 874 742 874 q 347 768 414 874 q 281 486 281 663 q 363 210 281 307 q 571 113 444 113 q 722 153 661 113 q 836 260 782 193 l 921 190 q 860 117 890 149 q 783 51 829 85 q 675 -1 738 18 q 540 -19 613 -19 z "},"ć":{"ha":731,"x_min":47,"x_max":694,"o":"m 343 806 l 297 854 l 463 1067 q 517 1107 493 1107 q 586 1078 561 1107 q 611 1019 611 1050 q 560 939 611 969 l 343 806 m 386 -19 q 139 80 231 -19 q 47 331 47 179 q 149 622 47 513 q 425 732 251 732 q 629 672 564 732 q 694 540 694 613 q 667 465 694 493 q 589 436 640 436 q 486 511 486 436 q 529 604 486 532 q 436 629 494 629 q 299 557 343 629 q 254 364 254 485 q 302 185 254 244 q 435 126 350 126 q 540 145 496 126 q 636 204 585 164 l 694 138 q 386 -19 564 -19 z "},"Ĉ":{"ha":963,"x_min":64,"x_max":921,"o":"m 314 1033 l 268 1092 l 443 1283 q 518 1326 482 1326 q 600 1279 560 1326 l 768 1093 l 722 1033 l 518 1151 l 314 1033 m 540 -19 q 190 110 315 -19 q 64 471 64 239 q 188 850 64 708 q 521 992 313 992 q 760 904 672 992 l 774 994 l 854 994 l 908 668 l 804 643 q 543 874 742 874 q 347 768 414 874 q 281 486 281 663 q 363 210 281 307 q 571 113 444 113 q 722 153 661 113 q 836 260 782 193 l 921 190 q 860 117 890 149 q 783 51 829 85 q 675 -1 738 18 q 540 -19 613 -19 z "},"ĉ":{"ha":731,"x_min":47,"x_max":694,"o":"m 207 806 l 160 857 l 328 1067 q 410 1114 367 1114 q 454 1102 438 1114 q 500 1056 471 1090 l 660 857 l 613 806 l 410 942 l 207 806 m 386 -19 q 139 80 231 -19 q 47 331 47 179 q 149 622 47 513 q 425 732 251 732 q 629 672 564 732 q 694 540 694 613 q 667 465 694 493 q 589 436 640 436 q 486 511 486 436 q 529 604 486 532 q 436 629 494 629 q 299 557 343 629 q 254 364 254 485 q 302 185 254 244 q 435 126 350 126 q 540 145 496 126 q 636 204 585 164 l 694 138 q 386 -19 564 -19 z "},"Ċ":{"ha":963,"x_min":64,"x_max":921,"o":"m 615 1096 q 596 1079 615 1096 q 518 1063 578 1063 q 422 1095 458 1063 q 386 1183 386 1128 q 422 1271 386 1238 q 518 1304 458 1304 q 616 1272 581 1304 q 651 1183 651 1239 q 615 1096 651 1129 m 540 -19 q 190 110 315 -19 q 64 471 64 239 q 188 850 64 708 q 521 992 313 992 q 760 904 672 992 l 774 994 l 854 994 l 908 668 l 804 643 q 543 874 742 874 q 347 768 414 874 q 281 486 281 663 q 363 210 281 307 q 571 113 444 113 q 722 153 661 113 q 836 260 782 193 l 921 190 q 860 117 890 149 q 783 51 829 85 q 675 -1 738 18 q 540 -19 613 -19 z "},"ċ":{"ha":731,"x_min":47,"x_max":694,"o":"m 508 885 q 489 868 508 885 q 411 851 471 851 q 315 884 351 851 q 279 972 279 917 q 315 1060 279 1026 q 411 1093 351 1093 q 509 1060 474 1093 q 544 972 544 1028 q 508 885 544 918 m 386 -19 q 139 80 231 -19 q 47 331 47 179 q 149 622 47 513 q 425 732 251 732 q 629 672 564 732 q 694 540 694 613 q 667 465 694 493 q 589 436 640 436 q 486 511 486 436 q 529 604 486 532 q 436 629 494 629 q 299 557 343 629 q 254 364 254 485 q 302 185 254 244 q 435 126 350 126 q 540 145 496 126 q 636 204 585 164 l 694 138 q 386 -19 564 -19 z "},"Č":{"ha":963,"x_min":64,"x_max":921,"o":"m 518 1044 q 436 1092 476 1044 l 268 1278 l 314 1338 l 518 1219 l 722 1338 l 768 1279 l 593 1088 q 518 1044 554 1044 m 540 -19 q 190 110 315 -19 q 64 471 64 239 q 188 850 64 708 q 521 992 313 992 q 760 904 672 992 l 774 994 l 854 994 l 908 668 l 804 643 q 543 874 742 874 q 347 768 414 874 q 281 486 281 663 q 363 210 281 307 q 571 113 444 113 q 722 153 661 113 q 836 260 782 193 l 921 190 q 860 117 890 149 q 783 51 829 85 q 675 -1 738 18 q 540 -19 613 -19 z "},"č":{"ha":731,"x_min":47,"x_max":694,"o":"m 406 806 q 361 817 378 806 q 315 864 344 829 l 156 1063 l 203 1114 l 406 978 l 608 1114 l 656 1063 l 488 853 q 406 806 449 806 m 386 -19 q 139 80 231 -19 q 47 331 47 179 q 149 622 47 513 q 425 732 251 732 q 629 672 564 732 q 694 540 694 613 q 667 465 694 493 q 589 436 640 436 q 486 511 486 436 q 529 604 486 532 q 436 629 494 629 q 299 557 343 629 q 254 364 254 485 q 302 185 254 244 q 435 126 350 126 q 540 145 496 126 q 636 204 585 164 l 694 138 q 386 -19 564 -19 z "},"Ď":{"ha":1072,"x_min":68,"x_max":1007,"o":"m 506 1044 q 424 1092 464 1044 l 256 1278 l 301 1338 l 506 1219 l 710 1338 l 756 1279 l 581 1088 q 506 1044 542 1044 m 68 0 l 68 83 l 147 99 q 178 118 171 103 q 185 171 185 133 l 185 808 q 183 844 185 833 q 173 863 182 854 q 144 874 164 871 l 68 889 l 68 972 l 511 972 q 875 864 743 972 q 1007 525 1007 756 q 442 0 1007 0 l 68 0 m 476 99 q 612 122 554 99 q 703 184 669 146 q 758 279 738 222 q 786 393 779 336 q 793 521 793 450 q 709 781 793 686 q 442 875 625 875 l 390 875 l 390 106 q 476 99 428 99 z "},"ď":{"ha":1017,"x_min":56,"x_max":1010,"o":"m 865 688 l 810 733 q 869 876 869 826 q 839 921 869 896 q 806 982 806 949 q 833 1042 806 1018 q 908 1067 861 1067 q 982 1035 954 1067 q 1010 957 1010 1003 q 975 829 1010 901 q 865 688 940 757 m 350 -19 q 132 75 208 -19 q 56 338 56 169 q 145 626 56 521 q 393 732 235 732 q 551 696 483 732 l 551 883 q 542 935 551 921 q 497 956 533 950 l 436 968 l 447 1056 l 735 1064 l 750 1049 l 750 161 q 758 116 750 128 q 794 99 767 104 l 860 88 l 860 0 l 593 -10 l 572 101 l 568 101 q 350 -19 499 -19 m 413 113 q 513 153 474 113 q 551 283 551 193 l 551 581 q 424 614 494 614 q 263 351 263 614 q 413 113 263 113 z "},"Đ":{"ha":1072,"x_min":40,"x_max":1007,"o":"m 511 972 q 875 864 743 972 q 1007 525 1007 756 q 442 0 1007 0 l 68 0 l 68 83 l 147 99 q 178 118 171 103 q 185 171 185 133 l 185 447 l 40 447 l 54 554 l 185 554 l 185 808 q 183 844 185 833 q 173 863 182 854 q 144 874 164 871 l 68 889 l 68 972 l 511 972 m 476 99 q 612 122 554 99 q 703 184 669 146 q 758 279 738 222 q 786 393 779 336 q 793 521 793 450 q 709 781 793 686 q 442 875 625 875 l 390 875 l 390 554 l 626 554 l 626 447 l 390 447 l 390 106 q 476 99 428 99 z "},"đ":{"ha":888,"x_min":56,"x_max":903,"o":"m 903 829 l 750 829 l 750 161 q 758 116 750 128 q 794 99 767 104 l 860 88 l 860 0 l 593 -10 l 572 101 l 568 101 q 350 -19 499 -19 q 132 75 208 -19 q 56 338 56 169 q 145 626 56 521 q 393 732 235 732 q 551 696 483 732 l 551 829 l 339 829 l 351 932 l 551 932 l 551 1060 l 735 1064 l 750 1049 l 750 932 l 903 932 l 903 829 m 551 283 l 551 581 q 424 614 494 614 q 263 351 263 614 q 413 113 263 113 q 513 153 474 113 q 551 283 551 193 z "},"Ē":{"ha":888,"x_min":68,"x_max":844,"o":"m 221 1103 l 221 1233 l 674 1233 l 674 1103 l 221 1103 m 68 0 l 68 83 l 135 96 q 170 116 163 100 q 178 167 178 132 l 178 811 q 169 858 178 846 q 132 876 161 871 l 68 889 l 68 972 l 756 972 l 808 739 l 718 715 q 642 846 682 817 q 511 875 603 875 l 383 875 l 383 543 l 454 543 q 488 543 475 543 q 514 546 501 543 q 533 549 526 549 q 548 558 540 550 q 558 567 556 565 q 565 583 560 568 q 571 601 569 597 q 577 627 572 606 q 583 658 582 649 l 664 668 l 664 344 l 583 331 q 573 392 576 376 q 558 424 569 407 q 530 444 547 442 q 478 449 513 447 l 383 449 l 383 97 l 547 97 q 685 124 650 97 q 749 261 719 151 l 844 261 l 811 0 l 68 0 z "},"ē":{"ha":733,"x_min":47,"x_max":694,"o":"m 174 871 l 174 999 l 604 999 l 604 871 l 174 871 m 385 -19 q 134 82 221 -19 q 47 332 47 183 q 147 626 47 519 q 408 732 246 732 q 611 662 536 732 q 686 467 686 592 q 668 325 686 389 l 254 325 q 304 178 256 231 q 435 126 353 126 q 633 204 536 126 l 694 138 q 385 -19 571 -19 m 254 431 l 490 431 q 494 504 494 457 q 468 602 494 574 q 390 631 442 631 q 292 576 325 631 q 254 431 258 521 z "},"Ĕ":{"ha":888,"x_min":68,"x_max":844,"o":"m 444 1044 q 215 1299 239 1044 l 293 1321 q 447 1192 338 1192 q 603 1317 557 1192 l 682 1297 q 609 1118 672 1192 q 444 1044 546 1044 m 68 0 l 68 83 l 135 96 q 170 116 163 100 q 178 167 178 132 l 178 811 q 169 858 178 846 q 132 876 161 871 l 68 889 l 68 972 l 756 972 l 808 739 l 718 715 q 642 846 682 817 q 511 875 603 875 l 383 875 l 383 543 l 454 543 q 488 543 475 543 q 514 546 501 543 q 533 549 526 549 q 548 558 540 550 q 558 567 556 565 q 565 583 560 568 q 571 601 569 597 q 577 627 572 606 q 583 658 582 649 l 664 668 l 664 344 l 583 331 q 573 392 576 376 q 558 424 569 407 q 530 444 547 442 q 478 449 513 447 l 383 449 l 383 97 l 547 97 q 685 124 650 97 q 749 261 719 151 l 844 261 l 811 0 l 68 0 z "},"ĕ":{"ha":733,"x_min":47,"x_max":694,"o":"m 382 815 q 219 888 276 815 q 150 1086 161 960 l 228 1103 q 392 961 276 961 q 489 995 453 961 q 547 1099 525 1029 l 626 1086 q 551 892 614 968 q 382 815 489 815 m 385 -19 q 134 82 221 -19 q 47 332 47 183 q 147 626 47 519 q 408 732 246 732 q 611 662 536 732 q 686 467 686 592 q 668 325 686 389 l 254 325 q 304 178 256 231 q 435 126 353 126 q 633 204 536 126 l 694 138 q 385 -19 571 -19 m 254 431 l 490 431 q 494 504 494 457 q 468 602 494 574 q 390 631 442 631 q 292 576 325 631 q 254 431 258 521 z "},"Ė":{"ha":888,"x_min":68,"x_max":844,"o":"m 544 1096 q 525 1079 544 1096 q 447 1063 507 1063 q 351 1095 388 1063 q 315 1183 315 1128 q 351 1271 315 1238 q 447 1304 388 1304 q 545 1272 510 1304 q 581 1183 581 1239 q 544 1096 581 1129 m 68 0 l 68 83 l 135 96 q 170 116 163 100 q 178 167 178 132 l 178 811 q 169 858 178 846 q 132 876 161 871 l 68 889 l 68 972 l 756 972 l 808 739 l 718 715 q 642 846 682 817 q 511 875 603 875 l 383 875 l 383 543 l 454 543 q 488 543 475 543 q 514 546 501 543 q 533 549 526 549 q 548 558 540 550 q 558 567 556 565 q 565 583 560 568 q 571 601 569 597 q 577 627 572 606 q 583 658 582 649 l 664 668 l 664 344 l 583 331 q 573 392 576 376 q 558 424 569 407 q 530 444 547 442 q 478 449 513 447 l 383 449 l 383 97 l 547 97 q 685 124 650 97 q 749 261 719 151 l 844 261 l 811 0 l 68 0 z "},"ė":{"ha":733,"x_min":47,"x_max":694,"o":"m 485 885 q 467 868 485 885 q 389 851 449 851 q 293 884 329 851 q 257 972 257 917 q 293 1060 257 1026 q 389 1093 329 1093 q 487 1060 451 1093 q 522 972 522 1028 q 485 885 522 918 m 385 -19 q 134 82 221 -19 q 47 332 47 183 q 147 626 47 519 q 408 732 246 732 q 611 662 536 732 q 686 467 686 592 q 668 325 686 389 l 254 325 q 304 178 256 231 q 435 126 353 126 q 633 204 536 126 l 694 138 q 385 -19 571 -19 m 254 431 l 490 431 q 494 504 494 457 q 468 602 494 574 q 390 631 442 631 q 292 576 325 631 q 254 431 258 521 z "},"Ę":{"ha":888,"x_min":68,"x_max":844,"o":"m 711 -228 q 781 -206 742 -228 l 813 -267 q 643 -332 740 -332 q 533 -295 569 -332 q 497 -206 497 -258 q 544 -94 497 -142 q 674 0 592 -46 l 68 0 l 68 83 l 135 96 q 170 116 163 100 q 178 167 178 132 l 178 811 q 169 858 178 846 q 132 876 161 871 l 68 889 l 68 972 l 756 972 l 808 739 l 718 715 q 642 846 682 817 q 511 875 603 875 l 383 875 l 383 543 l 454 543 q 488 543 475 543 q 514 546 501 543 q 533 549 526 549 q 548 558 540 550 q 558 567 556 565 q 565 583 560 568 q 571 601 569 597 q 577 627 572 606 q 583 658 582 649 l 664 668 l 664 344 l 583 331 q 573 392 576 376 q 558 424 569 407 q 530 444 547 442 q 478 449 513 447 l 383 449 l 383 97 l 547 97 q 685 124 650 97 q 749 261 719 151 l 844 261 l 811 0 q 658 -175 658 -86 q 711 -228 658 -228 z "},"ę":{"ha":733,"x_min":47,"x_max":694,"o":"m 561 22 q 421 -169 421 -76 q 474 -228 421 -228 q 543 -206 504 -228 l 575 -267 q 406 -332 503 -332 q 296 -295 332 -332 q 260 -206 260 -258 q 393 -19 260 -108 l 385 -19 q 134 82 221 -19 q 47 332 47 183 q 147 626 47 519 q 408 732 246 732 q 611 662 536 732 q 686 467 686 592 q 668 325 686 389 l 254 325 q 304 178 256 231 q 435 126 353 126 q 633 204 536 126 l 694 138 q 561 22 636 61 m 390 631 q 292 576 325 631 q 254 431 258 521 l 490 431 q 494 504 494 457 q 468 602 494 574 q 390 631 442 631 z "},"Ě":{"ha":888,"x_min":68,"x_max":844,"o":"m 447 1044 q 365 1092 406 1044 l 197 1278 l 243 1338 l 447 1219 l 651 1338 l 697 1279 l 522 1088 q 447 1044 483 1044 m 68 0 l 68 83 l 135 96 q 170 116 163 100 q 178 167 178 132 l 178 811 q 169 858 178 846 q 132 876 161 871 l 68 889 l 68 972 l 756 972 l 808 739 l 718 715 q 642 846 682 817 q 511 875 603 875 l 383 875 l 383 543 l 454 543 q 488 543 475 543 q 514 546 501 543 q 533 549 526 549 q 548 558 540 550 q 558 567 556 565 q 565 583 560 568 q 571 601 569 597 q 577 627 572 606 q 583 658 582 649 l 664 668 l 664 344 l 583 331 q 573 392 576 376 q 558 424 569 407 q 530 444 547 442 q 478 449 513 447 l 383 449 l 383 97 l 547 97 q 685 124 650 97 q 749 261 719 151 l 844 261 l 811 0 l 68 0 z "},"ě":{"ha":733,"x_min":47,"x_max":694,"o":"m 389 806 q 344 817 361 806 q 299 864 328 829 l 139 1063 l 186 1114 l 389 978 l 592 1114 l 639 1063 l 471 853 q 389 806 432 806 m 385 -19 q 134 82 221 -19 q 47 332 47 183 q 147 626 47 519 q 408 732 246 732 q 611 662 536 732 q 686 467 686 592 q 668 325 686 389 l 254 325 q 304 178 256 231 q 435 126 353 126 q 633 204 536 126 l 694 138 q 385 -19 571 -19 m 254 431 l 490 431 q 494 504 494 457 q 468 602 494 574 q 390 631 442 631 q 292 576 325 631 q 254 431 258 521 z "},"Ĝ":{"ha":1021,"x_min":64,"x_max":1007,"o":"m 331 1033 l 285 1092 l 460 1283 q 535 1326 499 1326 q 617 1279 576 1326 l 785 1093 l 739 1033 l 535 1151 l 331 1033 m 535 -19 q 354 8 435 -19 q 220 80 274 35 q 131 188 167 125 q 79 319 94 251 q 64 464 64 388 q 186 849 64 707 q 519 992 308 992 q 761 904 674 992 l 775 992 l 860 992 l 928 668 l 821 644 q 715 817 781 761 q 546 872 649 872 q 415 839 469 872 q 332 747 360 806 q 292 625 304 689 q 281 483 281 561 q 359 197 281 294 q 557 100 438 100 q 724 158 657 100 l 724 308 q 715 358 724 343 q 678 378 707 372 l 608 390 l 608 474 l 1007 474 l 1007 390 l 947 378 q 913 356 921 374 q 906 303 906 339 l 906 -4 l 803 -4 l 776 54 q 535 -19 683 -19 z "},"ĝ":{"ha":846,"x_min":17,"x_max":832,"o":"m 172 806 l 125 857 l 293 1067 q 375 1114 332 1114 q 419 1102 403 1114 q 465 1056 436 1090 l 625 857 l 578 806 l 375 942 l 172 806 m 356 -318 q 17 -143 17 -318 q 53 -44 17 -82 q 160 24 90 -7 l 160 26 q 68 138 68 56 q 153 276 68 201 l 153 281 q 47 465 47 338 q 138 660 47 589 q 372 732 229 732 q 563 692 488 732 q 604 751 586 728 q 657 795 622 774 q 729 817 692 817 q 802 794 772 817 q 832 729 832 771 q 806 663 832 692 q 746 633 781 633 q 706 644 719 633 q 682 679 693 654 l 669 707 q 626 642 642 674 q 692 476 692 565 q 603 296 692 365 q 358 226 514 226 q 242 244 299 226 q 210 188 210 213 q 234 145 210 154 q 315 136 258 136 l 510 136 q 710 92 640 136 q 779 -62 779 47 q 680 -244 779 -169 q 356 -318 581 -318 m 376 322 q 458 362 428 322 q 489 471 489 401 q 457 595 489 551 q 371 639 425 639 q 250 479 250 639 q 283 364 250 406 q 376 322 315 322 m 378 -210 q 521 -175 474 -210 q 568 -92 568 -140 q 544 -40 568 -54 q 465 -26 521 -26 l 264 -26 q 213 -114 213 -69 q 378 -210 213 -210 z "},"Ğ":{"ha":1021,"x_min":64,"x_max":1007,"o":"m 532 1057 q 303 1311 326 1057 l 381 1333 q 535 1204 425 1204 q 690 1329 644 1204 l 769 1310 q 697 1131 760 1204 q 532 1057 633 1057 m 535 -19 q 354 8 435 -19 q 220 80 274 35 q 131 188 167 125 q 79 319 94 251 q 64 464 64 388 q 186 849 64 707 q 519 992 308 992 q 761 904 674 992 l 775 992 l 860 992 l 928 668 l 821 644 q 715 817 781 761 q 546 872 649 872 q 415 839 469 872 q 332 747 360 806 q 292 625 304 689 q 281 483 281 561 q 359 197 281 294 q 557 100 438 100 q 724 158 657 100 l 724 308 q 715 358 724 343 q 678 378 707 372 l 608 390 l 608 474 l 1007 474 l 1007 390 l 947 378 q 913 356 921 374 q 906 303 906 339 l 906 -4 l 803 -4 l 776 54 q 535 -19 683 -19 z "},"ğ":{"ha":846,"x_min":17,"x_max":832,"o":"m 371 815 q 208 888 265 815 q 139 1086 150 960 l 217 1103 q 381 961 265 961 q 478 995 442 961 q 536 1099 514 1029 l 615 1086 q 540 892 603 968 q 371 815 478 815 m 356 -318 q 17 -143 17 -318 q 53 -44 17 -82 q 160 24 90 -7 l 160 26 q 68 138 68 56 q 153 276 68 201 l 153 281 q 47 465 47 338 q 138 660 47 589 q 372 732 229 732 q 563 692 488 732 q 604 751 586 728 q 657 795 622 774 q 729 817 692 817 q 802 794 772 817 q 832 729 832 771 q 806 663 832 692 q 746 633 781 633 q 706 644 719 633 q 682 679 693 654 l 669 707 q 626 642 642 674 q 692 476 692 565 q 603 296 692 365 q 358 226 514 226 q 242 244 299 226 q 210 188 210 213 q 234 145 210 154 q 315 136 258 136 l 510 136 q 710 92 640 136 q 779 -62 779 47 q 680 -244 779 -169 q 356 -318 581 -318 m 376 322 q 458 362 428 322 q 489 471 489 401 q 457 595 489 551 q 371 639 425 639 q 250 479 250 639 q 283 364 250 406 q 376 322 315 322 m 378 -210 q 521 -175 474 -210 q 568 -92 568 -140 q 544 -40 568 -54 q 465 -26 521 -26 l 264 -26 q 213 -114 213 -69 q 378 -210 213 -210 z "},"Ġ":{"ha":1021,"x_min":64,"x_max":1007,"o":"m 631 1096 q 613 1079 631 1096 q 535 1063 594 1063 q 439 1095 475 1063 q 403 1183 403 1128 q 439 1271 403 1238 q 535 1304 475 1304 q 633 1272 597 1304 q 668 1183 668 1239 q 631 1096 668 1129 m 535 -19 q 354 8 435 -19 q 220 80 274 35 q 131 188 167 125 q 79 319 94 251 q 64 464 64 388 q 186 849 64 707 q 519 992 308 992 q 761 904 674 992 l 775 992 l 860 992 l 928 668 l 821 644 q 715 817 781 761 q 546 872 649 872 q 415 839 469 872 q 332 747 360 806 q 292 625 304 689 q 281 483 281 561 q 359 197 281 294 q 557 100 438 100 q 724 158 657 100 l 724 308 q 715 358 724 343 q 678 378 707 372 l 608 390 l 608 474 l 1007 474 l 1007 390 l 947 378 q 913 356 921 374 q 906 303 906 339 l 906 -4 l 803 -4 l 776 54 q 535 -19 683 -19 z "},"ġ":{"ha":846,"x_min":17,"x_max":832,"o":"m 472 885 q 453 868 472 885 q 375 851 435 851 q 279 884 315 851 q 243 972 243 917 q 279 1060 243 1026 q 375 1093 315 1093 q 473 1060 438 1093 q 508 972 508 1028 q 472 885 508 918 m 356 -318 q 17 -143 17 -318 q 53 -44 17 -82 q 160 24 90 -7 l 160 26 q 68 138 68 56 q 153 276 68 201 l 153 281 q 47 465 47 338 q 138 660 47 589 q 372 732 229 732 q 563 692 488 732 q 604 751 586 728 q 657 795 622 774 q 729 817 692 817 q 802 794 772 817 q 832 729 832 771 q 806 663 832 692 q 746 633 781 633 q 706 644 719 633 q 682 679 693 654 l 669 707 q 626 642 642 674 q 692 476 692 565 q 603 296 692 365 q 358 226 514 226 q 242 244 299 226 q 210 188 210 213 q 234 145 210 154 q 315 136 258 136 l 510 136 q 710 92 640 136 q 779 -62 779 47 q 680 -244 779 -169 q 356 -318 581 -318 m 376 322 q 458 362 428 322 q 489 471 489 401 q 457 595 489 551 q 371 639 425 639 q 250 479 250 639 q 283 364 250 406 q 376 322 315 322 m 378 -210 q 521 -175 474 -210 q 568 -92 568 -140 q 544 -40 568 -54 q 465 -26 521 -26 l 264 -26 q 213 -114 213 -69 q 378 -210 213 -210 z "},"Ģ":{"ha":1021,"x_min":64,"x_max":1007,"o":"m 535 -19 q 354 8 435 -19 q 220 80 274 35 q 131 188 167 125 q 79 319 94 251 q 64 464 64 388 q 186 849 64 707 q 519 992 308 992 q 761 904 674 992 l 775 992 l 860 992 l 928 668 l 821 644 q 715 817 781 761 q 546 872 649 872 q 415 839 469 872 q 332 747 360 806 q 292 625 304 689 q 281 483 281 561 q 359 197 281 294 q 557 100 438 100 q 724 158 657 100 l 724 308 q 715 358 724 343 q 678 378 707 372 l 608 390 l 608 474 l 1007 474 l 1007 390 l 947 378 q 913 356 921 374 q 906 303 906 339 l 906 -4 l 803 -4 l 776 54 q 535 -19 683 -19 m 617 -299 q 599 -315 617 -299 q 521 -332 581 -332 q 425 -299 461 -332 q 389 -211 389 -267 q 425 -124 389 -157 q 521 -90 461 -90 q 619 -123 583 -90 q 654 -211 654 -156 q 617 -299 654 -265 z "},"ģ":{"ha":846,"x_min":17,"x_max":832,"o":"m 375 815 q 292 844 324 815 q 261 926 261 872 q 303 1041 261 982 q 426 1143 344 1100 l 478 1085 q 399 981 411 1036 l 414 981 q 483 910 483 981 q 453 840 483 864 q 375 815 422 815 m 356 -318 q 17 -143 17 -318 q 53 -44 17 -82 q 160 24 90 -7 l 160 26 q 68 138 68 56 q 153 276 68 201 l 153 281 q 47 465 47 338 q 138 660 47 589 q 372 732 229 732 q 563 692 488 732 q 604 751 586 728 q 657 795 622 774 q 729 817 692 817 q 802 794 772 817 q 832 729 832 771 q 806 663 832 692 q 746 633 781 633 q 706 644 719 633 q 682 679 693 654 l 669 707 q 626 642 642 674 q 692 476 692 565 q 603 296 692 365 q 358 226 514 226 q 242 244 299 226 q 210 188 210 213 q 234 145 210 154 q 315 136 258 136 l 510 136 q 710 92 640 136 q 779 -62 779 47 q 680 -244 779 -169 q 356 -318 581 -318 m 376 322 q 458 362 428 322 q 489 471 489 401 q 457 595 489 551 q 371 639 425 639 q 250 479 250 639 q 283 364 250 406 q 376 322 315 322 m 378 -210 q 521 -175 474 -210 q 568 -92 568 -140 q 544 -40 568 -54 q 465 -26 521 -26 l 264 -26 q 213 -114 213 -69 q 378 -210 213 -210 z "},"Ĥ":{"ha":1157,"x_min":68,"x_max":1088,"o":"m 374 1033 l 328 1092 l 503 1283 q 578 1326 542 1326 q 660 1279 619 1326 l 828 1093 l 782 1033 l 578 1151 l 374 1033 m 68 0 l 68 83 l 133 96 q 177 113 169 101 q 185 168 185 125 l 185 804 q 177 859 185 847 q 133 876 169 871 l 68 889 l 68 972 l 507 972 l 507 889 l 435 875 q 398 858 406 869 q 390 806 390 846 l 390 554 l 765 554 l 765 806 q 758 858 765 846 q 721 875 750 869 l 649 889 l 649 972 l 1088 972 l 1088 889 l 1022 876 q 978 859 986 871 q 971 804 971 847 l 971 168 q 978 113 971 125 q 1022 96 986 101 l 1088 83 l 1088 0 l 649 0 l 649 83 l 721 97 q 758 115 750 103 q 765 163 765 126 l 765 443 l 390 443 l 390 163 q 398 115 390 126 q 435 97 406 103 l 507 83 l 507 0 l 68 0 z "},"ĥ":{"ha":922,"x_min":-46,"x_max":897,"o":"m 0 1111 l -46 1169 l 129 1361 q 204 1404 168 1404 q 286 1357 246 1404 l 454 1171 l 408 1111 l 204 1229 l 0 1111 m 42 0 l 42 83 l 108 96 q 139 114 133 100 q 144 163 144 128 l 144 889 q 134 938 144 925 q 92 957 124 950 l 29 968 l 40 1056 l 328 1064 l 343 1049 l 343 615 l 347 615 q 565 732 425 732 q 740 668 692 732 q 789 494 789 604 l 789 151 q 797 111 789 122 q 832 94 804 100 l 897 83 l 897 0 l 499 0 l 499 82 l 549 93 q 583 110 575 99 q 590 151 590 121 l 590 429 q 570 552 590 514 q 486 590 550 590 q 382 545 421 590 q 343 410 343 500 l 343 157 q 349 115 343 126 q 378 97 356 103 l 436 82 l 436 0 l 42 0 z "},"Ħ":{"ha":1157,"x_min":40,"x_max":1096,"o":"m 1096 664 l 971 664 l 971 168 q 978 113 971 125 q 1022 96 986 101 l 1088 83 l 1088 0 l 649 0 l 649 83 l 721 97 q 758 115 750 103 q 765 163 765 126 l 765 443 l 390 443 l 390 163 q 398 115 390 126 q 435 97 406 103 l 507 83 l 507 0 l 68 0 l 68 83 l 133 96 q 177 113 169 101 q 185 168 185 125 l 185 664 l 40 664 l 54 763 l 185 763 l 185 804 q 177 859 185 847 q 133 876 169 871 l 68 889 l 68 972 l 507 972 l 507 889 l 435 875 q 398 858 406 869 q 390 806 390 846 l 390 763 l 765 763 l 765 806 q 758 858 765 846 q 721 875 750 869 l 649 889 l 649 972 l 1088 972 l 1088 889 l 1022 876 q 978 859 986 871 q 971 804 971 847 l 971 763 l 1096 763 l 1096 664 m 765 554 l 765 664 l 390 664 l 390 554 l 765 554 z "},"ħ":{"ha":922,"x_min":24,"x_max":897,"o":"m 42 0 l 42 83 l 108 96 q 139 114 133 100 q 144 163 144 128 l 144 829 l 24 829 l 36 932 l 144 932 l 144 1060 l 328 1064 l 343 1049 l 343 932 l 550 932 l 550 829 l 343 829 l 343 615 l 347 615 q 565 732 425 732 q 740 668 692 732 q 789 494 789 604 l 789 151 q 797 111 789 122 q 832 94 804 100 l 897 83 l 897 0 l 499 0 l 499 82 l 549 93 q 583 110 575 99 q 590 151 590 121 l 590 429 q 570 552 590 514 q 486 590 550 590 q 382 545 421 590 q 343 410 343 500 l 343 157 q 349 115 343 126 q 378 97 356 103 l 436 82 l 436 0 l 42 0 z "},"Ĩ":{"ha":576,"x_min":28,"x_max":546,"o":"m 397 1067 q 286 1094 347 1067 q 140 1146 174 1146 q 116 1135 126 1146 q 83 1093 106 1125 l 28 1135 q 101 1252 67 1219 q 178 1285 135 1285 q 304 1249 218 1285 q 433 1203 408 1203 q 458 1213 447 1203 q 490 1254 469 1224 l 546 1217 q 474 1099 508 1132 q 397 1067 440 1067 m 63 0 l 63 83 l 133 96 q 177 113 169 101 q 185 168 185 125 l 185 804 q 177 859 185 847 q 133 876 169 871 l 63 889 l 63 972 l 514 972 l 514 889 l 435 875 q 398 858 406 869 q 390 806 390 846 l 390 163 q 398 115 390 126 q 435 97 406 103 l 514 83 l 514 0 l 63 0 z "},"ĩ":{"ha":490,"x_min":-43,"x_max":475,"o":"m 326 850 q 310 851 318 850 q 294 853 301 851 q 276 858 288 854 q 258 863 265 861 q 235 872 251 865 q 208 881 218 878 q 174 895 199 885 q 135 911 150 906 q 69 929 92 929 q 45 919 56 929 q 13 876 35 908 l -43 918 q 30 1035 -4 1003 q 107 1068 64 1068 q 233 1032 147 1068 q 363 986 338 986 q 388 997 376 986 q 419 1038 399 1007 l 475 1000 q 403 883 438 915 q 326 850 369 850 m 44 0 l 44 83 l 117 96 q 151 113 143 100 q 158 158 158 125 l 158 531 q 150 594 158 579 q 108 613 142 608 l 43 622 l 53 707 l 340 724 l 357 717 l 357 158 q 364 115 357 125 q 396 97 371 104 l 463 82 l 463 0 l 44 0 z "},"Ī":{"ha":576,"x_min":61,"x_max":514,"o":"m 61 1103 l 61 1233 l 514 1233 l 514 1103 l 61 1103 m 63 0 l 63 83 l 133 96 q 177 113 169 101 q 185 168 185 125 l 185 804 q 177 859 185 847 q 133 876 169 871 l 63 889 l 63 972 l 514 972 l 514 889 l 435 875 q 398 858 406 869 q 390 806 390 846 l 390 163 q 398 115 390 126 q 435 97 406 103 l 514 83 l 514 0 l 63 0 z "},"ī":{"ha":490,"x_min":-6,"x_max":463,"o":"m -6 871 l -6 999 l 425 999 l 425 871 l -6 871 m 44 0 l 44 83 l 117 96 q 151 113 143 100 q 158 158 158 125 l 158 531 q 150 594 158 579 q 108 613 142 608 l 43 622 l 53 707 l 340 724 l 357 717 l 357 158 q 364 115 357 125 q 396 97 371 104 l 463 82 l 463 0 l 44 0 z "},"Ĭ":{"ha":576,"x_min":56,"x_max":522,"o":"m 285 1044 q 56 1299 79 1044 l 133 1321 q 288 1192 178 1192 q 443 1317 397 1192 l 522 1297 q 449 1118 513 1192 q 285 1044 386 1044 m 63 0 l 63 83 l 133 96 q 177 113 169 101 q 185 168 185 125 l 185 804 q 177 859 185 847 q 133 876 169 871 l 63 889 l 63 972 l 514 972 l 514 889 l 435 875 q 398 858 406 869 q 390 806 390 846 l 390 163 q 398 115 390 126 q 435 97 406 103 l 514 83 l 514 0 l 63 0 z "},"ĭ":{"ha":490,"x_min":-28,"x_max":463,"o":"m 204 815 q 41 888 99 815 q -28 1086 -17 960 l 50 1103 q 214 961 99 961 q 311 995 275 961 q 369 1099 347 1029 l 449 1086 q 374 892 436 968 q 204 815 311 815 m 44 0 l 44 83 l 117 96 q 151 113 143 100 q 158 158 158 125 l 158 531 q 150 594 158 579 q 108 613 142 608 l 43 622 l 53 707 l 340 724 l 357 717 l 357 158 q 364 115 357 125 q 396 97 371 104 l 463 82 l 463 0 l 44 0 z "},"Į":{"ha":576,"x_min":63,"x_max":514,"o":"m 435 875 q 398 858 406 869 q 390 806 390 846 l 390 163 q 398 115 390 126 q 435 97 406 103 l 514 83 l 514 0 l 385 0 q 307 -94 336 -46 q 278 -175 278 -143 q 331 -228 278 -228 q 400 -206 361 -228 l 432 -267 q 263 -332 360 -332 q 153 -295 189 -332 q 117 -206 117 -258 q 281 0 117 -103 l 63 0 l 63 83 l 133 96 q 177 113 169 101 q 185 168 185 125 l 185 804 q 177 859 185 847 q 133 876 169 871 l 63 889 l 63 972 l 514 972 l 514 889 l 435 875 z "},"į":{"ha":490,"x_min":43,"x_max":463,"o":"m 330 885 q 311 868 330 885 q 233 851 293 851 q 138 884 174 851 q 101 972 101 917 q 138 1060 101 1026 q 233 1093 174 1093 q 331 1060 296 1093 q 367 972 367 1028 q 330 885 367 918 m 353 0 q 275 -94 304 -46 q 246 -175 246 -143 q 299 -228 246 -228 q 368 -206 329 -228 l 400 -267 q 231 -332 328 -332 q 121 -295 157 -332 q 85 -206 85 -258 q 249 0 85 -103 l 44 0 l 44 83 l 117 96 q 151 113 143 100 q 158 158 158 125 l 158 531 q 150 594 158 579 q 108 613 142 608 l 43 622 l 53 707 l 340 724 l 357 717 l 357 158 q 364 115 357 125 q 396 97 371 104 l 463 82 l 463 0 l 353 0 z "},"İ":{"ha":576,"x_min":63,"x_max":514,"o":"m 384 1096 q 366 1079 384 1096 q 288 1063 347 1063 q 192 1095 228 1063 q 156 1183 156 1128 q 192 1271 156 1238 q 288 1304 228 1304 q 385 1272 350 1304 q 421 1183 421 1239 q 384 1096 421 1129 m 63 0 l 63 83 l 133 96 q 177 113 169 101 q 185 168 185 125 l 185 804 q 177 859 185 847 q 133 876 169 871 l 63 889 l 63 972 l 514 972 l 514 889 l 435 875 q 398 858 406 869 q 390 806 390 846 l 390 163 q 398 115 390 126 q 435 97 406 103 l 514 83 l 514 0 l 63 0 z "},"ı":{"ha":490,"x_min":43,"x_max":463,"o":"m 44 0 l 44 83 l 117 96 q 151 113 143 100 q 158 158 158 125 l 158 531 q 150 594 158 579 q 108 613 142 608 l 43 622 l 53 707 l 340 724 l 357 717 l 357 158 q 364 115 357 125 q 396 97 371 104 l 463 82 l 463 0 l 44 0 z "},"Ĵ":{"ha":776,"x_min":56,"x_max":783,"o":"m 329 1033 l 283 1092 l 458 1283 q 533 1326 497 1326 q 615 1279 575 1326 l 783 1093 l 738 1033 l 533 1151 l 329 1033 m 321 -19 q 131 31 206 -19 q 56 168 56 81 q 87 255 56 219 q 168 290 118 290 q 238 269 214 290 q 263 217 263 247 q 218 110 263 183 q 319 76 251 76 q 415 120 392 76 q 438 258 438 164 l 438 811 q 429 858 438 844 q 392 876 421 871 l 304 890 l 304 972 l 746 972 l 746 889 l 682 874 q 654 860 663 869 q 644 841 646 851 q 643 806 643 831 l 643 269 q 563 65 643 149 q 321 -19 483 -19 z "},"ĵ":{"ha":435,"x_min":-51,"x_max":449,"o":"m -4 806 l -51 857 l 117 1067 q 199 1114 156 1114 q 243 1102 226 1114 q 289 1056 260 1090 l 449 857 l 401 806 l 199 942 l -4 806 m 82 -318 l 15 -247 q 109 -124 82 -194 q 136 53 136 -53 l 136 531 q 128 593 136 579 q 88 613 121 607 l 21 622 l 31 707 l 318 724 l 335 717 l 335 132 q 272 -148 335 -47 q 82 -318 210 -249 z "},"Ķ":{"ha":1078,"x_min":68,"x_max":1096,"o":"m 928 -19 q 706 111 786 -19 l 508 429 l 396 315 l 396 163 q 403 109 396 117 q 432 97 411 101 l 511 83 l 511 0 l 68 0 l 68 83 l 147 97 q 183 115 176 103 q 190 161 190 128 l 190 810 q 183 858 190 846 q 147 875 176 869 l 68 889 l 68 972 l 519 972 l 519 889 l 435 874 q 408 861 417 871 q 397 840 399 851 q 396 804 396 829 l 396 463 l 736 813 q 751 858 757 840 q 721 878 746 875 l 654 888 l 668 972 l 1019 972 l 1019 886 l 974 876 q 933 860 949 871 q 885 814 918 849 l 646 568 l 871 215 q 948 128 914 149 q 1022 107 982 107 q 1078 118 1044 107 l 1096 39 q 928 -19 1032 -19 m 504 -406 l 453 -347 q 532 -243 519 -299 l 517 -243 q 447 -172 447 -243 q 478 -102 447 -126 q 556 -78 508 -78 q 638 -106 607 -78 q 669 -189 669 -135 q 628 -303 669 -244 q 504 -406 586 -362 z "},"ķ":{"ha":900,"x_min":35,"x_max":914,"o":"m 894 108 l 914 39 q 841 -3 886 13 q 757 -19 796 -19 q 646 6 693 -19 q 550 96 599 31 l 349 368 l 349 157 q 356 110 349 122 q 388 92 363 97 l 431 82 l 431 0 l 47 0 l 47 83 l 108 94 q 142 112 135 100 q 150 157 150 124 l 150 883 q 141 935 150 922 q 97 956 132 949 l 35 968 l 46 1056 l 333 1064 l 349 1049 l 349 414 l 525 571 q 528 613 561 604 l 464 631 l 478 713 l 824 713 l 824 629 l 782 621 q 711 585 746 614 l 519 426 l 724 176 q 784 114 760 131 q 839 97 808 97 q 894 108 864 97 m 454 -76 q 537 -105 506 -76 q 568 -187 568 -133 q 526 -302 568 -243 q 403 -404 485 -361 l 351 -346 q 431 -242 418 -297 l 415 -242 q 346 -171 346 -242 q 376 -101 346 -125 q 454 -76 407 -76 z "},"ĸ":{"ha":900,"x_min":35,"x_max":914,"o":"m 894 108 l 914 39 q 841 -3 886 13 q 757 -19 796 -19 q 647 6 693 -19 q 550 96 600 31 l 349 363 l 349 157 q 356 110 349 122 q 388 92 363 97 l 431 82 l 431 0 l 47 0 l 47 83 l 108 94 q 142 112 135 100 q 150 157 150 124 l 150 531 q 142 594 150 579 q 100 613 133 608 l 35 622 l 44 707 l 332 724 l 349 717 l 349 408 l 525 571 q 528 613 561 604 l 464 631 l 478 713 l 824 713 l 824 629 l 782 621 q 711 585 746 614 l 519 426 l 724 176 q 784 114 760 131 q 839 97 808 97 q 894 108 864 97 z "},"Ĺ":{"ha":874,"x_min":68,"x_max":832,"o":"m 185 1043 l 147 1103 l 346 1279 q 406 1310 381 1310 q 462 1283 440 1310 q 483 1222 483 1256 q 467 1169 483 1188 q 414 1135 451 1150 l 185 1043 m 68 0 l 68 83 l 142 97 q 178 115 171 103 q 185 168 185 128 l 185 810 q 183 844 185 835 q 172 863 181 854 q 140 875 163 871 l 68 889 l 68 972 l 526 972 l 526 888 l 436 875 q 399 858 407 869 q 390 814 390 847 l 390 97 l 511 97 q 643 142 599 97 q 726 315 688 188 l 832 315 l 793 0 l 68 0 z "},"ĺ":{"ha":482,"x_min":35,"x_max":450,"o":"m 85 1115 l 47 1175 l 246 1351 q 306 1382 281 1382 q 362 1355 340 1382 q 383 1294 383 1328 q 367 1241 383 1260 q 314 1207 351 1222 l 85 1115 m 47 0 l 47 83 l 108 94 q 142 112 135 100 q 150 157 150 124 l 150 883 q 141 935 150 922 q 97 956 132 949 l 35 968 l 46 1056 l 333 1064 l 349 1049 l 349 157 q 356 113 349 124 q 388 96 363 103 l 450 82 l 450 0 l 47 0 z "},"Ļ":{"ha":874,"x_min":68,"x_max":832,"o":"m 68 0 l 68 83 l 142 97 q 178 115 171 103 q 185 168 185 128 l 185 810 q 183 844 185 835 q 172 863 181 854 q 140 875 163 871 l 68 889 l 68 972 l 526 972 l 526 888 l 436 875 q 399 858 407 869 q 390 814 390 847 l 390 97 l 511 97 q 643 142 599 97 q 726 315 688 188 l 832 315 l 793 0 l 68 0 m 406 -404 l 354 -346 q 433 -242 421 -297 l 418 -242 q 349 -171 349 -242 q 379 -101 349 -125 q 457 -76 410 -76 q 540 -105 508 -76 q 571 -187 571 -133 q 529 -302 571 -243 q 406 -404 488 -361 z "},"ļ":{"ha":482,"x_min":35,"x_max":450,"o":"m 47 0 l 47 83 l 108 94 q 142 112 135 100 q 150 157 150 124 l 150 883 q 141 935 150 922 q 97 956 132 949 l 35 968 l 46 1056 l 333 1064 l 349 1049 l 349 157 q 356 113 349 124 q 388 96 363 103 l 450 82 l 450 0 l 47 0 m 192 -407 l 140 -349 q 219 -244 207 -300 l 204 -244 q 135 -174 135 -244 q 165 -103 135 -128 q 243 -79 196 -79 q 326 -108 294 -79 q 357 -190 357 -136 q 315 -305 357 -246 q 192 -407 274 -364 z "},"Ľ":{"ha":874,"x_min":68,"x_max":832,"o":"m 649 722 l 593 768 q 653 911 653 861 q 622 956 653 931 q 589 1017 589 983 q 617 1077 589 1053 q 692 1101 644 1101 q 765 1069 738 1101 q 793 992 793 1038 q 758 864 793 936 q 649 722 724 792 m 68 0 l 68 83 l 142 97 q 178 115 171 103 q 185 168 185 128 l 185 810 q 183 844 185 835 q 172 863 181 854 q 140 875 163 871 l 68 889 l 68 972 l 526 972 l 526 888 l 436 875 q 399 858 407 869 q 390 814 390 847 l 390 97 l 511 97 q 643 142 599 97 q 726 315 688 188 l 832 315 l 793 0 l 68 0 z "},"ľ":{"ha":615,"x_min":35,"x_max":608,"o":"m 464 688 l 408 733 q 468 876 468 826 q 438 921 468 896 q 404 982 404 949 q 432 1042 404 1018 q 507 1067 460 1067 q 581 1035 553 1067 q 608 957 608 1003 q 574 829 608 901 q 464 688 539 757 m 47 0 l 47 83 l 108 94 q 142 112 135 100 q 150 157 150 124 l 150 883 q 141 935 150 922 q 97 956 132 949 l 35 968 l 46 1056 l 333 1064 l 349 1049 l 349 157 q 356 113 349 124 q 388 96 363 103 l 450 82 l 450 0 l 47 0 z "},"Ŀ":{"ha":874,"x_min":68,"x_max":836,"o":"m 68 0 l 68 83 l 142 97 q 178 115 171 103 q 185 168 185 128 l 185 810 q 183 844 185 835 q 172 863 181 854 q 140 875 163 871 l 68 889 l 68 972 l 526 972 l 526 888 l 436 875 q 399 858 407 869 q 390 814 390 847 l 390 97 l 511 97 q 643 142 599 97 q 726 315 688 188 l 832 315 l 793 0 l 68 0 m 799 454 q 781 438 799 454 q 703 421 763 421 q 607 453 643 421 q 571 542 571 486 q 607 629 571 596 q 703 663 643 663 q 801 630 765 663 q 836 542 836 597 q 799 454 836 488 z "},"ŀ":{"ha":579,"x_min":35,"x_max":663,"o":"m 47 0 l 47 83 l 108 94 q 142 112 135 100 q 150 157 150 124 l 150 883 q 141 935 150 922 q 97 956 132 949 l 35 968 l 46 1056 l 333 1064 l 349 1049 l 349 157 q 356 113 349 124 q 388 96 363 103 l 450 82 l 450 0 l 47 0 m 536 444 q 447 476 481 444 q 413 558 413 507 q 447 641 413 610 q 536 672 481 672 q 629 642 596 672 q 663 558 663 611 q 628 476 663 507 q 536 444 593 444 z "},"Ł":{"ha":874,"x_min":39,"x_max":832,"o":"m 726 315 l 832 315 l 793 0 l 68 0 l 68 83 l 142 97 q 178 115 171 103 q 185 168 185 128 l 185 369 l 39 296 l 39 424 l 185 497 l 185 810 q 183 844 185 835 q 172 863 181 854 q 140 875 163 871 l 68 889 l 68 972 l 526 972 l 526 888 l 436 875 q 399 858 407 869 q 390 814 390 847 l 390 575 l 629 704 l 629 578 l 390 450 l 390 97 l 511 97 q 643 142 599 97 q 726 315 688 188 z "},"ł":{"ha":533,"x_min":28,"x_max":497,"o":"m 497 614 l 364 542 l 364 157 q 371 113 364 124 q 403 96 378 103 l 465 82 l 465 0 l 63 0 l 63 83 l 124 94 q 158 112 150 100 q 165 157 165 124 l 165 464 l 28 394 l 28 525 l 165 592 l 165 883 q 156 935 165 922 q 113 956 147 949 l 50 968 l 61 1056 l 349 1064 l 364 1049 l 364 671 l 497 743 l 497 614 z "},"Ń":{"ha":1132,"x_min":69,"x_max":1086,"o":"m 472 1043 l 435 1103 l 633 1279 q 693 1310 668 1310 q 749 1283 728 1310 q 771 1222 771 1256 q 755 1169 771 1188 q 701 1135 739 1150 l 472 1043 m 69 0 l 69 83 l 144 97 q 179 115 172 103 q 186 167 186 128 l 186 811 q 179 858 186 846 q 143 875 172 869 l 69 889 l 69 972 l 400 972 l 840 238 l 844 238 l 844 811 q 838 858 844 846 q 801 875 831 869 l 728 889 l 728 972 l 1086 972 l 1086 889 l 1011 875 q 976 856 983 869 q 969 806 969 843 l 969 0 l 757 0 l 317 735 l 311 735 l 311 161 q 319 115 311 128 q 356 97 326 103 l 428 83 l 428 0 l 69 0 z "},"ń":{"ha":928,"x_min":35,"x_max":903,"o":"m 394 806 l 349 854 l 514 1067 q 568 1107 544 1107 q 638 1078 613 1107 q 663 1019 663 1050 q 611 939 663 969 l 394 806 m 47 0 l 47 83 l 114 96 q 144 114 139 100 q 150 163 150 128 l 150 526 q 142 591 150 575 q 103 613 133 607 l 35 622 l 44 707 l 307 722 l 324 713 l 333 589 l 338 589 q 383 657 361 631 q 454 708 406 683 q 568 732 503 732 q 746 669 697 732 q 794 494 794 606 l 794 151 q 802 111 794 122 q 838 94 810 100 l 903 83 l 903 0 l 504 0 l 504 82 l 554 93 q 588 110 581 99 q 596 151 596 121 l 596 429 q 576 552 596 514 q 492 590 556 590 q 349 410 349 590 l 349 157 q 355 115 349 126 q 383 97 361 103 l 442 82 l 442 0 l 47 0 z "},"Ņ":{"ha":1132,"x_min":69,"x_max":1086,"o":"m 69 0 l 69 83 l 144 97 q 179 115 172 103 q 186 167 186 128 l 186 811 q 179 858 186 846 q 143 875 172 869 l 69 889 l 69 972 l 400 972 l 840 238 l 844 238 l 844 811 q 838 858 844 846 q 801 875 831 869 l 728 889 l 728 972 l 1086 972 l 1086 889 l 1011 875 q 976 856 983 869 q 969 806 969 843 l 969 0 l 757 0 l 317 735 l 311 735 l 311 161 q 319 115 311 128 q 356 97 326 103 l 428 83 l 428 0 l 69 0 m 511 -406 l 460 -347 q 539 -243 526 -299 l 524 -243 q 454 -172 454 -243 q 485 -102 454 -126 q 563 -78 515 -78 q 645 -106 614 -78 q 676 -189 676 -135 q 635 -303 676 -244 q 511 -406 593 -362 z "},"ņ":{"ha":928,"x_min":35,"x_max":903,"o":"m 47 0 l 47 83 l 114 96 q 144 114 139 100 q 150 163 150 128 l 150 526 q 142 591 150 575 q 103 613 133 607 l 35 622 l 44 707 l 307 722 l 324 713 l 333 589 l 338 589 q 383 657 361 631 q 454 708 406 683 q 568 732 503 732 q 746 669 697 732 q 794 494 794 606 l 794 151 q 802 111 794 122 q 838 94 810 100 l 903 83 l 903 0 l 504 0 l 504 82 l 554 93 q 588 110 581 99 q 596 151 596 121 l 596 429 q 576 552 596 514 q 492 590 556 590 q 349 410 349 590 l 349 157 q 355 115 349 126 q 383 97 361 103 l 442 82 l 442 0 l 47 0 m 414 -406 l 363 -347 q 442 -243 429 -299 l 426 -243 q 357 -172 357 -243 q 388 -102 357 -126 q 465 -78 418 -78 q 548 -106 517 -78 q 579 -189 579 -135 q 538 -303 579 -244 q 414 -406 496 -362 z "},"Ň":{"ha":1132,"x_min":69,"x_max":1086,"o":"m 578 1044 q 496 1092 536 1044 l 328 1278 l 374 1338 l 578 1219 l 782 1338 l 828 1279 l 653 1088 q 578 1044 614 1044 m 69 0 l 69 83 l 144 97 q 179 115 172 103 q 186 167 186 128 l 186 811 q 179 858 186 846 q 143 875 172 869 l 69 889 l 69 972 l 400 972 l 840 238 l 844 238 l 844 811 q 838 858 844 846 q 801 875 831 869 l 728 889 l 728 972 l 1086 972 l 1086 889 l 1011 875 q 976 856 983 869 q 969 806 969 843 l 969 0 l 757 0 l 317 735 l 311 735 l 311 161 q 319 115 311 128 q 356 97 326 103 l 428 83 l 428 0 l 69 0 z "},"ň":{"ha":928,"x_min":35,"x_max":903,"o":"m 469 806 q 425 817 442 806 q 379 864 408 829 l 219 1063 l 267 1114 l 469 978 l 672 1114 l 719 1063 l 551 853 q 469 806 513 806 m 47 0 l 47 83 l 114 96 q 144 114 139 100 q 150 163 150 128 l 150 526 q 142 591 150 575 q 103 613 133 607 l 35 622 l 44 707 l 307 722 l 324 713 l 333 589 l 338 589 q 383 657 361 631 q 454 708 406 683 q 568 732 503 732 q 746 669 697 732 q 794 494 794 606 l 794 151 q 802 111 794 122 q 838 94 810 100 l 903 83 l 903 0 l 504 0 l 504 82 l 554 93 q 588 110 581 99 q 596 151 596 121 l 596 429 q 576 552 596 514 q 492 590 556 590 q 349 410 349 590 l 349 157 q 355 115 349 126 q 383 97 361 103 l 442 82 l 442 0 l 47 0 z "},"ŉ":{"ha":1033,"x_min":-56,"x_max":1008,"o":"m -1 667 l -51 722 q 25 821 11 768 l 10 821 q -56 889 -56 821 q -26 956 -56 933 q 47 979 3 979 q 126 952 97 979 q 156 872 156 925 q 116 765 156 821 q -1 667 76 708 m 153 0 l 153 83 l 219 96 q 250 114 244 100 q 256 163 256 128 l 256 526 q 247 591 256 575 q 208 613 239 607 l 140 622 l 150 707 l 413 722 l 429 713 l 439 589 l 443 589 q 489 657 467 631 q 560 708 511 683 q 674 732 608 732 q 851 669 803 732 q 900 494 900 606 l 900 151 q 908 111 900 122 q 943 94 915 100 l 1008 83 l 1008 0 l 610 0 l 610 82 l 660 93 q 694 110 686 99 q 701 151 701 121 l 701 429 q 681 552 701 514 q 597 590 661 590 q 454 410 454 590 l 454 157 q 460 115 454 126 q 489 97 467 103 l 547 82 l 547 0 l 153 0 z "},"Ŋ":{"ha":1132,"x_min":69,"x_max":1086,"o":"m 1086 972 l 1086 889 l 1011 875 q 976 856 983 869 q 969 806 969 843 l 969 132 q 907 -148 969 -47 q 717 -318 844 -249 l 650 -247 q 738 -140 710 -200 q 769 7 765 -79 l 317 735 l 311 735 l 311 161 q 319 115 311 128 q 356 97 326 103 l 428 83 l 428 0 l 69 0 l 69 83 l 144 97 q 179 115 172 103 q 186 167 186 128 l 186 811 q 179 858 186 846 q 143 875 172 869 l 69 889 l 69 972 l 400 972 l 840 265 l 844 265 l 844 811 q 838 858 844 846 q 801 875 831 869 l 728 889 l 728 972 l 1086 972 z "},"ŋ":{"ha":892,"x_min":35,"x_max":794,"o":"m 568 732 q 746 669 697 732 q 794 494 794 606 l 794 132 q 732 -148 794 -47 q 542 -318 669 -249 l 475 -247 q 569 -124 542 -194 q 596 53 596 -53 l 596 429 q 576 552 596 514 q 492 590 556 590 q 349 410 349 590 l 349 157 q 355 115 349 126 q 383 97 361 103 l 442 82 l 442 0 l 47 0 l 47 83 l 114 96 q 144 114 139 100 q 150 163 150 128 l 150 526 q 142 591 150 575 q 103 613 133 607 l 35 622 l 44 707 l 307 722 l 324 713 l 333 589 l 338 589 q 383 657 361 631 q 454 708 406 683 q 568 732 503 732 z "},"Ō":{"ha":1072,"x_min":64,"x_max":1007,"o":"m 314 1103 l 314 1233 l 767 1233 l 767 1103 l 314 1103 m 535 -19 q 183 115 303 -19 q 64 468 64 250 q 201 860 64 728 q 550 992 338 992 q 879 867 751 992 q 1007 511 1007 743 q 883 129 1007 278 q 535 -19 760 -19 m 547 97 q 729 194 665 97 q 793 486 793 290 q 724 771 793 665 q 528 876 654 876 q 281 496 281 876 q 347 205 281 313 q 547 97 414 97 z "},"ō":{"ha":825,"x_min":47,"x_max":778,"o":"m 193 871 l 193 999 l 624 999 l 624 871 l 193 871 m 407 -19 q 139 78 231 -19 q 47 335 47 176 q 153 633 47 535 q 426 732 258 732 q 682 640 586 732 q 778 378 778 549 q 678 85 778 190 q 407 -19 579 -19 m 426 90 q 567 344 567 90 q 404 626 567 626 q 257 385 257 626 q 426 90 257 90 z "},"Ŏ":{"ha":1072,"x_min":64,"x_max":1007,"o":"m 538 1044 q 308 1299 332 1044 l 386 1321 q 540 1192 431 1192 q 696 1317 650 1192 l 775 1297 q 702 1118 765 1192 q 538 1044 639 1044 m 535 -19 q 183 115 303 -19 q 64 468 64 250 q 201 860 64 728 q 550 992 338 992 q 879 867 751 992 q 1007 511 1007 743 q 883 129 1007 278 q 535 -19 760 -19 m 547 97 q 729 194 665 97 q 793 486 793 290 q 724 771 793 665 q 528 876 654 876 q 281 496 281 876 q 347 205 281 313 q 547 97 414 97 z "},"ŏ":{"ha":825,"x_min":47,"x_max":778,"o":"m 403 815 q 240 888 297 815 q 171 1086 182 960 l 249 1103 q 413 961 297 961 q 510 995 474 961 q 568 1099 546 1029 l 647 1086 q 572 892 635 968 q 403 815 510 815 m 407 -19 q 139 78 231 -19 q 47 335 47 176 q 153 633 47 535 q 426 732 258 732 q 682 640 586 732 q 778 378 778 549 q 678 85 778 190 q 407 -19 579 -19 m 426 90 q 567 344 567 90 q 404 626 567 626 q 257 385 257 626 q 426 90 257 90 z "},"Ő":{"ha":1072,"x_min":64,"x_max":1007,"o":"m 383 1043 l 343 1094 l 501 1290 q 565 1328 532 1328 q 619 1301 599 1328 q 639 1236 639 1274 q 579 1158 639 1193 l 383 1043 m 631 1043 l 596 1097 l 769 1274 q 828 1306 801 1306 q 881 1281 863 1306 q 899 1222 899 1256 q 883 1169 899 1189 q 831 1133 867 1150 l 631 1043 m 535 -19 q 183 115 303 -19 q 64 468 64 250 q 201 860 64 728 q 550 992 338 992 q 879 867 751 992 q 1007 511 1007 743 q 883 129 1007 278 q 535 -19 760 -19 m 547 97 q 729 194 665 97 q 793 486 793 290 q 724 771 793 665 q 528 876 654 876 q 281 496 281 876 q 347 205 281 313 q 547 97 414 97 z "},"ő":{"ha":825,"x_min":47,"x_max":778,"o":"m 282 806 l 239 853 l 388 1071 q 446 1111 414 1111 q 498 1088 481 1111 q 515 1035 515 1065 q 468 953 515 988 l 282 806 m 514 806 l 471 853 l 633 1065 q 694 1106 664 1106 q 745 1082 728 1106 q 763 1026 763 1058 q 711 943 763 976 l 514 806 m 407 -19 q 139 78 231 -19 q 47 335 47 176 q 153 633 47 535 q 426 732 258 732 q 682 640 586 732 q 778 378 778 549 q 678 85 778 190 q 407 -19 579 -19 m 426 90 q 567 344 567 90 q 404 626 567 626 q 257 385 257 626 q 426 90 257 90 z "},"Œ":{"ha":1457,"x_min":64,"x_max":1414,"o":"m 511 -19 q 181 117 299 -19 q 64 469 64 254 q 101 705 64 601 q 203 869 139 808 q 345 961 267 931 q 513 992 424 992 q 786 890 676 992 l 786 972 l 1325 972 l 1378 739 l 1288 715 q 1212 846 1251 817 q 1081 875 1172 875 l 953 875 l 953 543 l 1024 543 q 1058 543 1044 543 q 1083 546 1071 543 q 1103 549 1096 549 q 1117 558 1110 550 q 1127 567 1125 565 q 1134 583 1129 568 q 1140 601 1139 597 q 1147 627 1142 606 q 1153 658 1151 649 l 1233 668 l 1233 344 l 1153 331 q 1142 392 1146 376 q 1128 424 1139 407 q 1099 444 1117 442 q 1047 449 1082 447 l 953 449 l 953 97 l 1117 97 q 1254 124 1219 97 q 1318 261 1289 151 l 1414 261 l 1381 0 l 786 0 l 786 92 q 511 -19 678 -19 m 531 97 q 706 194 642 97 q 769 488 769 292 q 703 772 769 667 q 513 876 638 876 q 342 780 403 876 q 281 497 281 683 q 345 206 281 315 q 531 97 410 97 z "},"œ":{"ha":1240,"x_min":47,"x_max":1201,"o":"m 399 -19 q 138 79 228 -19 q 47 335 47 178 q 151 633 47 535 q 413 732 254 732 q 672 614 585 732 q 928 732 763 732 q 1120 661 1047 732 q 1193 467 1193 590 q 1175 325 1193 389 l 761 325 q 811 178 763 231 q 942 126 860 126 q 1140 204 1043 126 l 1201 138 q 897 -19 1078 -19 q 653 99 733 -19 q 399 -19 560 -19 m 761 431 l 997 431 q 1001 504 1001 458 q 975 602 1001 574 q 897 631 949 631 q 799 576 832 631 q 761 431 765 521 m 426 90 q 567 344 567 90 q 404 626 567 626 q 257 385 257 626 q 426 90 257 90 z "},"Ŕ":{"ha":999,"x_min":68,"x_max":992,"o":"m 374 1043 l 336 1103 l 535 1279 q 594 1310 569 1310 q 651 1283 629 1310 q 672 1222 672 1256 q 656 1169 672 1188 q 603 1135 640 1150 l 374 1043 m 826 -19 q 690 19 731 -19 q 604 160 649 58 l 535 318 q 482 408 504 386 q 410 431 460 431 q 390 428 401 431 l 390 165 q 401 115 390 129 q 443 96 411 100 l 518 85 l 518 0 l 68 0 l 68 85 l 143 97 q 178 117 171 101 q 186 168 186 133 l 186 810 q 178 857 186 844 q 140 875 169 869 l 68 888 l 68 972 l 521 972 q 847 732 847 972 q 822 630 847 676 q 758 554 797 583 q 677 508 718 525 q 594 482 636 490 l 594 478 q 690 427 656 461 q 749 338 725 393 l 796 226 q 828 153 818 174 q 860 113 839 132 q 906 93 881 93 q 974 104 940 93 l 992 39 q 826 -19 926 -19 m 428 522 q 584 575 535 522 q 633 713 633 628 q 449 875 633 875 l 392 875 l 392 525 q 428 522 406 522 z "},"ŕ":{"ha":728,"x_min":35,"x_max":714,"o":"m 304 806 l 258 854 l 424 1067 q 478 1107 454 1107 q 547 1078 522 1107 q 572 1019 572 1050 q 521 939 572 969 l 304 806 m 47 0 l 47 83 l 114 96 q 144 115 138 100 q 150 163 150 129 l 150 526 q 142 591 150 575 q 103 613 133 607 l 35 622 l 44 707 l 306 722 l 322 713 l 332 594 l 336 594 q 547 732 410 732 q 667 693 619 732 q 714 582 714 654 q 685 492 714 525 q 600 460 656 460 q 528 479 554 460 q 503 529 503 499 q 535 617 503 558 q 404 567 460 629 q 349 407 349 504 l 349 160 q 354 116 349 128 q 383 100 360 104 l 503 82 l 503 0 l 47 0 z "},"Ŗ":{"ha":999,"x_min":68,"x_max":992,"o":"m 826 -19 q 690 19 731 -19 q 604 160 649 58 l 535 318 q 482 408 504 386 q 410 431 460 431 q 390 428 401 431 l 390 165 q 401 115 390 129 q 443 96 411 100 l 518 85 l 518 0 l 68 0 l 68 85 l 143 97 q 178 117 171 101 q 186 168 186 133 l 186 810 q 178 857 186 844 q 140 875 169 869 l 68 888 l 68 972 l 521 972 q 847 732 847 972 q 822 630 847 676 q 758 554 797 583 q 677 508 718 525 q 594 482 636 490 l 594 478 q 690 427 656 461 q 749 338 725 393 l 796 226 q 828 153 818 174 q 860 113 839 132 q 906 93 881 93 q 974 104 940 93 l 992 39 q 826 -19 926 -19 m 428 522 q 584 575 535 522 q 633 713 633 628 q 449 875 633 875 l 392 875 l 392 525 q 428 522 406 522 m 450 -406 l 399 -347 q 478 -243 465 -299 l 463 -243 q 393 -172 393 -243 q 424 -102 393 -126 q 501 -78 454 -78 q 584 -106 553 -78 q 615 -189 615 -135 q 574 -303 615 -244 q 450 -406 532 -362 z "},"ŗ":{"ha":728,"x_min":35,"x_max":714,"o":"m 47 0 l 47 83 l 114 96 q 144 115 138 100 q 150 163 150 129 l 150 526 q 142 591 150 575 q 103 613 133 607 l 35 622 l 44 707 l 306 722 l 322 713 l 332 594 l 336 594 q 547 732 410 732 q 667 693 619 732 q 714 582 714 654 q 685 492 714 525 q 600 460 656 460 q 528 479 554 460 q 503 529 503 499 q 535 617 503 558 q 404 567 460 629 q 349 407 349 504 l 349 160 q 354 116 349 128 q 383 100 360 104 l 503 82 l 503 0 l 47 0 m 206 -406 l 154 -347 q 233 -243 221 -299 l 218 -243 q 149 -172 149 -243 q 179 -102 149 -126 q 257 -78 210 -78 q 340 -106 308 -78 q 371 -189 371 -135 q 329 -303 371 -244 q 206 -406 288 -362 z "},"Ř":{"ha":999,"x_min":68,"x_max":992,"o":"m 451 1044 q 369 1092 410 1044 l 201 1278 l 247 1338 l 451 1219 l 656 1338 l 701 1279 l 526 1088 q 451 1044 488 1044 m 826 -19 q 690 19 731 -19 q 604 160 649 58 l 535 318 q 482 408 504 386 q 410 431 460 431 q 390 428 401 431 l 390 165 q 401 115 390 129 q 443 96 411 100 l 518 85 l 518 0 l 68 0 l 68 85 l 143 97 q 178 117 171 101 q 186 168 186 133 l 186 810 q 178 857 186 844 q 140 875 169 869 l 68 888 l 68 972 l 521 972 q 847 732 847 972 q 822 630 847 676 q 758 554 797 583 q 677 508 718 525 q 594 482 636 490 l 594 478 q 690 427 656 461 q 749 338 725 393 l 796 226 q 828 153 818 174 q 860 113 839 132 q 906 93 881 93 q 974 104 940 93 l 992 39 q 826 -19 926 -19 m 428 522 q 584 575 535 522 q 633 713 633 628 q 449 875 633 875 l 392 875 l 392 525 q 428 522 406 522 z "},"ř":{"ha":728,"x_min":35,"x_max":714,"o":"m 379 806 q 335 817 351 806 q 289 864 318 829 l 129 1063 l 176 1114 l 379 978 l 582 1114 l 629 1063 l 461 853 q 379 806 422 806 m 47 0 l 47 83 l 114 96 q 144 115 138 100 q 150 163 150 129 l 150 526 q 142 591 150 575 q 103 613 133 607 l 35 622 l 44 707 l 306 722 l 322 713 l 332 594 l 336 594 q 547 732 410 732 q 667 693 619 732 q 714 582 714 654 q 685 492 714 525 q 600 460 656 460 q 528 479 554 460 q 503 529 503 499 q 535 617 503 558 q 404 567 460 629 q 349 407 349 504 l 349 160 q 354 116 349 128 q 383 100 360 104 l 503 82 l 503 0 l 47 0 z "},"Ś":{"ha":822,"x_min":58,"x_max":768,"o":"m 317 1043 l 279 1103 l 478 1279 q 538 1310 513 1310 q 594 1283 572 1310 q 615 1222 615 1256 q 599 1169 615 1188 q 546 1135 583 1150 l 317 1043 m 435 -19 q 302 3 371 -19 q 190 60 233 25 l 171 -8 l 82 -8 l 58 274 l 161 288 q 258 151 196 203 q 408 99 319 99 q 532 139 494 99 q 569 233 569 179 q 520 331 569 296 q 364 400 471 365 q 152 513 221 447 q 83 701 83 578 q 164 904 83 817 q 403 992 244 992 q 615 922 526 992 l 633 992 l 717 992 l 747 697 l 644 679 q 418 879 578 879 q 314 846 354 879 q 274 750 274 813 q 276 723 274 736 q 283 699 279 710 q 297 679 288 689 q 312 663 306 669 q 333 647 318 656 q 357 633 349 638 q 385 619 365 628 q 415 606 406 610 q 449 592 425 601 q 485 578 474 582 q 663 493 618 524 q 768 283 768 419 q 672 63 768 146 q 435 -19 575 -19 z "},"ś":{"ha":667,"x_min":63,"x_max":628,"o":"m 268 806 l 222 854 l 388 1067 q 442 1107 418 1107 q 511 1078 486 1107 q 536 1019 536 1050 q 485 939 536 969 l 268 806 m 85 -19 l 63 228 l 165 235 q 356 88 218 88 q 432 112 404 88 q 460 176 460 136 q 431 233 460 211 q 358 265 401 256 q 264 289 315 274 q 169 324 213 304 q 97 390 126 344 q 68 501 68 435 q 142 667 68 603 q 339 732 215 732 q 496 689 439 732 l 507 732 l 588 732 l 603 490 l 500 497 q 336 638 460 638 q 265 616 289 638 q 240 561 240 594 q 280 498 240 521 q 376 462 319 475 q 491 428 433 449 q 588 357 549 408 q 628 222 628 306 q 558 51 628 122 q 353 -19 488 -19 q 176 26 249 -19 l 161 -19 l 85 -19 z "},"Ŝ":{"ha":822,"x_min":58,"x_max":768,"o":"m 214 1033 l 168 1092 l 343 1283 q 418 1326 382 1326 q 500 1279 460 1326 l 668 1093 l 622 1033 l 418 1151 l 214 1033 m 435 -19 q 302 3 371 -19 q 190 60 233 25 l 171 -8 l 82 -8 l 58 274 l 161 288 q 258 151 196 203 q 408 99 319 99 q 532 139 494 99 q 569 233 569 179 q 520 331 569 296 q 364 400 471 365 q 152 513 221 447 q 83 701 83 578 q 164 904 83 817 q 403 992 244 992 q 615 922 526 992 l 633 992 l 717 992 l 747 697 l 644 679 q 418 879 578 879 q 314 846 354 879 q 274 750 274 813 q 276 723 274 736 q 283 699 279 710 q 297 679 288 689 q 312 663 306 669 q 333 647 318 656 q 357 633 349 638 q 385 619 365 628 q 415 606 406 610 q 449 592 425 601 q 485 578 474 582 q 663 493 618 524 q 768 283 768 419 q 672 63 768 146 q 435 -19 575 -19 z "},"ŝ":{"ha":667,"x_min":63,"x_max":628,"o":"m 136 806 l 89 857 l 257 1067 q 339 1114 296 1114 q 383 1102 367 1114 q 429 1056 400 1090 l 589 857 l 542 806 l 339 942 l 136 806 m 85 -19 l 63 228 l 165 235 q 356 88 218 88 q 432 112 404 88 q 460 176 460 136 q 431 233 460 211 q 358 265 401 256 q 264 289 315 274 q 169 324 213 304 q 97 390 126 344 q 68 501 68 435 q 142 667 68 603 q 339 732 215 732 q 496 689 439 732 l 507 732 l 588 732 l 603 490 l 500 497 q 336 638 460 638 q 265 616 289 638 q 240 561 240 594 q 280 498 240 521 q 376 462 319 475 q 491 428 433 449 q 588 357 549 408 q 628 222 628 306 q 558 51 628 122 q 353 -19 488 -19 q 176 26 249 -19 l 161 -19 l 85 -19 z "},"Ş":{"ha":822,"x_min":58,"x_max":768,"o":"m 768 283 q 677 68 768 150 q 451 -19 586 -14 l 436 -62 q 555 -91 508 -56 q 601 -187 601 -126 q 551 -293 601 -256 q 422 -331 501 -331 q 326 -313 372 -331 q 257 -276 281 -296 l 286 -207 q 390 -233 339 -233 q 432 -220 415 -233 q 449 -182 449 -207 q 433 -144 449 -158 q 388 -129 418 -129 q 333 -135 361 -129 l 321 -99 l 356 -11 q 190 60 250 10 l 171 -8 l 82 -8 l 58 274 l 161 288 q 258 151 196 203 q 408 99 319 99 q 532 139 494 99 q 569 233 569 179 q 520 331 569 296 q 364 400 471 365 q 152 513 221 447 q 83 701 83 578 q 164 904 83 817 q 403 992 244 992 q 615 922 526 992 l 633 992 l 717 992 l 747 697 l 644 679 q 418 879 578 879 q 314 846 354 879 q 274 750 274 813 q 276 723 274 736 q 283 699 279 710 q 297 679 288 689 q 312 663 306 669 q 333 647 318 656 q 357 633 349 638 q 385 619 365 628 q 415 606 406 610 q 449 592 425 601 q 485 578 474 582 q 663 493 618 524 q 768 283 768 419 z "},"ş":{"ha":667,"x_min":63,"x_max":628,"o":"m 628 222 q 563 56 628 126 q 374 -19 499 -14 l 358 -62 q 477 -91 431 -56 q 524 -187 524 -126 q 474 -293 524 -256 q 344 -331 424 -331 q 249 -313 294 -331 q 179 -276 203 -296 l 208 -207 q 313 -233 261 -233 q 354 -220 338 -233 q 371 -182 371 -207 q 356 -144 371 -158 q 310 -129 340 -129 q 256 -135 283 -129 l 243 -99 l 276 -12 q 176 26 215 -1 l 161 -19 l 85 -19 l 63 228 l 165 235 q 356 88 218 88 q 432 112 404 88 q 460 176 460 136 q 431 233 460 211 q 358 265 401 256 q 264 289 315 274 q 169 324 213 304 q 97 390 126 344 q 68 501 68 435 q 142 667 68 603 q 339 732 215 732 q 496 689 439 732 l 507 732 l 588 732 l 603 490 l 500 497 q 336 638 460 638 q 265 616 289 638 q 240 561 240 594 q 280 498 240 521 q 376 462 319 475 q 491 428 433 449 q 588 357 549 408 q 628 222 628 306 z "},"Š":{"ha":822,"x_min":58,"x_max":768,"o":"m 422 1044 q 340 1092 381 1044 l 172 1278 l 218 1338 l 422 1219 l 626 1338 l 672 1279 l 497 1088 q 422 1044 458 1044 m 435 -19 q 302 3 371 -19 q 190 60 233 25 l 171 -8 l 82 -8 l 58 274 l 161 288 q 258 151 196 203 q 408 99 319 99 q 532 139 494 99 q 569 233 569 179 q 520 331 569 296 q 364 400 471 365 q 152 513 221 447 q 83 701 83 578 q 164 904 83 817 q 403 992 244 992 q 615 922 526 992 l 633 992 l 717 992 l 747 697 l 644 679 q 418 879 578 879 q 314 846 354 879 q 274 750 274 813 q 276 723 274 736 q 283 699 279 710 q 297 679 288 689 q 312 663 306 669 q 333 647 318 656 q 357 633 349 638 q 385 619 365 628 q 415 606 406 610 q 449 592 425 601 q 485 578 474 582 q 663 493 618 524 q 768 283 768 419 q 672 63 768 146 q 435 -19 575 -19 z "},"š":{"ha":667,"x_min":63,"x_max":628,"o":"m 343 806 q 299 817 315 806 q 253 864 282 829 l 93 1063 l 140 1114 l 343 978 l 546 1114 l 593 1063 l 425 853 q 343 806 386 806 m 85 -19 l 63 228 l 165 235 q 356 88 218 88 q 432 112 404 88 q 460 176 460 136 q 431 233 460 211 q 358 265 401 256 q 264 289 315 274 q 169 324 213 304 q 97 390 126 344 q 68 501 68 435 q 142 667 68 603 q 339 732 215 732 q 496 689 439 732 l 507 732 l 588 732 l 603 490 l 500 497 q 336 638 460 638 q 265 616 289 638 q 240 561 240 594 q 280 498 240 521 q 376 462 319 475 q 491 428 433 449 q 588 357 549 408 q 628 222 628 306 q 558 51 628 122 q 353 -19 488 -19 q 176 26 249 -19 l 161 -19 l 85 -19 z "},"Ţ":{"ha":1013,"x_min":38,"x_max":975,"o":"m 919 972 l 975 692 l 869 668 q 792 838 826 801 q 664 875 758 875 l 607 875 l 607 165 q 616 118 607 132 q 654 99 625 104 l 736 85 l 736 0 l 546 0 l 524 -62 q 642 -91 596 -56 q 689 -187 689 -126 q 639 -293 689 -256 q 510 -331 589 -331 q 414 -313 460 -331 q 344 -276 368 -296 l 374 -207 q 478 -233 426 -233 q 519 -220 503 -233 q 536 -182 536 -207 q 521 -144 536 -158 q 475 -129 506 -129 q 421 -135 449 -129 l 408 -99 l 447 0 l 272 0 l 272 85 l 356 99 q 392 119 383 103 q 401 171 401 136 l 401 875 l 367 875 q 226 838 264 875 q 142 664 188 801 l 38 688 l 93 972 l 919 972 z "},"ţ":{"ha":593,"x_min":35,"x_max":586,"o":"m 586 81 q 385 -18 501 -6 l 369 -62 q 488 -91 442 -56 q 535 -187 535 -126 q 485 -293 535 -256 q 356 -331 435 -331 q 260 -313 306 -331 q 190 -276 214 -296 l 219 -207 q 324 -233 272 -233 q 365 -220 349 -233 q 382 -182 382 -207 q 367 -144 382 -158 q 321 -129 351 -129 q 267 -135 294 -129 l 254 -99 l 288 -14 q 138 189 138 18 l 138 604 l 35 604 l 35 696 q 158 757 124 707 q 203 949 192 807 l 315 961 l 336 951 l 336 713 l 539 713 l 539 604 l 336 604 l 336 222 q 353 139 336 168 q 419 110 371 110 q 540 154 476 110 l 586 81 z "},"Ť":{"ha":1013,"x_min":38,"x_max":975,"o":"m 506 1044 q 424 1092 464 1044 l 256 1278 l 301 1338 l 506 1219 l 710 1338 l 756 1279 l 581 1088 q 506 1044 542 1044 m 272 0 l 272 85 l 356 99 q 392 119 383 103 q 401 171 401 136 l 401 875 l 367 875 q 226 838 264 875 q 142 664 188 801 l 38 688 l 93 972 l 919 972 l 975 692 l 869 668 q 792 838 826 801 q 664 875 758 875 l 607 875 l 607 165 q 616 118 607 132 q 654 99 625 104 l 736 85 l 736 0 l 272 0 z "},"ť":{"ha":622,"x_min":35,"x_max":622,"o":"m 478 797 l 422 843 q 482 986 482 936 q 451 1031 482 1006 q 418 1092 418 1058 q 446 1152 418 1128 q 521 1176 474 1176 q 594 1144 567 1176 q 622 1067 622 1113 q 588 939 622 1011 q 478 797 553 867 m 353 -19 q 193 33 249 -19 q 138 189 138 86 l 138 604 l 35 604 l 35 696 q 158 757 124 707 q 203 949 192 807 l 315 961 l 336 951 l 336 713 l 539 713 l 539 604 l 336 604 l 336 222 q 353 139 336 168 q 419 110 371 110 q 540 154 476 110 l 586 81 q 353 -19 489 -19 z "},"Ŧ":{"ha":1013,"x_min":38,"x_max":975,"o":"m 664 875 l 607 875 l 607 538 l 817 538 l 817 431 l 607 431 l 607 165 q 616 118 607 132 q 654 99 625 104 l 736 85 l 736 0 l 272 0 l 272 85 l 356 99 q 392 119 383 103 q 401 171 401 136 l 401 431 l 203 431 l 217 538 l 401 538 l 401 875 l 367 875 q 226 838 264 875 q 142 664 188 801 l 38 688 l 93 972 l 919 972 l 975 692 l 869 668 q 792 838 826 801 q 664 875 758 875 z "},"ŧ":{"ha":593,"x_min":26,"x_max":586,"o":"m 540 154 l 586 81 q 353 -19 489 -19 q 193 33 249 -19 q 138 189 138 86 l 138 357 l 26 357 l 39 464 l 138 464 l 138 604 l 35 604 l 35 696 q 158 757 124 707 q 203 949 192 807 l 315 961 l 336 951 l 336 713 l 539 713 l 539 604 l 336 604 l 336 464 l 539 464 l 539 357 l 336 357 l 336 222 q 353 139 336 168 q 419 110 371 110 q 540 154 476 110 z "},"Ũ":{"ha":1097,"x_min":50,"x_max":1053,"o":"m 690 1067 q 579 1094 640 1067 q 433 1146 467 1146 q 409 1135 419 1146 q 376 1093 399 1125 l 321 1135 q 394 1252 360 1219 q 471 1285 428 1285 q 597 1249 511 1285 q 726 1203 701 1203 q 751 1213 740 1203 q 783 1254 763 1224 l 839 1217 q 767 1099 801 1132 q 690 1067 733 1067 m 558 -19 q 171 361 171 -19 l 171 810 q 163 857 171 844 q 125 875 154 869 l 50 888 l 50 972 l 496 972 l 496 888 l 418 875 q 384 855 392 871 q 376 804 376 839 l 376 381 q 418 176 376 240 q 585 111 460 111 q 694 132 650 111 q 761 192 739 153 q 792 276 783 232 q 801 379 801 321 l 801 810 q 793 857 801 844 q 756 875 785 869 l 682 888 l 682 972 l 1053 972 l 1053 888 l 976 875 q 941 855 949 871 q 933 804 933 839 l 933 376 q 558 -19 933 -19 z "},"ũ":{"ha":911,"x_min":24,"x_max":883,"o":"m 549 850 q 532 851 540 850 q 517 853 524 851 q 499 858 510 854 q 481 863 488 861 q 457 872 474 865 q 431 881 440 878 q 397 895 421 885 q 357 911 372 906 q 292 929 314 929 q 267 919 278 929 q 235 876 257 908 l 179 918 q 252 1035 218 1003 q 329 1068 286 1068 q 456 1032 369 1068 q 585 986 560 986 q 610 997 599 986 q 642 1038 621 1007 l 697 1000 q 626 883 660 915 q 549 850 592 850 m 354 -19 q 139 214 139 -19 l 139 532 q 131 590 139 575 q 90 611 122 606 l 24 622 l 33 707 l 321 724 l 338 717 l 338 278 q 338 227 338 244 q 344 186 339 210 q 359 151 349 163 q 389 131 369 139 q 436 122 408 122 q 538 169 501 122 q 575 307 575 217 l 575 533 q 567 592 575 576 q 529 613 560 607 l 474 622 l 483 707 l 757 724 l 774 717 l 774 172 q 775 133 774 143 q 786 112 776 122 q 818 99 796 101 l 883 88 l 883 0 l 617 -10 l 594 111 l 590 111 q 497 15 550 50 q 354 -19 443 -19 z "},"Ū":{"ha":1097,"x_min":50,"x_max":1053,"o":"m 354 1103 l 354 1233 l 807 1233 l 807 1103 l 354 1103 m 558 -19 q 171 361 171 -19 l 171 810 q 163 857 171 844 q 125 875 154 869 l 50 888 l 50 972 l 496 972 l 496 888 l 418 875 q 384 855 392 871 q 376 804 376 839 l 376 381 q 418 176 376 240 q 585 111 460 111 q 694 132 650 111 q 761 192 739 153 q 792 276 783 232 q 801 379 801 321 l 801 810 q 793 857 801 844 q 756 875 785 869 l 682 888 l 682 972 l 1053 972 l 1053 888 l 976 875 q 941 855 949 871 q 933 804 933 839 l 933 376 q 558 -19 933 -19 z "},"ū":{"ha":911,"x_min":24,"x_max":883,"o":"m 224 871 l 224 999 l 654 999 l 654 871 l 224 871 m 354 -19 q 139 214 139 -19 l 139 532 q 131 590 139 575 q 90 611 122 606 l 24 622 l 33 707 l 321 724 l 338 717 l 338 278 q 338 227 338 244 q 344 186 339 210 q 359 151 349 163 q 389 131 369 139 q 436 122 408 122 q 538 169 501 122 q 575 307 575 217 l 575 533 q 567 592 575 576 q 529 613 560 607 l 474 622 l 483 707 l 757 724 l 774 717 l 774 172 q 775 133 774 143 q 786 112 776 122 q 818 99 796 101 l 883 88 l 883 0 l 617 -10 l 594 111 l 590 111 q 497 15 550 50 q 354 -19 443 -19 z "},"Ŭ":{"ha":1097,"x_min":50,"x_max":1053,"o":"m 578 1044 q 349 1299 372 1044 l 426 1321 q 581 1192 471 1192 q 736 1317 690 1192 l 815 1297 q 742 1118 806 1192 q 578 1044 679 1044 m 558 -19 q 171 361 171 -19 l 171 810 q 163 857 171 844 q 125 875 154 869 l 50 888 l 50 972 l 496 972 l 496 888 l 418 875 q 384 855 392 871 q 376 804 376 839 l 376 381 q 418 176 376 240 q 585 111 460 111 q 694 132 650 111 q 761 192 739 153 q 792 276 783 232 q 801 379 801 321 l 801 810 q 793 857 801 844 q 756 875 785 869 l 682 888 l 682 972 l 1053 972 l 1053 888 l 976 875 q 941 855 949 871 q 933 804 933 839 l 933 376 q 558 -19 933 -19 z "},"ŭ":{"ha":911,"x_min":24,"x_max":883,"o":"m 433 815 q 270 888 328 815 q 201 1086 213 960 l 279 1103 q 443 961 328 961 q 540 995 504 961 q 599 1099 576 1029 l 678 1086 q 603 892 665 968 q 433 815 540 815 m 354 -19 q 139 214 139 -19 l 139 532 q 131 590 139 575 q 90 611 122 606 l 24 622 l 33 707 l 321 724 l 338 717 l 338 278 q 338 227 338 244 q 344 186 339 210 q 359 151 349 163 q 389 131 369 139 q 436 122 408 122 q 538 169 501 122 q 575 307 575 217 l 575 533 q 567 592 575 576 q 529 613 560 607 l 474 622 l 483 707 l 757 724 l 774 717 l 774 172 q 775 133 774 143 q 786 112 776 122 q 818 99 796 101 l 883 88 l 883 0 l 617 -10 l 594 111 l 590 111 q 497 15 550 50 q 354 -19 443 -19 z "},"Ů":{"ha":1097,"x_min":50,"x_max":1053,"o":"m 713 1074 q 686 1052 713 1074 q 576 1031 658 1031 q 446 1072 494 1031 q 397 1181 397 1113 q 450 1298 397 1254 q 586 1342 503 1342 q 722 1301 675 1342 q 768 1188 768 1260 q 713 1074 768 1118 m 581 1106 q 640 1189 640 1106 q 581 1269 640 1269 q 522 1189 522 1269 q 581 1106 522 1106 m 558 -19 q 171 361 171 -19 l 171 810 q 163 857 171 844 q 125 875 154 869 l 50 888 l 50 972 l 496 972 l 496 888 l 418 875 q 384 855 392 871 q 376 804 376 839 l 376 381 q 418 176 376 240 q 585 111 460 111 q 694 132 650 111 q 761 192 739 153 q 792 276 783 232 q 801 379 801 321 l 801 810 q 793 857 801 844 q 756 875 785 869 l 682 888 l 682 972 l 1053 972 l 1053 888 l 976 875 q 941 855 949 871 q 933 804 933 839 l 933 376 q 558 -19 933 -19 z "},"ů":{"ha":911,"x_min":24,"x_max":883,"o":"m 572 852 q 544 830 572 852 q 435 808 517 808 q 304 849 353 808 q 256 958 256 890 q 308 1076 256 1032 q 444 1119 361 1119 q 580 1078 533 1119 q 626 965 626 1038 q 572 852 626 896 m 439 883 q 499 967 499 883 q 439 1047 499 1047 q 381 967 381 1047 q 439 883 381 883 m 354 -19 q 139 214 139 -19 l 139 532 q 131 590 139 575 q 90 611 122 606 l 24 622 l 33 707 l 321 724 l 338 717 l 338 278 q 338 227 338 244 q 344 186 339 210 q 359 151 349 163 q 389 131 369 139 q 436 122 408 122 q 538 169 501 122 q 575 307 575 217 l 575 533 q 567 592 575 576 q 529 613 560 607 l 474 622 l 483 707 l 757 724 l 774 717 l 774 172 q 775 133 774 143 q 786 112 776 122 q 818 99 796 101 l 883 88 l 883 0 l 617 -10 l 594 111 l 590 111 q 497 15 550 50 q 354 -19 443 -19 z "},"Ű":{"ha":1097,"x_min":50,"x_max":1053,"o":"m 424 1043 l 383 1094 l 542 1290 q 606 1328 572 1328 q 659 1301 639 1328 q 679 1236 679 1274 q 619 1158 679 1193 l 424 1043 m 671 1043 l 636 1097 l 810 1274 q 868 1306 842 1306 q 921 1281 903 1306 q 939 1222 939 1256 q 923 1169 939 1189 q 871 1133 907 1150 l 671 1043 m 558 -19 q 171 361 171 -19 l 171 810 q 163 857 171 844 q 125 875 154 869 l 50 888 l 50 972 l 496 972 l 496 888 l 418 875 q 384 855 392 871 q 376 804 376 839 l 376 381 q 418 176 376 240 q 585 111 460 111 q 694 132 650 111 q 761 192 739 153 q 792 276 783 232 q 801 379 801 321 l 801 810 q 793 857 801 844 q 756 875 785 869 l 682 888 l 682 972 l 1053 972 l 1053 888 l 976 875 q 941 855 949 871 q 933 804 933 839 l 933 376 q 558 -19 933 -19 z "},"ű":{"ha":911,"x_min":24,"x_max":883,"o":"m 313 806 l 269 853 l 418 1071 q 476 1111 444 1111 q 528 1088 511 1111 q 546 1035 546 1065 q 499 953 546 988 l 313 806 m 544 806 l 501 853 l 664 1065 q 725 1106 694 1106 q 776 1082 758 1106 q 793 1026 793 1058 q 742 943 793 976 l 544 806 m 354 -19 q 139 214 139 -19 l 139 532 q 131 590 139 575 q 90 611 122 606 l 24 622 l 33 707 l 321 724 l 338 717 l 338 278 q 338 227 338 244 q 344 186 339 210 q 359 151 349 163 q 389 131 369 139 q 436 122 408 122 q 538 169 501 122 q 575 307 575 217 l 575 533 q 567 592 575 576 q 529 613 560 607 l 474 622 l 483 707 l 757 724 l 774 717 l 774 172 q 775 133 774 143 q 786 112 776 122 q 818 99 796 101 l 883 88 l 883 0 l 617 -10 l 594 111 l 590 111 q 497 15 550 50 q 354 -19 443 -19 z "},"Ų":{"ha":1097,"x_min":50,"x_max":1053,"o":"m 682 972 l 1053 972 l 1053 888 l 976 875 q 941 855 949 871 q 933 804 933 839 l 933 376 q 758 21 933 110 q 649 -81 683 -28 q 615 -175 615 -135 q 668 -228 615 -228 q 738 -206 699 -228 l 769 -267 q 600 -332 697 -332 q 490 -295 526 -332 q 454 -206 454 -258 q 599 -18 454 -111 q 558 -19 586 -19 q 171 361 171 -19 l 171 810 q 163 857 171 844 q 125 875 154 869 l 50 888 l 50 972 l 496 972 l 496 888 l 418 875 q 384 855 392 871 q 376 804 376 839 l 376 381 q 418 176 376 240 q 585 111 460 111 q 694 132 650 111 q 761 192 739 153 q 792 276 783 232 q 801 379 801 321 l 801 810 q 793 857 801 844 q 756 875 785 869 l 682 888 l 682 972 z "},"ų":{"ha":911,"x_min":24,"x_max":883,"o":"m 824 -3 q 747 -95 775 -47 q 718 -175 718 -143 q 771 -228 718 -228 q 840 -206 801 -228 l 872 -267 q 703 -332 800 -332 q 593 -295 629 -332 q 557 -206 557 -258 q 711 -7 557 -103 l 617 -10 l 594 111 l 590 111 q 497 15 550 50 q 354 -19 443 -19 q 139 214 139 -19 l 139 532 q 131 590 139 575 q 90 611 122 606 l 24 622 l 33 707 l 321 724 l 338 717 l 338 278 q 338 227 338 244 q 344 186 339 210 q 359 151 349 163 q 389 131 369 139 q 436 122 408 122 q 538 169 501 122 q 575 307 575 217 l 575 533 q 567 592 575 576 q 529 613 560 607 l 474 622 l 483 707 l 757 724 l 774 717 l 774 172 q 775 133 774 143 q 786 112 776 122 q 818 99 796 101 l 883 88 l 883 0 l 824 -3 z "},"Ŵ":{"ha":1511,"x_min":7,"x_max":1510,"o":"m 582 1033 l 536 1092 l 711 1283 q 786 1326 750 1326 q 868 1279 828 1326 l 1036 1093 l 990 1033 l 786 1151 l 582 1033 m 317 0 l 125 810 q 103 862 115 849 q 63 879 92 875 l 7 888 l 7 972 l 439 972 l 439 892 l 368 883 q 334 867 340 881 q 336 815 328 853 l 469 193 l 475 193 l 679 972 l 889 972 l 1103 190 l 1108 190 l 1253 807 q 1255 859 1261 843 q 1219 881 1249 875 l 1151 893 l 1151 972 l 1510 972 l 1510 892 l 1444 883 q 1403 865 1418 881 q 1379 808 1389 849 l 1178 0 l 936 0 l 739 731 l 735 731 l 546 0 l 317 0 z "},"ŵ":{"ha":1242,"x_min":11,"x_max":1231,"o":"m 474 806 l 426 857 l 594 1067 q 676 1114 633 1114 q 721 1102 704 1114 q 767 1056 738 1090 l 926 857 l 879 806 l 676 942 l 474 806 m 293 0 l 118 544 q 97 597 106 585 q 60 615 88 608 l 11 626 l 25 713 l 439 713 l 439 631 l 372 621 q 338 603 344 617 q 339 553 331 590 l 419 200 l 426 200 l 574 713 l 783 713 l 904 203 l 911 203 l 1015 556 q 979 619 1032 608 l 928 631 l 942 713 l 1231 713 l 1231 629 l 1179 618 q 1141 599 1151 613 q 1118 544 1131 585 l 953 0 l 763 0 l 636 554 l 631 554 l 476 0 l 293 0 z "},"Ŷ":{"ha":957,"x_min":7,"x_max":950,"o":"m 315 1033 l 269 1092 l 444 1283 q 519 1326 483 1326 q 601 1279 561 1326 l 769 1093 l 724 1033 l 519 1151 l 315 1033 m 242 0 l 242 83 l 349 97 q 384 116 376 103 q 392 164 392 129 l 392 367 l 138 808 q 100 859 117 844 q 54 879 83 874 l 7 889 l 7 972 l 446 972 l 446 893 l 383 883 q 357 814 325 875 l 526 500 l 533 500 l 699 807 q 710 856 715 842 q 675 878 704 871 l 601 894 l 601 972 l 950 972 l 950 893 l 910 882 q 867 861 885 878 q 829 806 850 844 l 597 378 l 597 163 q 605 115 597 128 q 642 97 613 103 l 749 83 l 749 0 l 242 0 z "},"ŷ":{"ha":839,"x_min":0,"x_max":828,"o":"m 261 806 l 214 857 l 382 1067 q 464 1114 421 1114 q 508 1102 492 1114 q 554 1056 525 1090 l 714 857 l 667 806 l 464 942 l 261 806 m 154 -318 q 39 -283 78 -318 q 0 -201 0 -249 q 31 -122 0 -154 q 113 -89 63 -89 q 193 -157 193 -89 q 183 -231 193 -178 q 262 -187 232 -224 q 324 -76 292 -150 l 356 -4 l 129 547 q 101 597 113 585 q 63 615 90 608 l 17 626 l 31 713 l 432 713 l 432 631 l 365 621 q 332 601 338 617 q 339 550 326 586 l 460 235 l 467 235 l 590 540 q 598 592 604 575 q 561 617 592 610 l 499 631 l 513 713 l 828 713 l 828 629 l 776 618 q 742 600 751 614 q 711 539 732 586 l 465 -31 q 331 -251 399 -185 q 154 -318 264 -318 z "},"Ÿ":{"ha":957,"x_min":7,"x_max":950,"o":"m 447 1100 q 431 1085 447 1100 q 364 1071 415 1071 q 281 1100 313 1071 q 250 1176 250 1129 q 281 1251 250 1222 q 364 1281 313 1281 q 449 1252 419 1281 q 479 1176 479 1224 q 447 1100 479 1129 m 757 1100 q 741 1085 757 1100 q 674 1071 725 1071 q 591 1100 622 1071 q 560 1176 560 1129 q 591 1251 560 1222 q 674 1281 622 1281 q 759 1252 729 1281 q 789 1176 789 1224 q 757 1100 789 1129 m 242 0 l 242 83 l 349 97 q 384 116 376 103 q 392 164 392 129 l 392 367 l 138 808 q 100 859 117 844 q 54 879 83 874 l 7 889 l 7 972 l 446 972 l 446 893 l 383 883 q 357 814 325 875 l 526 500 l 533 500 l 699 807 q 710 856 715 842 q 675 878 704 871 l 601 894 l 601 972 l 950 972 l 950 893 l 910 882 q 867 861 885 878 q 829 806 850 844 l 597 378 l 597 163 q 605 115 597 128 q 642 97 613 103 l 749 83 l 749 0 l 242 0 z "},"Ź":{"ha":918,"x_min":63,"x_max":844,"o":"m 347 1043 l 310 1103 l 508 1279 q 568 1310 543 1310 q 624 1283 603 1310 q 646 1222 646 1256 q 630 1169 646 1188 q 576 1135 614 1150 l 347 1043 m 63 0 l 63 94 l 588 876 l 351 876 q 281 865 310 876 q 233 820 253 853 q 201 759 213 788 q 171 668 190 731 l 75 661 l 92 972 l 826 972 l 826 876 l 306 97 l 551 97 q 667 139 626 97 q 754 318 707 181 l 844 318 l 818 0 l 63 0 z "},"ź":{"ha":721,"x_min":42,"x_max":690,"o":"m 292 806 l 246 854 l 411 1067 q 465 1107 442 1107 q 535 1078 510 1107 q 560 1019 560 1050 q 508 939 560 969 l 292 806 m 42 0 l 42 90 l 421 610 l 311 610 q 208 581 235 610 q 149 453 182 553 l 46 446 l 63 713 l 671 713 l 671 633 l 286 106 l 411 106 q 522 131 497 106 q 590 272 547 156 l 690 272 l 671 0 l 42 0 z "},"Ż":{"ha":918,"x_min":63,"x_max":844,"o":"m 549 1096 q 531 1079 549 1096 q 453 1063 513 1063 q 357 1095 393 1063 q 321 1183 321 1128 q 357 1271 321 1238 q 453 1304 393 1304 q 551 1272 515 1304 q 586 1183 586 1239 q 549 1096 586 1129 m 63 0 l 63 94 l 588 876 l 351 876 q 281 865 310 876 q 233 820 253 853 q 201 759 213 788 q 171 668 190 731 l 75 661 l 92 972 l 826 972 l 826 876 l 306 97 l 551 97 q 667 139 626 97 q 754 318 707 181 l 844 318 l 818 0 l 63 0 z "},"ż":{"ha":721,"x_min":42,"x_max":690,"o":"m 463 885 q 445 868 463 885 q 367 851 426 851 q 271 884 307 851 q 235 972 235 917 q 271 1060 235 1026 q 367 1093 307 1093 q 465 1060 429 1093 q 500 972 500 1028 q 463 885 500 918 m 42 0 l 42 90 l 421 610 l 311 610 q 208 581 235 610 q 149 453 182 553 l 46 446 l 63 713 l 671 713 l 671 633 l 286 106 l 411 106 q 522 131 497 106 q 590 272 547 156 l 690 272 l 671 0 l 42 0 z "},"Ž":{"ha":918,"x_min":63,"x_max":844,"o":"m 453 1044 q 371 1092 411 1044 l 203 1278 l 249 1338 l 453 1219 l 657 1338 l 703 1279 l 528 1088 q 453 1044 489 1044 m 63 0 l 63 94 l 588 876 l 351 876 q 281 865 310 876 q 233 820 253 853 q 201 759 213 788 q 171 668 190 731 l 75 661 l 92 972 l 826 972 l 826 876 l 306 97 l 551 97 q 667 139 626 97 q 754 318 707 181 l 844 318 l 818 0 l 63 0 z "},"ž":{"ha":721,"x_min":42,"x_max":690,"o":"m 367 806 q 322 817 339 806 q 276 864 306 829 l 117 1063 l 164 1114 l 367 978 l 569 1114 l 617 1063 l 449 853 q 367 806 410 806 m 42 0 l 42 90 l 421 610 l 311 610 q 208 581 235 610 q 149 453 182 553 l 46 446 l 63 713 l 671 713 l 671 633 l 286 106 l 411 106 q 522 131 497 106 q 590 272 547 156 l 690 272 l 671 0 l 42 0 z "},"Ə":{"ha":974,"x_min":57,"x_max":924,"o":"m 450 -19 q 162 70 267 -19 q 57 324 57 160 q 82 510 57 425 l 714 510 q 635 769 706 679 q 413 858 564 858 q 125 739 257 858 l 64 797 q 227 935 124 878 q 463 992 331 992 q 806 862 689 992 q 924 522 924 732 q 791 122 924 264 q 450 -19 658 -19 m 457 100 q 638 177 582 100 q 710 386 694 254 l 246 386 q 240 307 240 339 q 294 156 240 213 q 457 100 349 100 z "},"ƒ":{"ha":749,"x_min":-136,"x_max":783,"o":"m 60 -268 q -81 -231 -26 -268 q -136 -131 -136 -194 q -103 -51 -136 -82 q -18 -19 -71 -19 q 69 -85 69 -19 q 39 -169 69 -124 q 82 -175 54 -175 q 183 -1 163 -175 l 246 513 l 139 513 l 151 607 l 258 607 l 265 654 q 372 900 288 808 q 588 992 456 992 q 728 955 674 992 q 783 854 783 918 q 751 774 783 806 q 665 743 718 743 q 578 808 578 743 q 608 893 578 847 q 565 899 593 899 q 500 855 526 899 q 464 726 474 811 l 451 610 l 646 610 l 633 513 l 436 513 l 382 69 q 278 -176 363 -83 q 60 -268 193 -268 z "},"Ơ":{"ha":1182,"x_min":64,"x_max":1182,"o":"m 535 -19 q 183 115 303 -19 q 64 468 64 250 q 201 860 64 728 q 550 992 338 992 q 799 929 690 992 q 961 746 907 867 q 1058 879 1051 790 l 1033 879 q 946 972 946 879 q 979 1054 946 1024 q 1058 1085 1013 1085 q 1148 1046 1114 1085 q 1182 942 1182 1007 q 1132 773 1182 851 q 990 656 1082 694 q 1007 511 1007 589 q 883 129 1007 278 q 535 -19 760 -19 m 547 97 q 729 194 665 97 q 793 486 793 290 q 724 771 793 665 q 528 876 654 876 q 281 496 281 876 q 347 205 281 313 q 547 97 414 97 z "},"ơ":{"ha":915,"x_min":47,"x_max":915,"o":"m 407 -19 q 139 78 231 -19 q 47 335 47 176 q 153 633 47 535 q 426 732 258 732 q 706 614 613 732 q 792 742 785 660 l 767 742 q 679 835 679 742 q 713 917 679 886 q 792 947 746 947 q 881 908 847 947 q 915 804 915 869 q 873 648 915 722 q 751 532 831 574 q 778 378 778 461 q 678 85 778 190 q 407 -19 579 -19 m 426 90 q 567 344 567 90 q 404 626 567 626 q 257 385 257 626 q 426 90 257 90 z "},"Ư":{"ha":1243,"x_min":50,"x_max":1243,"o":"m 558 -19 q 171 361 171 -19 l 171 810 q 163 857 171 844 q 125 875 154 869 l 50 888 l 50 972 l 496 972 l 496 888 l 418 875 q 384 855 392 871 q 376 804 376 839 l 376 381 q 418 176 376 240 q 585 111 460 111 q 694 132 650 111 q 761 192 739 153 q 792 276 783 232 q 801 379 801 321 l 801 810 q 793 857 801 844 q 756 875 785 869 l 682 888 l 682 972 l 933 972 l 933 719 q 1119 879 1110 758 l 1094 879 q 1007 972 1007 879 q 1040 1054 1007 1024 q 1119 1085 1074 1085 q 1209 1046 1175 1085 q 1243 942 1243 1007 q 1164 742 1243 831 q 933 626 1085 653 l 933 376 q 558 -19 933 -19 z "},"ư":{"ha":1050,"x_min":24,"x_max":1050,"o":"m 354 -19 q 139 214 139 -19 l 139 532 q 137 576 139 564 q 124 598 135 588 q 90 611 114 608 l 24 622 l 33 707 l 321 724 l 338 717 l 338 278 q 338 227 338 244 q 344 186 339 210 q 359 151 349 163 q 389 131 369 139 q 436 122 408 122 q 538 169 501 122 q 575 307 575 217 l 575 533 q 567 592 575 576 q 529 613 560 607 l 474 622 l 483 707 l 757 724 l 774 717 l 774 588 q 926 742 917 628 l 901 742 q 814 835 814 742 q 847 917 814 886 q 926 947 881 947 q 1016 908 982 947 q 1050 804 1050 869 q 978 604 1050 693 q 774 494 906 515 l 774 172 q 775 133 774 143 q 786 112 776 122 q 818 99 796 101 l 883 88 l 883 0 l 617 -10 l 594 111 l 590 111 q 497 15 550 50 q 354 -19 443 -19 z "},"Ǆ":{"ha":1976,"x_min":68,"x_max":1903,"o":"m 1511 1044 q 1429 1092 1469 1044 l 1261 1278 l 1307 1338 l 1511 1219 l 1715 1338 l 1761 1279 l 1586 1088 q 1511 1044 1547 1044 m 68 0 l 68 83 l 147 99 q 178 118 171 103 q 185 171 185 133 l 185 808 q 183 844 185 833 q 173 863 182 854 q 144 874 164 871 l 68 889 l 68 972 l 511 972 q 875 864 743 972 q 1007 525 1007 756 q 442 0 1007 0 l 68 0 m 1121 0 l 1121 94 l 1646 876 l 1410 876 q 1340 865 1368 876 q 1291 820 1311 853 q 1260 759 1271 788 q 1229 668 1249 731 l 1133 661 l 1150 972 l 1885 972 l 1885 876 l 1364 97 l 1610 97 q 1725 139 1685 97 q 1813 318 1765 181 l 1903 318 l 1876 0 l 1121 0 m 476 99 q 612 122 554 99 q 703 184 669 146 q 758 279 738 222 q 786 393 779 336 q 793 521 793 450 q 709 781 793 686 q 442 875 625 875 l 390 875 l 390 106 q 476 99 428 99 z "},"ǅ":{"ha":1793,"x_min":68,"x_max":1763,"o":"m 1439 806 q 1394 817 1411 806 q 1349 864 1378 829 l 1189 1063 l 1236 1114 l 1439 978 l 1642 1114 l 1689 1063 l 1521 853 q 1439 806 1482 806 m 68 0 l 68 83 l 147 99 q 178 118 171 103 q 185 171 185 133 l 185 808 q 183 844 185 833 q 173 863 182 854 q 144 874 164 871 l 68 889 l 68 972 l 511 972 q 875 864 743 972 q 1007 525 1007 756 q 442 0 1007 0 l 68 0 m 476 99 q 612 122 554 99 q 703 184 669 146 q 758 279 738 222 q 786 393 779 336 q 793 521 793 450 q 709 781 793 686 q 442 875 625 875 l 390 875 l 390 106 q 476 99 428 99 m 1114 0 l 1114 90 l 1493 610 l 1383 610 q 1281 581 1307 610 q 1221 453 1254 553 l 1118 446 l 1135 713 l 1743 713 l 1743 633 l 1358 106 l 1483 106 q 1594 131 1569 106 q 1663 272 1619 156 l 1763 272 l 1743 0 l 1114 0 z "},"ǆ":{"ha":1608,"x_min":56,"x_max":1578,"o":"m 1254 806 q 1210 817 1226 806 q 1164 864 1193 829 l 1004 1063 l 1051 1114 l 1254 978 l 1457 1114 l 1504 1063 l 1336 853 q 1254 806 1297 806 m 350 -19 q 132 75 208 -19 q 56 338 56 169 q 145 626 56 521 q 393 732 235 732 q 551 696 483 732 l 551 883 q 542 935 551 921 q 497 956 533 950 l 436 968 l 447 1056 l 735 1064 l 750 1049 l 750 161 q 758 116 750 128 q 794 99 767 104 l 860 88 l 860 0 l 593 -10 l 572 101 l 568 101 q 350 -19 499 -19 m 929 0 l 929 90 l 1308 610 l 1199 610 q 1096 581 1122 610 q 1036 453 1069 553 l 933 446 l 950 713 l 1558 713 l 1558 633 l 1174 106 l 1299 106 q 1410 131 1385 106 q 1478 272 1435 156 l 1578 272 l 1558 0 l 929 0 m 413 113 q 513 153 474 113 q 551 283 551 193 l 551 581 q 424 614 494 614 q 263 351 263 614 q 413 113 263 113 z "},"Ǉ":{"ha":1636,"x_min":68,"x_max":1606,"o":"m 68 0 l 68 83 l 142 97 q 178 115 171 103 q 185 168 185 128 l 185 810 q 183 844 185 835 q 172 863 181 854 q 140 875 163 871 l 68 889 l 68 972 l 526 972 l 526 888 l 436 875 q 399 858 407 869 q 390 814 390 847 l 390 97 l 511 97 q 643 142 599 97 q 726 315 688 188 l 832 315 l 793 0 l 68 0 m 1181 -19 q 990 31 1065 -19 q 915 168 915 81 q 947 255 915 219 q 1028 290 978 290 q 1098 269 1074 290 q 1122 217 1122 247 q 1078 110 1122 183 q 1179 76 1111 76 q 1274 120 1251 76 q 1297 258 1297 164 l 1297 811 q 1289 858 1297 844 q 1251 876 1281 871 l 1164 890 l 1164 972 l 1606 972 l 1606 889 l 1542 874 q 1514 860 1522 869 q 1504 841 1506 851 q 1503 806 1503 831 l 1503 269 q 1423 65 1503 149 q 1181 -19 1343 -19 z "},"ǈ":{"ha":1308,"x_min":68,"x_max":1221,"o":"m 1088 851 q 992 884 1029 851 q 956 971 956 917 q 992 1060 956 1028 q 1088 1093 1029 1093 q 1185 1062 1149 1093 q 1221 974 1221 1031 q 1184 885 1221 918 q 1088 851 1147 851 m 68 0 l 68 83 l 142 97 q 178 115 171 103 q 185 168 185 128 l 185 810 q 183 844 185 835 q 172 863 181 854 q 140 875 163 871 l 68 889 l 68 972 l 526 972 l 526 888 l 436 875 q 399 858 407 869 q 390 814 390 847 l 390 97 l 511 97 q 643 142 599 97 q 726 315 688 188 l 832 315 l 793 0 l 68 0 m 958 -318 l 892 -247 q 985 -124 958 -194 q 1013 53 1013 -53 l 1013 531 q 1005 593 1013 579 q 964 613 997 607 l 897 622 l 907 707 l 1194 724 l 1211 717 l 1211 132 q 1149 -148 1211 -47 q 958 -318 1086 -249 z "},"ǉ":{"ha":917,"x_min":35,"x_max":829,"o":"m 696 851 q 601 884 638 851 q 564 971 564 917 q 601 1060 564 1028 q 696 1093 638 1093 q 793 1062 757 1093 q 829 974 829 1031 q 792 885 829 918 q 696 851 756 851 m 47 0 l 47 83 l 108 94 q 142 112 135 100 q 150 157 150 124 l 150 883 q 141 935 150 922 q 97 956 132 949 l 35 968 l 46 1056 l 333 1064 l 349 1049 l 349 157 q 356 113 349 124 q 388 96 363 103 l 450 82 l 450 0 l 47 0 m 567 -318 l 500 -247 q 594 -124 567 -194 q 621 53 621 -53 l 621 531 q 613 593 621 579 q 572 613 606 607 l 506 622 l 515 707 l 803 724 l 819 717 l 819 132 q 757 -148 819 -47 q 567 -318 694 -249 z "},"Ǌ":{"ha":1867,"x_min":69,"x_max":1836,"o":"m 69 0 l 69 83 l 144 97 q 179 115 172 103 q 186 167 186 128 l 186 811 q 179 858 186 846 q 143 875 172 869 l 69 889 l 69 972 l 400 972 l 840 238 l 844 238 l 844 811 q 838 858 844 846 q 801 875 831 869 l 728 889 l 728 972 l 1086 972 l 1086 889 l 1011 875 q 976 856 983 869 q 969 806 969 843 l 969 0 l 757 0 l 317 735 l 311 735 l 311 161 q 319 115 311 128 q 356 97 326 103 l 428 83 l 428 0 l 69 0 m 1411 -19 q 1221 31 1296 -19 q 1146 168 1146 81 q 1177 255 1146 219 q 1258 290 1208 290 q 1328 269 1304 290 q 1353 217 1353 247 q 1308 110 1353 183 q 1410 76 1342 76 q 1505 120 1482 76 q 1528 258 1528 164 l 1528 811 q 1519 858 1528 844 q 1482 876 1511 871 l 1394 890 l 1394 972 l 1836 972 l 1836 889 l 1772 874 q 1744 860 1753 869 q 1735 841 1736 851 q 1733 806 1733 831 l 1733 269 q 1653 65 1733 149 q 1411 -19 1574 -19 z "},"ǋ":{"ha":1567,"x_min":69,"x_max":1479,"o":"m 1346 851 q 1251 884 1288 851 q 1214 971 1214 917 q 1251 1060 1214 1028 q 1346 1093 1288 1093 q 1443 1062 1407 1093 q 1479 974 1479 1031 q 1442 885 1479 918 q 1346 851 1406 851 m 69 0 l 69 83 l 144 97 q 179 115 172 103 q 186 167 186 128 l 186 811 q 179 858 186 846 q 143 875 172 869 l 69 889 l 69 972 l 400 972 l 840 238 l 844 238 l 844 811 q 838 858 844 846 q 801 875 831 869 l 728 889 l 728 972 l 1086 972 l 1086 889 l 1011 875 q 976 856 983 869 q 969 806 969 843 l 969 0 l 757 0 l 317 735 l 311 735 l 311 161 q 319 115 311 128 q 356 97 326 103 l 428 83 l 428 0 l 69 0 m 1217 -318 l 1150 -247 q 1244 -124 1217 -194 q 1271 53 1271 -53 l 1271 531 q 1263 593 1271 579 q 1222 613 1256 607 l 1156 622 l 1165 707 l 1453 724 l 1469 717 l 1469 132 q 1407 -148 1469 -47 q 1217 -318 1344 -249 z "},"ǌ":{"ha":1342,"x_min":35,"x_max":1254,"o":"m 1121 851 q 1026 884 1063 851 q 989 971 989 917 q 1026 1060 989 1028 q 1121 1093 1063 1093 q 1218 1062 1182 1093 q 1254 974 1254 1031 q 1217 885 1254 918 q 1121 851 1181 851 m 47 0 l 47 83 l 114 96 q 144 114 139 100 q 150 163 150 128 l 150 526 q 142 591 150 575 q 103 613 133 607 l 35 622 l 44 707 l 307 722 l 324 713 l 333 589 l 338 589 q 383 657 361 631 q 454 708 406 683 q 568 732 503 732 q 746 669 697 732 q 794 494 794 606 l 794 151 q 802 111 794 122 q 838 94 810 100 l 903 83 l 903 0 l 504 0 l 504 82 l 554 93 q 588 110 581 99 q 596 151 596 121 l 596 429 q 576 552 596 514 q 492 590 556 590 q 349 410 349 590 l 349 157 q 355 115 349 126 q 383 97 361 103 l 442 82 l 442 0 l 47 0 m 992 -318 l 925 -247 q 1019 -124 992 -194 q 1046 53 1046 -53 l 1046 531 q 1038 593 1046 579 q 997 613 1031 607 l 931 622 l 940 707 l 1228 724 l 1244 717 l 1244 132 q 1182 -148 1244 -47 q 992 -318 1119 -249 z "},"Ǎ":{"ha":1028,"x_min":17,"x_max":1011,"o":"m 519 1044 q 438 1092 478 1044 l 269 1278 l 315 1338 l 519 1219 l 724 1338 l 769 1279 l 594 1088 q 519 1044 556 1044 m 17 0 l 17 83 l 82 93 q 117 114 106 99 q 143 169 129 129 l 432 972 l 610 972 l 896 165 q 910 127 906 138 q 926 106 915 117 q 956 93 938 96 l 1011 83 l 1011 0 l 582 0 l 582 83 l 646 93 q 678 113 674 97 q 672 163 683 128 l 629 299 l 321 299 l 278 168 q 273 117 265 135 q 310 94 281 100 l 371 83 l 371 0 l 17 0 m 350 393 l 601 393 l 483 767 l 478 767 l 350 393 z "},"ǎ":{"ha":774,"x_min":50,"x_max":769,"o":"m 356 806 q 311 817 328 806 q 265 864 294 829 l 106 1063 l 153 1114 l 356 978 l 558 1114 l 606 1063 l 438 853 q 356 806 399 806 m 264 -19 q 110 31 171 -19 q 50 178 50 81 q 299 389 50 354 q 440 401 371 397 l 440 507 q 415 606 440 575 q 338 636 390 636 q 222 603 272 636 q 257 524 257 544 q 233 472 257 494 q 151 449 208 449 q 81 473 106 449 q 57 538 57 497 q 149 674 57 615 q 361 732 240 732 q 567 671 496 732 q 639 458 639 610 l 639 160 q 662 103 639 115 q 750 107 685 90 l 769 38 q 607 -19 701 -19 q 471 89 497 -19 q 264 -19 403 -19 m 343 106 q 440 219 440 106 l 440 313 q 342 303 386 313 q 254 200 254 283 q 278 130 254 154 q 343 106 301 106 z "},"Ǐ":{"ha":576,"x_min":38,"x_max":538,"o":"m 288 1044 q 206 1092 246 1044 l 38 1278 l 83 1338 l 288 1219 l 492 1338 l 538 1279 l 363 1088 q 288 1044 324 1044 m 63 0 l 63 83 l 133 96 q 177 113 169 101 q 185 168 185 125 l 185 804 q 177 859 185 847 q 133 876 169 871 l 63 889 l 63 972 l 514 972 l 514 889 l 435 875 q 398 858 406 869 q 390 806 390 846 l 390 163 q 398 115 390 126 q 435 97 406 103 l 514 83 l 514 0 l 63 0 z "},"ǐ":{"ha":490,"x_min":-31,"x_max":469,"o":"m 219 806 q 175 817 192 806 q 129 864 158 829 l -31 1063 l 17 1114 l 219 978 l 422 1114 l 469 1063 l 301 853 q 219 806 263 806 m 44 0 l 44 83 l 117 96 q 151 113 143 100 q 158 158 158 125 l 158 531 q 150 594 158 579 q 108 613 142 608 l 43 622 l 53 707 l 340 724 l 357 717 l 357 158 q 364 115 357 125 q 396 97 371 104 l 463 82 l 463 0 l 44 0 z "},"Ǒ":{"ha":1072,"x_min":64,"x_max":1007,"o":"m 540 1044 q 458 1092 499 1044 l 290 1278 l 336 1338 l 540 1219 l 744 1338 l 790 1279 l 615 1088 q 540 1044 576 1044 m 535 -19 q 183 115 303 -19 q 64 468 64 250 q 201 860 64 728 q 550 992 338 992 q 879 867 751 992 q 1007 511 1007 743 q 883 129 1007 278 q 535 -19 760 -19 m 547 97 q 729 194 665 97 q 793 486 793 290 q 724 771 793 665 q 528 876 654 876 q 281 496 281 876 q 347 205 281 313 q 547 97 414 97 z "},"ǒ":{"ha":825,"x_min":47,"x_max":778,"o":"m 408 806 q 364 817 381 806 q 318 864 347 829 l 158 1063 l 206 1114 l 408 978 l 611 1114 l 658 1063 l 490 853 q 408 806 451 806 m 407 -19 q 139 78 231 -19 q 47 335 47 176 q 153 633 47 535 q 426 732 258 732 q 682 640 586 732 q 778 378 778 549 q 678 85 778 190 q 407 -19 579 -19 m 426 90 q 567 344 567 90 q 404 626 567 626 q 257 385 257 626 q 426 90 257 90 z "},"Ǔ":{"ha":1097,"x_min":50,"x_max":1053,"o":"m 581 1044 q 499 1092 539 1044 l 331 1278 l 376 1338 l 581 1219 l 785 1338 l 831 1279 l 656 1088 q 581 1044 617 1044 m 558 -19 q 171 361 171 -19 l 171 810 q 163 857 171 844 q 125 875 154 869 l 50 888 l 50 972 l 496 972 l 496 888 l 418 875 q 384 855 392 871 q 376 804 376 839 l 376 381 q 418 176 376 240 q 585 111 460 111 q 694 132 650 111 q 761 192 739 153 q 792 276 783 232 q 801 379 801 321 l 801 810 q 793 857 801 844 q 756 875 785 869 l 682 888 l 682 972 l 1053 972 l 1053 888 l 976 875 q 941 855 949 871 q 933 804 933 839 l 933 376 q 558 -19 933 -19 z "},"ǔ":{"ha":911,"x_min":24,"x_max":883,"o":"m 439 806 q 394 817 411 806 q 349 864 378 829 l 189 1063 l 236 1114 l 439 978 l 642 1114 l 689 1063 l 521 853 q 439 806 482 806 m 354 -19 q 139 214 139 -19 l 139 532 q 131 590 139 575 q 90 611 122 606 l 24 622 l 33 707 l 321 724 l 338 717 l 338 278 q 338 227 338 244 q 344 186 339 210 q 359 151 349 163 q 389 131 369 139 q 436 122 408 122 q 538 169 501 122 q 575 307 575 217 l 575 533 q 567 592 575 576 q 529 613 560 607 l 474 622 l 483 707 l 757 724 l 774 717 l 774 172 q 775 133 774 143 q 786 112 776 122 q 818 99 796 101 l 883 88 l 883 0 l 617 -10 l 594 111 l 590 111 q 497 15 550 50 q 354 -19 443 -19 z "},"Ǖ":{"ha":1097,"x_min":50,"x_max":1053,"o":"m 354 1353 l 354 1483 l 807 1483 l 807 1353 l 354 1353 m 508 1092 q 492 1077 508 1092 q 425 1063 476 1063 q 342 1092 374 1063 q 311 1168 311 1121 q 342 1243 311 1214 q 425 1272 374 1272 q 510 1244 481 1272 q 540 1168 540 1215 q 508 1092 540 1121 m 818 1092 q 802 1077 818 1092 q 735 1063 786 1063 q 652 1092 683 1063 q 621 1168 621 1121 q 652 1243 621 1214 q 735 1272 683 1272 q 820 1244 790 1272 q 850 1168 850 1215 q 818 1092 850 1121 m 558 -19 q 171 361 171 -19 l 171 810 q 163 857 171 844 q 125 875 154 869 l 50 888 l 50 972 l 496 972 l 496 888 l 418 875 q 384 855 392 871 q 376 804 376 839 l 376 381 q 418 176 376 240 q 585 111 460 111 q 694 132 650 111 q 761 192 739 153 q 792 276 783 232 q 801 379 801 321 l 801 810 q 793 857 801 844 q 756 875 785 869 l 682 888 l 682 972 l 1053 972 l 1053 888 l 976 875 q 941 855 949 871 q 933 804 933 839 l 933 376 q 558 -19 933 -19 z "},"ǖ":{"ha":911,"x_min":24,"x_max":883,"o":"m 213 1142 l 213 1272 l 665 1272 l 665 1142 l 213 1142 m 367 865 q 351 851 367 865 q 283 836 335 836 q 201 865 232 836 q 169 942 169 894 q 201 1017 169 988 q 283 1046 232 1046 q 369 1017 339 1046 q 399 942 399 989 q 367 865 399 894 m 676 865 q 660 851 676 865 q 593 836 644 836 q 510 865 542 836 q 479 942 479 894 q 510 1017 479 988 q 593 1046 542 1046 q 678 1017 649 1046 q 708 942 708 989 q 676 865 708 894 m 354 -19 q 139 214 139 -19 l 139 532 q 131 590 139 575 q 90 611 122 606 l 24 622 l 33 707 l 321 724 l 338 717 l 338 278 q 338 227 338 244 q 344 186 339 210 q 359 151 349 163 q 389 131 369 139 q 436 122 408 122 q 538 169 501 122 q 575 307 575 217 l 575 533 q 567 592 575 576 q 529 613 560 607 l 474 622 l 483 707 l 757 724 l 774 717 l 774 172 q 775 133 774 143 q 786 112 776 122 q 818 99 796 101 l 883 88 l 883 0 l 617 -10 l 594 111 l 590 111 q 497 15 550 50 q 354 -19 443 -19 z "},"Ǘ":{"ha":1097,"x_min":50,"x_max":1053,"o":"m 475 1338 l 438 1397 l 636 1574 q 696 1604 671 1604 q 752 1577 731 1604 q 774 1517 774 1550 q 758 1463 774 1482 q 704 1429 742 1444 l 475 1338 m 508 1093 q 492 1078 508 1093 q 425 1064 476 1064 q 342 1093 374 1064 q 311 1169 311 1122 q 342 1244 311 1215 q 425 1274 374 1274 q 510 1245 481 1274 q 540 1169 540 1217 q 508 1093 540 1122 m 818 1093 q 802 1078 818 1093 q 735 1064 786 1064 q 652 1093 683 1064 q 621 1169 621 1122 q 652 1244 621 1215 q 735 1274 683 1274 q 820 1245 790 1274 q 850 1169 850 1217 q 818 1093 850 1122 m 558 -19 q 171 361 171 -19 l 171 810 q 163 857 171 844 q 125 875 154 869 l 50 888 l 50 972 l 496 972 l 496 888 l 418 875 q 384 855 392 871 q 376 804 376 839 l 376 381 q 418 176 376 240 q 585 111 460 111 q 694 132 650 111 q 761 192 739 153 q 792 276 783 232 q 801 379 801 321 l 801 810 q 793 857 801 844 q 756 875 785 869 l 682 888 l 682 972 l 1053 972 l 1053 888 l 976 875 q 941 855 949 871 q 933 804 933 839 l 933 376 q 558 -19 933 -19 z "},"ǘ":{"ha":911,"x_min":24,"x_max":883,"o":"m 333 1124 l 296 1183 l 494 1360 q 554 1390 529 1390 q 610 1363 589 1390 q 632 1303 632 1336 q 616 1249 632 1268 q 563 1215 600 1231 l 333 1124 m 367 867 q 351 852 367 867 q 283 838 335 838 q 201 867 232 838 q 169 943 169 896 q 201 1018 169 989 q 283 1047 232 1047 q 369 1019 339 1047 q 399 943 399 990 q 367 867 399 896 m 676 867 q 660 852 676 867 q 593 838 644 838 q 510 867 542 838 q 479 943 479 896 q 510 1018 479 989 q 593 1047 542 1047 q 678 1019 649 1047 q 708 943 708 990 q 676 867 708 896 m 354 -19 q 139 214 139 -19 l 139 532 q 131 590 139 575 q 90 611 122 606 l 24 622 l 33 707 l 321 724 l 338 717 l 338 278 q 338 227 338 244 q 344 186 339 210 q 359 151 349 163 q 389 131 369 139 q 436 122 408 122 q 538 169 501 122 q 575 307 575 217 l 575 533 q 567 592 575 576 q 529 613 560 607 l 474 622 l 483 707 l 757 724 l 774 717 l 774 172 q 775 133 774 143 q 786 112 776 122 q 818 99 796 101 l 883 88 l 883 0 l 617 -10 l 594 111 l 590 111 q 497 15 550 50 q 354 -19 443 -19 z "},"Ǚ":{"ha":1097,"x_min":50,"x_max":1053,"o":"m 581 1336 q 499 1383 539 1336 l 331 1569 l 376 1629 l 581 1511 l 785 1629 l 831 1571 l 656 1379 q 581 1336 617 1336 m 508 1092 q 492 1077 508 1092 q 425 1063 476 1063 q 342 1092 374 1063 q 311 1168 311 1121 q 342 1243 311 1214 q 425 1272 374 1272 q 510 1244 481 1272 q 540 1168 540 1215 q 508 1092 540 1121 m 818 1092 q 802 1077 818 1092 q 735 1063 786 1063 q 652 1092 683 1063 q 621 1168 621 1121 q 652 1243 621 1214 q 735 1272 683 1272 q 820 1244 790 1272 q 850 1168 850 1215 q 818 1092 850 1121 m 558 -19 q 171 361 171 -19 l 171 810 q 163 857 171 844 q 125 875 154 869 l 50 888 l 50 972 l 496 972 l 496 888 l 418 875 q 384 855 392 871 q 376 804 376 839 l 376 381 q 418 176 376 240 q 585 111 460 111 q 694 132 650 111 q 761 192 739 153 q 792 276 783 232 q 801 379 801 321 l 801 810 q 793 857 801 844 q 756 875 785 869 l 682 888 l 682 972 l 1053 972 l 1053 888 l 976 875 q 941 855 949 871 q 933 804 933 839 l 933 376 q 558 -19 933 -19 z "},"ǚ":{"ha":911,"x_min":24,"x_max":883,"o":"m 439 1124 q 357 1171 397 1124 l 189 1357 l 235 1417 l 439 1299 l 643 1417 l 689 1358 l 514 1167 q 439 1124 475 1124 m 367 867 q 351 852 367 867 q 283 838 335 838 q 201 867 232 838 q 169 943 169 896 q 201 1018 169 989 q 283 1047 232 1047 q 369 1019 339 1047 q 399 943 399 990 q 367 867 399 896 m 676 867 q 660 852 676 867 q 593 838 644 838 q 510 867 542 838 q 479 943 479 896 q 510 1018 479 989 q 593 1047 542 1047 q 678 1019 649 1047 q 708 943 708 990 q 676 867 708 896 m 354 -19 q 139 214 139 -19 l 139 532 q 131 590 139 575 q 90 611 122 606 l 24 622 l 33 707 l 321 724 l 338 717 l 338 278 q 338 227 338 244 q 344 186 339 210 q 359 151 349 163 q 389 131 369 139 q 436 122 408 122 q 538 169 501 122 q 575 307 575 217 l 575 533 q 567 592 575 576 q 529 613 560 607 l 474 622 l 483 707 l 757 724 l 774 717 l 774 172 q 775 133 774 143 q 786 112 776 122 q 818 99 796 101 l 883 88 l 883 0 l 617 -10 l 594 111 l 590 111 q 497 15 550 50 q 354 -19 443 -19 z "},"Ǜ":{"ha":1097,"x_min":50,"x_max":1053,"o":"m 686 1338 l 457 1429 q 403 1463 419 1444 q 388 1517 388 1482 q 409 1577 388 1550 q 465 1604 431 1604 q 525 1574 490 1604 l 724 1397 l 686 1338 m 510 1092 q 494 1077 510 1092 q 426 1063 478 1063 q 344 1092 375 1063 q 313 1168 313 1121 q 344 1243 313 1214 q 426 1272 375 1272 q 512 1244 482 1272 q 542 1168 542 1215 q 510 1092 542 1121 m 819 1092 q 803 1077 819 1092 q 736 1063 788 1063 q 653 1092 685 1063 q 622 1168 622 1121 q 653 1243 622 1214 q 736 1272 685 1272 q 822 1244 792 1272 q 851 1168 851 1215 q 819 1092 851 1121 m 558 -19 q 171 361 171 -19 l 171 810 q 163 857 171 844 q 125 875 154 869 l 50 888 l 50 972 l 496 972 l 496 888 l 418 875 q 384 855 392 871 q 376 804 376 839 l 376 381 q 418 176 376 240 q 585 111 460 111 q 694 132 650 111 q 761 192 739 153 q 792 276 783 232 q 801 379 801 321 l 801 810 q 793 857 801 844 q 756 875 785 869 l 682 888 l 682 972 l 1053 972 l 1053 888 l 976 875 q 941 855 949 871 q 933 804 933 839 l 933 376 q 558 -19 933 -19 z "},"ǜ":{"ha":911,"x_min":24,"x_max":883,"o":"m 539 1124 l 310 1215 q 256 1249 272 1231 q 240 1303 240 1268 q 262 1363 240 1336 q 318 1390 283 1390 q 378 1360 343 1390 l 576 1183 l 539 1124 m 367 867 q 351 852 367 867 q 283 838 335 838 q 201 867 232 838 q 169 943 169 896 q 201 1018 169 989 q 283 1047 232 1047 q 369 1019 339 1047 q 399 943 399 990 q 367 867 399 896 m 676 867 q 660 852 676 867 q 593 838 644 838 q 510 867 542 838 q 479 943 479 896 q 510 1018 479 989 q 593 1047 542 1047 q 678 1019 649 1047 q 708 943 708 990 q 676 867 708 896 m 354 -19 q 139 214 139 -19 l 139 532 q 131 590 139 575 q 90 611 122 606 l 24 622 l 33 707 l 321 724 l 338 717 l 338 278 q 338 227 338 244 q 344 186 339 210 q 359 151 349 163 q 389 131 369 139 q 436 122 408 122 q 538 169 501 122 q 575 307 575 217 l 575 533 q 567 592 575 576 q 529 613 560 607 l 474 622 l 483 707 l 757 724 l 774 717 l 774 172 q 775 133 774 143 q 786 112 776 122 q 818 99 796 101 l 883 88 l 883 0 l 617 -10 l 594 111 l 590 111 q 497 15 550 50 q 354 -19 443 -19 z "},"Ǧ":{"ha":1021,"x_min":64,"x_max":1007,"o":"m 535 1050 q 453 1097 493 1050 l 285 1283 l 331 1343 l 535 1225 l 739 1343 l 785 1285 l 610 1093 q 535 1050 571 1050 m 535 -19 q 354 8 435 -19 q 220 80 274 35 q 131 188 167 125 q 79 319 94 251 q 64 464 64 388 q 186 849 64 707 q 519 992 308 992 q 761 904 674 992 l 775 992 l 860 992 l 928 668 l 821 644 q 715 817 781 761 q 546 872 649 872 q 415 839 469 872 q 332 747 360 806 q 292 625 304 689 q 281 483 281 561 q 359 197 281 294 q 557 100 438 100 q 724 158 657 100 l 724 308 q 715 358 724 343 q 678 378 707 372 l 608 390 l 608 474 l 1007 474 l 1007 390 l 947 378 q 913 356 921 374 q 906 303 906 339 l 906 -4 l 803 -4 l 776 54 q 535 -19 683 -19 z "},"ǧ":{"ha":846,"x_min":17,"x_max":832,"o":"m 375 806 q 331 817 347 806 q 285 864 314 829 l 125 1063 l 172 1114 l 375 978 l 578 1114 l 625 1063 l 457 853 q 375 806 418 806 m 356 -318 q 17 -143 17 -318 q 53 -44 17 -82 q 160 24 90 -7 l 160 26 q 68 138 68 56 q 153 276 68 201 l 153 281 q 47 465 47 338 q 138 660 47 589 q 372 732 229 732 q 563 692 488 732 q 604 751 586 728 q 657 795 622 774 q 729 817 692 817 q 802 794 772 817 q 832 729 832 771 q 806 663 832 692 q 746 633 781 633 q 706 644 719 633 q 682 679 693 654 l 669 707 q 626 642 642 674 q 692 476 692 565 q 603 296 692 365 q 358 226 514 226 q 242 244 299 226 q 210 188 210 213 q 234 145 210 154 q 315 136 258 136 l 510 136 q 710 92 640 136 q 779 -62 779 47 q 680 -244 779 -169 q 356 -318 581 -318 m 376 322 q 458 362 428 322 q 489 471 489 401 q 457 595 489 551 q 371 639 425 639 q 250 479 250 639 q 283 364 250 406 q 376 322 315 322 m 378 -210 q 521 -175 474 -210 q 568 -92 568 -140 q 544 -40 568 -54 q 465 -26 521 -26 l 264 -26 q 213 -114 213 -69 q 378 -210 213 -210 z "},"Ǫ":{"ha":1072,"x_min":64,"x_max":1007,"o":"m 692 3 q 611 -93 642 -43 q 581 -175 581 -143 q 633 -228 581 -228 q 703 -206 664 -228 l 735 -267 q 565 -332 663 -332 q 456 -295 492 -332 q 419 -206 419 -258 q 554 -19 419 -107 l 535 -19 q 183 115 303 -19 q 64 468 64 250 q 201 860 64 728 q 550 992 338 992 q 879 867 751 992 q 1007 511 1007 743 q 926 187 1007 324 q 692 3 844 50 m 281 496 q 347 205 281 313 q 547 97 414 97 q 729 194 665 97 q 793 486 793 290 q 724 771 793 665 q 528 876 654 876 q 281 496 281 876 z "},"ǫ":{"ha":833,"x_min":47,"x_max":778,"o":"m 556 6 q 474 -92 506 -42 q 443 -175 443 -142 q 496 -228 443 -228 q 565 -206 526 -228 l 597 -267 q 428 -332 525 -332 q 318 -295 354 -332 q 282 -206 282 -258 q 415 -19 282 -108 l 407 -19 q 139 78 231 -19 q 47 335 47 176 q 153 633 47 535 q 426 732 258 732 q 682 640 586 732 q 778 378 778 549 q 719 140 778 236 q 556 6 661 44 m 257 385 q 426 90 257 90 q 567 344 567 90 q 404 626 567 626 q 257 385 257 626 z "},"Ǻ":{"ha":1028,"x_min":17,"x_max":1011,"o":"m 643 1333 l 414 1242 l 376 1301 l 575 1478 q 635 1508 610 1508 q 691 1481 669 1508 q 713 1421 713 1454 q 697 1367 713 1386 q 643 1333 681 1349 m 956 93 l 1011 83 l 1011 0 l 582 0 l 582 83 l 646 93 q 678 113 674 97 q 672 163 683 128 l 629 299 l 321 299 l 278 168 q 273 117 265 135 q 310 94 281 100 l 371 83 l 371 0 l 17 0 l 17 83 l 82 93 q 117 114 106 99 q 143 169 129 129 l 413 919 q 336 1047 336 958 q 389 1165 336 1121 q 525 1208 442 1208 q 660 1167 614 1208 q 707 1054 707 1126 q 626 924 707 969 l 896 165 q 910 127 906 138 q 926 106 915 117 q 956 93 938 96 m 519 1136 q 461 1056 461 1136 q 519 972 461 972 q 579 1056 579 972 q 519 1136 579 1136 m 350 393 l 601 393 l 483 767 l 478 767 l 350 393 z "},"ǻ":{"ha":774,"x_min":50,"x_max":769,"o":"m 250 1172 l 213 1232 l 411 1408 q 471 1439 446 1439 q 527 1412 506 1439 q 549 1351 549 1385 q 533 1298 549 1317 q 479 1264 517 1279 l 250 1172 m 488 852 q 461 830 488 852 q 351 808 433 808 q 221 849 269 808 q 172 958 172 890 q 225 1076 172 1032 q 361 1119 278 1119 q 497 1078 450 1119 q 543 965 543 1038 q 488 852 543 896 m 356 883 q 415 967 415 883 q 356 1047 415 1047 q 297 967 297 1047 q 356 883 297 883 m 264 -19 q 110 31 171 -19 q 50 178 50 81 q 299 389 50 354 q 440 401 371 397 l 440 507 q 415 606 440 575 q 338 636 390 636 q 222 603 272 636 q 257 524 257 544 q 233 472 257 494 q 151 449 208 449 q 81 473 106 449 q 57 538 57 497 q 149 674 57 615 q 361 732 240 732 q 567 671 496 732 q 639 458 639 610 l 639 160 q 662 103 639 115 q 750 107 685 90 l 769 38 q 607 -19 701 -19 q 471 89 497 -19 q 264 -19 403 -19 m 343 106 q 440 219 440 106 l 440 313 q 342 303 386 313 q 254 200 254 283 q 278 130 254 154 q 343 106 301 106 z "},"Ǽ":{"ha":1415,"x_min":17,"x_max":1372,"o":"m 775 1043 l 738 1103 l 936 1279 q 996 1310 971 1310 q 1052 1283 1031 1310 q 1074 1222 1074 1256 q 1058 1169 1074 1188 q 1004 1135 1042 1150 l 775 1043 m 17 0 l 17 83 l 83 93 q 110 99 103 96 q 129 115 118 103 q 153 153 140 128 l 510 876 l 415 889 l 415 972 l 1283 972 l 1336 739 l 1246 715 q 1170 846 1210 817 q 1039 875 1131 875 l 911 875 l 911 543 l 982 543 q 1016 543 1003 543 q 1042 546 1029 543 q 1061 549 1054 549 q 1076 558 1068 550 q 1085 567 1083 565 q 1092 583 1088 568 q 1099 601 1097 597 q 1105 627 1100 606 q 1111 658 1110 649 l 1192 668 l 1192 344 l 1111 331 q 1101 392 1104 376 q 1086 424 1097 407 q 1058 444 1075 442 q 1006 449 1040 447 l 911 449 l 911 97 l 1075 97 q 1213 124 1178 97 q 1276 261 1247 151 l 1372 261 l 1339 0 l 596 0 l 596 83 l 663 96 q 698 116 690 100 q 706 167 706 132 l 706 449 l 425 449 l 290 169 q 276 119 272 138 q 313 94 279 100 l 371 83 l 371 0 l 17 0 m 471 543 l 706 543 l 706 875 l 631 875 l 471 543 z "},"ǽ":{"ha":1117,"x_min":50,"x_max":1078,"o":"m 486 806 l 440 854 l 606 1067 q 660 1107 636 1107 q 729 1078 704 1107 q 754 1019 754 1050 q 703 939 754 969 l 486 806 m 264 -19 q 110 31 171 -19 q 50 178 50 81 q 299 389 50 354 q 440 401 371 397 l 440 507 q 415 606 440 575 q 338 636 390 636 q 222 603 272 636 q 257 524 257 544 q 233 472 257 494 q 151 449 208 449 q 81 473 106 449 q 57 538 57 497 q 145 674 57 615 q 350 732 233 732 q 568 649 489 732 q 799 732 663 732 q 996 662 922 732 q 1069 467 1069 592 q 1051 325 1069 389 l 638 325 q 688 178 639 231 q 818 126 736 126 q 1017 204 919 126 l 1078 138 q 768 -19 954 -19 q 517 90 604 -19 q 264 -19 428 -19 m 638 431 l 874 431 q 878 504 878 458 q 853 602 878 574 q 779 631 828 631 q 638 431 647 631 m 343 106 q 440 219 440 106 l 440 313 q 342 303 386 313 q 254 200 254 283 q 278 130 254 154 q 343 106 301 106 z "},"Ǿ":{"ha":1072,"x_min":36,"x_max":1024,"o":"m 664 1135 l 435 1043 l 397 1103 l 596 1279 q 656 1310 631 1310 q 712 1283 690 1310 q 733 1222 733 1256 q 717 1169 733 1188 q 664 1135 701 1150 m 1024 992 l 900 844 q 1007 511 1007 718 q 883 129 1007 278 q 535 -19 760 -19 q 247 60 364 -19 l 182 -19 l 36 -19 l 165 136 q 64 468 64 264 q 201 860 64 728 q 550 992 338 992 q 817 918 703 992 l 878 992 l 1024 992 m 281 496 q 304 303 281 389 l 710 790 q 528 876 640 876 q 281 496 281 876 m 793 486 q 765 682 793 596 l 357 190 q 547 97 425 97 q 729 194 665 97 q 793 486 793 290 z "},"ǿ":{"ha":825,"x_min":15,"x_max":804,"o":"m 546 939 l 329 806 l 283 854 l 449 1067 q 503 1107 479 1107 q 572 1078 547 1107 q 597 1019 597 1050 q 546 939 597 969 m 804 732 l 703 617 q 778 378 778 529 q 678 85 778 190 q 407 -19 579 -19 q 193 35 278 -19 l 144 -19 l 15 -19 l 121 100 q 47 335 47 192 q 153 633 47 535 q 426 732 258 732 q 631 681 546 732 l 675 732 l 804 732 m 257 385 q 265 265 257 317 l 524 560 q 404 626 485 626 q 257 385 257 626 m 567 344 q 560 453 567 400 l 301 160 q 426 90 343 90 q 567 344 567 90 z "},"Ȁ":{"ha":1028,"x_min":17,"x_max":1011,"o":"m 656 1069 l 469 1217 q 422 1299 422 1256 q 440 1352 422 1329 q 492 1375 457 1375 q 550 1335 524 1375 l 699 1117 l 656 1069 m 424 1069 l 226 1207 q 175 1290 175 1243 q 192 1346 175 1322 q 243 1369 210 1369 q 304 1329 274 1369 l 467 1117 l 424 1069 m 17 0 l 17 83 l 82 93 q 117 114 106 99 q 143 169 129 129 l 432 972 l 610 972 l 896 165 q 910 127 906 138 q 926 106 915 117 q 956 93 938 96 l 1011 83 l 1011 0 l 582 0 l 582 83 l 646 93 q 678 113 674 97 q 672 163 683 128 l 629 299 l 321 299 l 278 168 q 273 117 265 135 q 310 94 281 100 l 371 83 l 371 0 l 17 0 m 350 393 l 601 393 l 483 767 l 478 767 l 350 393 z "},"ȁ":{"ha":774,"x_min":11,"x_max":769,"o":"m 492 806 l 306 953 q 258 1035 258 992 q 276 1088 258 1065 q 328 1111 293 1111 q 386 1071 360 1111 l 535 853 l 492 806 m 260 806 l 63 943 q 11 1026 11 979 q 28 1082 11 1058 q 79 1106 46 1106 q 140 1065 110 1106 l 303 853 l 260 806 m 264 -19 q 110 31 171 -19 q 50 178 50 81 q 299 389 50 354 q 440 401 371 397 l 440 507 q 415 606 440 575 q 338 636 390 636 q 222 603 272 636 q 257 524 257 544 q 233 472 257 494 q 151 449 208 449 q 81 473 106 449 q 57 538 57 497 q 149 674 57 615 q 361 732 240 732 q 567 671 496 732 q 639 458 639 610 l 639 160 q 662 103 639 115 q 750 107 685 90 l 769 38 q 607 -19 701 -19 q 471 89 497 -19 q 264 -19 403 -19 m 343 106 q 440 219 440 106 l 440 313 q 342 303 386 313 q 254 200 254 283 q 278 130 254 154 q 343 106 301 106 z "},"Ȃ":{"ha":1028,"x_min":17,"x_max":1011,"o":"m 525 1310 q 754 1056 731 1310 l 676 1033 q 522 1163 632 1163 q 367 1038 413 1163 l 288 1057 q 360 1236 297 1163 q 525 1310 424 1310 m 17 0 l 17 83 l 82 93 q 117 114 106 99 q 143 169 129 129 l 432 972 l 610 972 l 896 165 q 910 127 906 138 q 926 106 915 117 q 956 93 938 96 l 1011 83 l 1011 0 l 582 0 l 582 83 l 646 93 q 678 113 674 97 q 672 163 683 128 l 629 299 l 321 299 l 278 168 q 273 117 265 135 q 310 94 281 100 l 371 83 l 371 0 l 17 0 m 350 393 l 601 393 l 483 767 l 478 767 l 350 393 z "},"ȃ":{"ha":774,"x_min":50,"x_max":769,"o":"m 372 1088 q 535 1015 478 1088 q 604 817 593 943 l 526 800 q 363 942 478 942 q 265 908 301 942 q 207 804 229 874 l 128 817 q 203 1011 140 935 q 372 1088 265 1088 m 264 -19 q 110 31 171 -19 q 50 178 50 81 q 299 389 50 354 q 440 401 371 397 l 440 507 q 415 606 440 575 q 338 636 390 636 q 222 603 272 636 q 257 524 257 544 q 233 472 257 494 q 151 449 208 449 q 81 473 106 449 q 57 538 57 497 q 149 674 57 615 q 361 732 240 732 q 567 671 496 732 q 639 458 639 610 l 639 160 q 662 103 639 115 q 750 107 685 90 l 769 38 q 607 -19 701 -19 q 471 89 497 -19 q 264 -19 403 -19 m 343 106 q 440 219 440 106 l 440 313 q 342 303 386 313 q 254 200 254 283 q 278 130 254 154 q 343 106 301 106 z "}}}
